<ttFont>
    <TTGlyph name=".notdef" xMin="50" yMin="0" xMax="700" yMax="700">
      <contour>
        <pt x="50" y="700" on="1"/>
        <pt x="700" y="700" on="1"/>
        <pt x="700" y="0" on="1"/>
        <pt x="50" y="0" on="1"/>
      </contour>
      <contour>
        <pt x="570" y="650" on="1"/>
        <pt x="375" y="433" on="1"/>
        <pt x="180" y="650" on="1"/>
        <pt x="130" y="600" on="1"/>
        <pt x="327" y="380" on="1"/>
        <pt x="130" y="160" on="1"/>
        <pt x="180" y="110" on="1"/>
        <pt x="375" y="327" on="1"/>
        <pt x="570" y="110" on="1"/>
        <pt x="620" y="160" on="1"/>
        <pt x="422" y="380" on="1"/>
        <pt x="620" y="600" on="1"/>
      </contour>
      <contour>
        <pt x="162" y="68" on="1"/>
        <pt x="127" y="68" on="1"/>
        <pt x="127" y="61" on="1"/>
        <pt x="140" y="61" on="1"/>
        <pt x="140" y="26" on="1"/>
        <pt x="149" y="26" on="1"/>
        <pt x="149" y="61" on="1"/>
        <pt x="162" y="61" on="1"/>
      </contour>
      <contour>
        <pt x="271" y="58" on="1"/>
        <pt x="269" y="58" on="1"/>
        <pt x="268" y="58" on="0"/>
        <pt x="267" y="59" on="1"/>
        <pt x="263" y="59" on="0"/>
        <pt x="258" y="54" on="1"/>
        <pt x="258" y="58" on="1"/>
        <pt x="251" y="58" on="1"/>
        <pt x="251" y="26" on="1"/>
        <pt x="259" y="26" on="1"/>
        <pt x="259" y="46" on="1"/>
        <pt x="262" y="51" on="0"/>
        <pt x="266" y="51" on="1"/>
        <pt x="268" y="51" on="0"/>
        <pt x="270" y="50" on="1"/>
      </contour>
      <contour>
        <pt x="276" y="65" on="1"/>
        <pt x="276" y="60" on="0"/>
        <pt x="280" y="60" on="1"/>
        <pt x="285" y="60" on="0"/>
        <pt x="285" y="64" on="1"/>
        <pt x="285" y="69" on="0"/>
        <pt x="280" y="69" on="1"/>
        <pt x="276" y="69" on="0"/>
      </contour>
      <contour>
        <pt x="276" y="26" on="1"/>
        <pt x="285" y="26" on="1"/>
        <pt x="285" y="58" on="1"/>
        <pt x="276" y="58" on="1"/>
      </contour>
      <contour>
        <pt x="291" y="51" on="1"/>
        <pt x="296" y="51" on="1"/>
        <pt x="296" y="26" on="1"/>
        <pt x="304" y="26" on="1"/>
        <pt x="304" y="51" on="1"/>
        <pt x="312" y="51" on="1"/>
        <pt x="312" y="58" on="1"/>
        <pt x="304" y="58" on="1"/>
        <pt x="304" y="60" on="0"/>
        <pt x="305" y="61" on="1"/>
        <pt x="306" y="62" on="0"/>
        <pt x="308" y="62" on="1"/>
        <pt x="311" y="62" on="1"/>
        <pt x="314" y="62" on="1"/>
        <pt x="315" y="68" on="1"/>
        <pt x="315" y="69" on="0"/>
        <pt x="311" y="69" on="1"/>
        <pt x="306" y="69" on="1"/>
        <pt x="302" y="69" on="1"/>
        <pt x="301" y="69" on="0"/>
        <pt x="297" y="66" on="0"/>
        <pt x="297" y="65" on="1"/>
        <pt x="296" y="63" on="0"/>
        <pt x="296" y="60" on="1"/>
        <pt x="296" y="58" on="1"/>
        <pt x="291" y="58" on="1"/>
      </contour>
      <contour>
        <pt x="331" y="45" on="1"/>
        <pt x="331" y="20" on="0"/>
        <pt x="354" y="20" on="1"/>
        <pt x="365" y="20" on="0"/>
        <pt x="378" y="32" on="0"/>
        <pt x="378" y="45" on="1"/>
        <pt x="378" y="68" on="0"/>
        <pt x="354" y="68" on="1"/>
        <pt x="344" y="68" on="0"/>
        <pt x="331" y="56" on="0"/>
      </contour>
      <contour>
        <pt x="338" y="45" on="1"/>
        <pt x="338" y="62" on="0"/>
        <pt x="354" y="62" on="1"/>
        <pt x="371" y="62" on="0"/>
        <pt x="371" y="45" on="1"/>
        <pt x="371" y="27" on="0"/>
        <pt x="354" y="27" on="1"/>
        <pt x="338" y="27" on="0"/>
      </contour>
      <contour>
        <pt x="361" y="40" on="1"/>
        <pt x="359" y="39" on="0"/>
        <pt x="357" y="39" on="1"/>
        <pt x="352" y="39" on="0"/>
        <pt x="352" y="45" on="1"/>
        <pt x="352" y="49" on="0"/>
        <pt x="357" y="49" on="1"/>
        <pt x="360" y="49" on="1"/>
        <pt x="363" y="54" on="1"/>
        <pt x="359" y="56" on="0"/>
        <pt x="354" y="56" on="1"/>
        <pt x="344" y="56" on="0"/>
        <pt x="344" y="45" on="1"/>
        <pt x="344" y="32" on="0"/>
        <pt x="354" y="32" on="1"/>
        <pt x="359" y="32" on="0"/>
        <pt x="363" y="34" on="1"/>
      </contour>
      <contour>
        <pt x="402" y="27" on="1"/>
        <pt x="411" y="27" on="1"/>
        <pt x="411" y="41" on="1"/>
        <pt x="416" y="41" on="1"/>
        <pt x="423" y="41" on="0"/>
        <pt x="434" y="47" on="0"/>
        <pt x="434" y="55" on="1"/>
        <pt x="434" y="65" on="0"/>
        <pt x="422" y="69" on="0"/>
        <pt x="415" y="69" on="1"/>
        <pt x="402" y="69" on="1"/>
      </contour>
      <contour>
        <pt x="416" y="62" on="1"/>
        <pt x="425" y="62" on="0"/>
        <pt x="425" y="56" on="1"/>
        <pt x="425" y="50" on="0"/>
        <pt x="420" y="49" on="0"/>
        <pt x="415" y="49" on="1"/>
        <pt x="411" y="49" on="1"/>
        <pt x="411" y="62" on="1"/>
      </contour>
      <contour>
        <pt x="440" y="51" on="1"/>
        <pt x="443" y="52" on="0"/>
        <pt x="448" y="53" on="0"/>
        <pt x="451" y="53" on="1"/>
        <pt x="456" y="53" on="0"/>
        <pt x="456" y="48" on="1"/>
        <pt x="456" y="46" on="1"/>
        <pt x="455" y="46" on="0"/>
        <pt x="453" y="47" on="0"/>
        <pt x="451" y="47" on="1"/>
        <pt x="436" y="47" on="0"/>
        <pt x="436" y="35" on="1"/>
        <pt x="436" y="26" on="0"/>
        <pt x="446" y="26" on="1"/>
        <pt x="453" y="26" on="0"/>
        <pt x="456" y="32" on="1"/>
        <pt x="459" y="27" on="1"/>
        <pt x="466" y="27" on="1"/>
        <pt x="465" y="28" on="0"/>
        <pt x="465" y="35" on="1"/>
        <pt x="465" y="48" on="1"/>
        <pt x="465" y="60" on="0"/>
        <pt x="453" y="60" on="1"/>
        <pt x="448" y="60" on="0"/>
        <pt x="440" y="57" on="0"/>
        <pt x="438" y="56" on="1"/>
      </contour>
      <contour>
        <pt x="450" y="33" on="1"/>
        <pt x="445" y="33" on="0"/>
        <pt x="445" y="38" on="1"/>
        <pt x="445" y="42" on="0"/>
        <pt x="451" y="42" on="1"/>
        <pt x="453" y="42" on="0"/>
        <pt x="455" y="41" on="0"/>
        <pt x="456" y="41" on="1"/>
        <pt x="456" y="38" on="1"/>
        <pt x="455" y="33" on="0"/>
      </contour>
      <contour>
        <pt x="494" y="59" on="1"/>
        <pt x="492" y="60" on="0"/>
        <pt x="489" y="60" on="1"/>
        <pt x="484" y="60" on="0"/>
        <pt x="482" y="54" on="1"/>
        <pt x="481" y="54" on="1"/>
        <pt x="480" y="59" on="1"/>
        <pt x="473" y="59" on="1"/>
        <pt x="473" y="27" on="1"/>
        <pt x="482" y="27" on="1"/>
        <pt x="482" y="47" on="1"/>
        <pt x="482" y="52" on="0"/>
        <pt x="489" y="52" on="1"/>
        <pt x="490" y="52" on="0"/>
        <pt x="490" y="51" on="0"/>
        <pt x="491" y="51" on="1"/>
        <pt x="492" y="51" on="1"/>
      </contour>
      <contour>
        <pt x="499" y="51" on="1"/>
        <pt x="509" y="53" on="0"/>
        <pt x="510" y="53" on="1"/>
        <pt x="516" y="53" on="0"/>
        <pt x="516" y="48" on="1"/>
        <pt x="516" y="46" on="1"/>
        <pt x="514" y="46" on="0"/>
        <pt x="512" y="47" on="0"/>
        <pt x="510" y="47" on="1"/>
        <pt x="495" y="47" on="0"/>
        <pt x="495" y="35" on="1"/>
        <pt x="495" y="26" on="0"/>
        <pt x="505" y="26" on="1"/>
        <pt x="513" y="26" on="0"/>
        <pt x="516" y="32" on="1"/>
        <pt x="517" y="32" on="1"/>
        <pt x="518" y="27" on="1"/>
        <pt x="525" y="27" on="1"/>
        <pt x="524" y="28" on="0"/>
        <pt x="524" y="35" on="1"/>
        <pt x="524" y="48" on="1"/>
        <pt x="524" y="60" on="0"/>
        <pt x="512" y="60" on="1"/>
        <pt x="507" y="60" on="0"/>
        <pt x="501" y="57" on="0"/>
        <pt x="498" y="56" on="1"/>
      </contour>
      <contour>
        <pt x="509" y="33" on="1"/>
        <pt x="504" y="33" on="0"/>
        <pt x="504" y="38" on="1"/>
        <pt x="504" y="42" on="0"/>
        <pt x="510" y="42" on="1"/>
        <pt x="512" y="42" on="0"/>
        <pt x="514" y="41" on="0"/>
        <pt x="516" y="41" on="1"/>
        <pt x="516" y="38" on="1"/>
        <pt x="513" y="33" on="0"/>
      </contour>
      <contour>
        <pt x="557" y="69" on="1"/>
        <pt x="521" y="69" on="1"/>
        <pt x="521" y="62" on="1"/>
        <pt x="535" y="62" on="1"/>
        <pt x="535" y="27" on="1"/>
        <pt x="543" y="27" on="1"/>
        <pt x="543" y="62" on="1"/>
        <pt x="557" y="62" on="1"/>
      </contour>
      <contour>
        <pt x="567" y="59" on="1"/>
        <pt x="557" y="59" on="1"/>
        <pt x="571" y="27" on="1"/>
        <pt x="569" y="22" on="0"/>
        <pt x="566" y="22" on="1"/>
        <pt x="564" y="23" on="1"/>
        <pt x="562" y="16" on="1"/>
        <pt x="563" y="15" on="0"/>
        <pt x="568" y="15" on="1"/>
        <pt x="575" y="15" on="0"/>
        <pt x="579" y="30" on="1"/>
        <pt x="591" y="59" on="1"/>
        <pt x="582" y="59" on="1"/>
        <pt x="576" y="41" on="1"/>
        <pt x="576" y="35" on="1"/>
        <pt x="575" y="35" on="1"/>
        <pt x="574" y="41" on="1"/>
      </contour>
      <contour>
        <pt x="595" y="15" on="1"/>
        <pt x="604" y="15" on="1"/>
        <pt x="604" y="28" on="1"/>
        <pt x="606" y="26" on="0"/>
        <pt x="610" y="26" on="1"/>
        <pt x="626" y="26" on="0"/>
        <pt x="626" y="44" on="1"/>
        <pt x="626" y="60" on="0"/>
        <pt x="613" y="60" on="1"/>
        <pt x="607" y="60" on="0"/>
        <pt x="603" y="55" on="1"/>
        <pt x="601" y="55" on="1"/>
        <pt x="600" y="59" on="1"/>
        <pt x="595" y="59" on="1"/>
      </contour>
      <contour>
        <pt x="611" y="53" on="1"/>
        <pt x="617" y="53" on="0"/>
        <pt x="617" y="44" on="1"/>
        <pt x="617" y="33" on="0"/>
        <pt x="608" y="33" on="1"/>
        <pt x="606" y="33" on="0"/>
        <pt x="604" y="35" on="1"/>
        <pt x="604" y="47" on="1"/>
        <pt x="604" y="53" on="0"/>
      </contour>
      <contour>
        <pt x="656" y="35" on="1"/>
        <pt x="654" y="33" on="0"/>
        <pt x="648" y="33" on="1"/>
        <pt x="640" y="33" on="0"/>
        <pt x="640" y="40" on="1"/>
        <pt x="661" y="40" on="1"/>
        <pt x="661" y="47" on="1"/>
        <pt x="661" y="60" on="0"/>
        <pt x="647" y="60" on="1"/>
        <pt x="631" y="60" on="0"/>
        <pt x="631" y="42" on="1"/>
        <pt x="631" y="26" on="0"/>
        <pt x="647" y="26" on="1"/>
        <pt x="655" y="26" on="0"/>
        <pt x="659" y="30" on="1"/>
      </contour>
      <contour>
        <pt x="647" y="53" on="1"/>
        <pt x="654" y="53" on="0"/>
        <pt x="653" y="46" on="1"/>
        <pt x="640" y="46" on="1"/>
        <pt x="640" y="53" on="0"/>
      </contour>
      <contour>
        <pt x="92" y="27" on="1"/>
        <pt x="101" y="27" on="1"/>
        <pt x="101" y="41" on="1"/>
        <pt x="106" y="41" on="1"/>
        <pt x="113" y="41" on="0"/>
        <pt x="124" y="47" on="0"/>
        <pt x="124" y="55" on="1"/>
        <pt x="124" y="65" on="0"/>
        <pt x="112" y="69" on="0"/>
        <pt x="105" y="69" on="1"/>
        <pt x="92" y="69" on="1"/>
      </contour>
      <contour>
        <pt x="106" y="62" on="1"/>
        <pt x="115" y="62" on="0"/>
        <pt x="115" y="56" on="1"/>
        <pt x="115" y="50" on="0"/>
        <pt x="110" y="49" on="0"/>
        <pt x="105" y="49" on="1"/>
        <pt x="101" y="49" on="1"/>
        <pt x="101" y="62" on="1"/>
      </contour>
      <contour>
        <pt x="200" y="38" on="1"/>
        <pt x="200" y="33" on="0"/>
        <pt x="192" y="33" on="1"/>
        <pt x="189" y="33" on="0"/>
        <pt x="185" y="34" on="0"/>
        <pt x="181" y="36" on="1"/>
        <pt x="178" y="27" on="1"/>
        <pt x="182" y="26" on="0"/>
        <pt x="188" y="25" on="0"/>
        <pt x="193" y="25" on="1"/>
        <pt x="209" y="25" on="0"/>
        <pt x="209" y="39" on="1"/>
        <pt x="209" y="44" on="0"/>
        <pt x="202" y="49" on="0"/>
        <pt x="195" y="52" on="0"/>
        <pt x="188" y="55" on="0"/>
        <pt x="188" y="58" on="1"/>
        <pt x="188" y="61" on="0"/>
        <pt x="195" y="61" on="1"/>
        <pt x="198" y="61" on="0"/>
        <pt x="203" y="60" on="0"/>
        <pt x="206" y="59" on="1"/>
        <pt x="208" y="67" on="1"/>
        <pt x="204" y="68" on="0"/>
        <pt x="198" y="69" on="0"/>
        <pt x="195" y="69" on="1"/>
        <pt x="179" y="69" on="0"/>
        <pt x="179" y="56" on="1"/>
        <pt x="179" y="51" on="0"/>
        <pt x="186" y="46" on="0"/>
        <pt x="193" y="43" on="0"/>
        <pt x="200" y="40" on="0"/>
      </contour>
      <contour>
        <pt x="239" y="34" on="1"/>
        <pt x="237" y="32" on="0"/>
        <pt x="231" y="32" on="1"/>
        <pt x="223" y="32" on="0"/>
        <pt x="223" y="39" on="1"/>
        <pt x="244" y="39" on="1"/>
        <pt x="244" y="46" on="1"/>
        <pt x="244" y="59" on="0"/>
        <pt x="230" y="59" on="1"/>
        <pt x="214" y="59" on="0"/>
        <pt x="214" y="41" on="1"/>
        <pt x="214" y="25" on="0"/>
        <pt x="230" y="25" on="1"/>
        <pt x="238" y="25" on="0"/>
        <pt x="242" y="29" on="1"/>
      </contour>
      <contour>
        <pt x="230" y="52" on="1"/>
        <pt x="237" y="52" on="0"/>
        <pt x="236" y="45" on="1"/>
        <pt x="223" y="45" on="1"/>
        <pt x="223" y="52" on="0"/>
      </contour>
    </TTGlyph>
    <TTGlyph name="A" xMin="0" yMin="0" xMax="683" yMax="712">
      <contour>
        <pt x="222" y="0" on="1"/>
        <pt x="0" y="0" on="1"/>
        <pt x="0" y="29" on="1"/>
        <pt x="36" y="45" on="0"/>
        <pt x="72" y="53" on="1"/>
        <pt x="325" y="712" on="1"/>
        <pt x="354" y="712" on="1"/>
        <pt x="607" y="53" on="1"/>
        <pt x="627" y="49" on="0"/>
        <pt x="666" y="39" on="0"/>
        <pt x="683" y="29" on="1"/>
        <pt x="683" y="0" on="1"/>
        <pt x="427" y="0" on="1"/>
        <pt x="427" y="29" on="1"/>
        <pt x="447" y="37" on="0"/>
        <pt x="489" y="49" on="0"/>
        <pt x="509" y="53" on="1"/>
        <pt x="441" y="236" on="1"/>
        <pt x="202" y="236" on="1"/>
        <pt x="136" y="53" on="1"/>
        <pt x="178" y="47" on="0"/>
        <pt x="222" y="29" on="1"/>
      </contour>
      <contour>
        <pt x="222" y="288" on="1"/>
        <pt x="424" y="288" on="1"/>
        <pt x="345" y="500" on="1"/>
        <pt x="326" y="586" on="1"/>
        <pt x="324" y="586" on="1"/>
        <pt x="299" y="498" on="1"/>
      </contour>
    </TTGlyph>
    <TTGlyph name="AE" xMin="0" yMin="0" xMax="864" yMax="700">
      <contour>
        <pt x="842" y="700" on="1"/>
        <pt x="841" y="660" on="0"/>
        <pt x="837" y="579" on="0"/>
        <pt x="831" y="538" on="1"/>
        <pt x="806" y="538" on="1"/>
        <pt x="764" y="648" on="1"/>
        <pt x="547" y="648" on="1"/>
        <pt x="547" y="383" on="1"/>
        <pt x="709" y="383" on="1"/>
        <pt x="749" y="457" on="1"/>
        <pt x="773" y="457" on="1"/>
        <pt x="781" y="358" on="0"/>
        <pt x="773" y="255" on="1"/>
        <pt x="749" y="255" on="1"/>
        <pt x="709" y="331" on="1"/>
        <pt x="547" y="331" on="1"/>
        <pt x="547" y="52" on="1"/>
        <pt x="777" y="52" on="1"/>
        <pt x="825" y="172" on="1"/>
        <pt x="851" y="172" on="1"/>
        <pt x="857" y="130" on="0"/>
        <pt x="864" y="44" on="0"/>
        <pt x="862" y="0" on="1"/>
        <pt x="369" y="0" on="1"/>
        <pt x="369" y="29" on="1"/>
        <pt x="404" y="45" on="0"/>
        <pt x="451" y="53" on="1"/>
        <pt x="451" y="256" on="1"/>
        <pt x="255" y="256" on="1"/>
        <pt x="139" y="53" on="1"/>
        <pt x="180" y="47" on="0"/>
        <pt x="224" y="29" on="1"/>
        <pt x="224" y="0" on="1"/>
        <pt x="0" y="0" on="1"/>
        <pt x="0" y="29" on="1"/>
        <pt x="36" y="45" on="0"/>
        <pt x="72" y="53" on="1"/>
        <pt x="426" y="652" on="1"/>
        <pt x="412" y="656" on="0"/>
        <pt x="382" y="665" on="0"/>
        <pt x="368" y="671" on="1"/>
        <pt x="368" y="700" on="1"/>
      </contour>
      <contour>
        <pt x="285" y="308" on="1"/>
        <pt x="451" y="308" on="1"/>
        <pt x="451" y="611" on="1"/>
        <pt x="449" y="611" on="1"/>
        <pt x="408" y="518" on="1"/>
      </contour>
    </TTGlyph>
    <TTGlyph name="Aacute" xMin="0" yMin="0" xMax="683" yMax="894">
      <component glyphName="A" x="0" y="0" flags="0x204"/>
      <component glyphName="uniF6C9" x="245" y="0" flags="0x4"/>
    </TTGlyph>
    <TTGlyph name="Abreve" xMin="0" yMin="0" xMax="683" yMax="890">
      <component glyphName="A" x="0" y="0" flags="0x204"/>
      <component glyphName="uniF406" x="131" y="0" flags="0x4"/>
    </TTGlyph>
    <TTGlyph name="Acircumflex" xMin="0" yMin="0" xMax="683" yMax="887">
      <component glyphName="A" x="0" y="0" flags="0x204"/>
      <component glyphName="uniF408" x="142" y="0" flags="0x4"/>
    </TTGlyph>
    <TTGlyph name="Adieresis" xMin="0" yMin="0" xMax="683" yMax="837">
      <component glyphName="A" x="0" y="0" flags="0x204"/>
      <component glyphName="uniF6CB" x="114" y="0" flags="0x4"/>
    </TTGlyph>
    <TTGlyph name="Agrave" xMin="0" yMin="0" xMax="683" yMax="894">
      <component glyphName="A" x="0" y="0" flags="0x204"/>
      <component glyphName="uniF6CE" x="67" y="0" flags="0x4"/>
    </TTGlyph>
    <TTGlyph name="Amacron" xMin="0" yMin="0" xMax="683" yMax="840">
      <component glyphName="A" x="0" y="0" flags="0x204"/>
      <component glyphName="uniF6D0" x="132" y="0" flags="0x4"/>
    </TTGlyph>
    <TTGlyph name="Aogonek" xMin="0" yMin="-251" xMax="683" yMax="712">
      <contour>
        <pt x="222" y="0" on="1"/>
        <pt x="0" y="0" on="1"/>
        <pt x="0" y="29" on="1"/>
        <pt x="36" y="45" on="0"/>
        <pt x="72" y="53" on="1"/>
        <pt x="325" y="712" on="1"/>
        <pt x="354" y="712" on="1"/>
        <pt x="607" y="53" on="1"/>
        <pt x="627" y="49" on="0"/>
        <pt x="666" y="39" on="0"/>
        <pt x="683" y="29" on="1"/>
        <pt x="683" y="0" on="1"/>
        <pt x="641" y="0" on="1"/>
        <pt x="598" y="-24" on="0"/>
        <pt x="540" y="-91" on="0"/>
        <pt x="540" y="-135" on="1"/>
        <pt x="540" y="-163" on="0"/>
        <pt x="576" y="-199" on="0"/>
        <pt x="607" y="-199" on="1"/>
        <pt x="638" y="-199" on="0"/>
        <pt x="662" y="-193" on="1"/>
        <pt x="662" y="-222" on="1"/>
        <pt x="648" y="-233" on="0"/>
        <pt x="604" y="-251" on="0"/>
        <pt x="571" y="-251" on="1"/>
        <pt x="548" y="-251" on="0"/>
        <pt x="507" y="-237" on="0"/>
        <pt x="476" y="-211" on="0"/>
        <pt x="458" y="-174" on="0"/>
        <pt x="458" y="-152" on="1"/>
        <pt x="458" y="-126" on="0"/>
        <pt x="477" y="-83" on="0"/>
        <pt x="511" y="-46" on="0"/>
        <pt x="558" y="-15" on="0"/>
        <pt x="586" y="0" on="1"/>
        <pt x="427" y="0" on="1"/>
        <pt x="427" y="29" on="1"/>
        <pt x="447" y="37" on="0"/>
        <pt x="489" y="49" on="0"/>
        <pt x="509" y="53" on="1"/>
        <pt x="441" y="236" on="1"/>
        <pt x="202" y="236" on="1"/>
        <pt x="136" y="53" on="1"/>
        <pt x="178" y="47" on="0"/>
        <pt x="222" y="29" on="1"/>
      </contour>
      <contour>
        <pt x="222" y="288" on="1"/>
        <pt x="424" y="288" on="1"/>
        <pt x="345" y="500" on="1"/>
        <pt x="326" y="586" on="1"/>
        <pt x="324" y="586" on="1"/>
        <pt x="299" y="498" on="1"/>
      </contour>
    </TTGlyph>
    <TTGlyph name="Aring" xMin="0" yMin="0" xMax="683" yMax="874">
      <contour>
        <pt x="230" y="788" on="1"/>
        <pt x="230" y="808" on="0"/>
        <pt x="248" y="840" on="0"/>
        <pt x="280" y="862" on="0"/>
        <pt x="321" y="874" on="0"/>
        <pt x="345" y="874" on="1"/>
        <pt x="364" y="874" on="0"/>
        <pt x="403" y="864" on="0"/>
        <pt x="435" y="844" on="0"/>
        <pt x="454" y="813" on="0"/>
        <pt x="454" y="791" on="1"/>
        <pt x="454" y="754" on="0"/>
        <pt x="395" y="712" on="0"/>
        <pt x="355" y="709" on="1"/>
        <pt x="607" y="53" on="1"/>
        <pt x="627" y="49" on="0"/>
        <pt x="666" y="39" on="0"/>
        <pt x="683" y="29" on="1"/>
        <pt x="683" y="0" on="1"/>
        <pt x="427" y="0" on="1"/>
        <pt x="427" y="29" on="1"/>
        <pt x="447" y="37" on="0"/>
        <pt x="489" y="49" on="0"/>
        <pt x="509" y="53" on="1"/>
        <pt x="441" y="236" on="1"/>
        <pt x="202" y="236" on="1"/>
        <pt x="136" y="53" on="1"/>
        <pt x="178" y="47" on="0"/>
        <pt x="222" y="29" on="1"/>
        <pt x="222" y="0" on="1"/>
        <pt x="0" y="0" on="1"/>
        <pt x="0" y="29" on="1"/>
        <pt x="36" y="45" on="0"/>
        <pt x="72" y="53" on="1"/>
        <pt x="324" y="710" on="1"/>
        <pt x="282" y="714" on="0"/>
        <pt x="230" y="754" on="0"/>
      </contour>
      <contour>
        <pt x="222" y="288" on="1"/>
        <pt x="424" y="288" on="1"/>
        <pt x="345" y="500" on="1"/>
        <pt x="326" y="586" on="1"/>
        <pt x="324" y="586" on="1"/>
        <pt x="299" y="498" on="1"/>
      </contour>
      <contour>
        <pt x="286" y="788" on="1"/>
        <pt x="286" y="768" on="0"/>
        <pt x="321" y="750" on="0"/>
        <pt x="340" y="750" on="1"/>
        <pt x="366" y="750" on="0"/>
        <pt x="398" y="768" on="0"/>
        <pt x="398" y="787" on="1"/>
        <pt x="398" y="813" on="0"/>
        <pt x="362" y="833" on="0"/>
        <pt x="343" y="833" on="1"/>
        <pt x="318" y="833" on="0"/>
        <pt x="286" y="814" on="0"/>
      </contour>
    </TTGlyph>
    <TTGlyph name="Atilde" xMin="0" yMin="0" xMax="683" yMax="862">
      <component glyphName="A" x="0" y="0" flags="0x204"/>
      <component glyphName="uniF40D" x="123" y="0" flags="0x4"/>
    </TTGlyph>
    <TTGlyph name="B" xMin="29" yMin="-6" xMax="562" yMax="706">
      <contour>
        <pt x="29" y="0" on="1"/>
        <pt x="29" y="29" on="1"/>
        <pt x="69" y="48" on="0"/>
        <pt x="111" y="53" on="1"/>
        <pt x="111" y="646" on="1"/>
        <pt x="91" y="650" on="0"/>
        <pt x="49" y="663" on="0"/>
        <pt x="29" y="671" on="1"/>
        <pt x="29" y="700" on="1"/>
        <pt x="135" y="700" on="1"/>
        <pt x="154" y="700" on="0"/>
        <pt x="189" y="702" on="0"/>
        <pt x="227" y="704" on="0"/>
        <pt x="271" y="706" on="0"/>
        <pt x="299" y="706" on="1"/>
        <pt x="339" y="706" on="0"/>
        <pt x="422" y="693" on="0"/>
        <pt x="489" y="657" on="0"/>
        <pt x="531" y="592" on="0"/>
        <pt x="531" y="540" on="1"/>
        <pt x="531" y="514" on="0"/>
        <pt x="515" y="462" on="0"/>
        <pt x="482" y="417" on="0"/>
        <pt x="432" y="383" on="0"/>
        <pt x="398" y="375" on="1"/>
        <pt x="398" y="371" on="1"/>
        <pt x="428" y="366" on="0"/>
        <pt x="487" y="342" on="0"/>
        <pt x="533" y="301" on="0"/>
        <pt x="562" y="241" on="0"/>
        <pt x="562" y="199" on="1"/>
        <pt x="562" y="145" on="0"/>
        <pt x="514" y="67" on="0"/>
        <pt x="437" y="17" on="0"/>
        <pt x="339" y="-6" on="0"/>
        <pt x="289" y="-6" on="1"/>
        <pt x="254" y="-6" on="0"/>
        <pt x="166" y="0" on="0"/>
        <pt x="125" y="0" on="1"/>
      </contour>
      <contour>
        <pt x="296" y="46" on="1"/>
        <pt x="332" y="46" on="0"/>
        <pt x="395" y="68" on="0"/>
        <pt x="440" y="107" on="0"/>
        <pt x="466" y="162" on="0"/>
        <pt x="466" y="194" on="1"/>
        <pt x="466" y="234" on="0"/>
        <pt x="435" y="287" on="0"/>
        <pt x="382" y="318" on="0"/>
        <pt x="313" y="330" on="0"/>
        <pt x="276" y="330" on="1"/>
        <pt x="201" y="330" on="1"/>
        <pt x="201" y="54" on="1"/>
        <pt x="215" y="50" on="0"/>
        <pt x="254" y="46" on="0"/>
      </contour>
      <contour>
        <pt x="251" y="382" on="1"/>
        <pt x="268" y="382" on="0"/>
        <pt x="315" y="385" on="0"/>
        <pt x="330" y="387" on="1"/>
        <pt x="376" y="403" on="0"/>
        <pt x="435" y="474" on="0"/>
        <pt x="435" y="522" on="1"/>
        <pt x="435" y="588" on="0"/>
        <pt x="356" y="654" on="0"/>
        <pt x="290" y="654" on="1"/>
        <pt x="259" y="654" on="0"/>
        <pt x="215" y="652" on="0"/>
        <pt x="201" y="650" on="1"/>
        <pt x="201" y="382" on="1"/>
      </contour>
    </TTGlyph>
    <TTGlyph name="C" xMin="53" yMin="-12" xMax="586" yMax="712">
      <contour>
        <pt x="547" y="182" on="1"/>
        <pt x="573" y="182" on="1"/>
        <pt x="578" y="154" on="0"/>
        <pt x="586" y="69" on="0"/>
        <pt x="584" y="29" on="1"/>
        <pt x="569" y="17" on="0"/>
        <pt x="527" y="2" on="0"/>
        <pt x="480" y="-8" on="0"/>
        <pt x="431" y="-12" on="0"/>
        <pt x="409" y="-12" on="1"/>
        <pt x="325" y="-12" on="0"/>
        <pt x="193" y="31" on="0"/>
        <pt x="102" y="119" on="0"/>
        <pt x="53" y="256" on="0"/>
        <pt x="53" y="350" on="1"/>
        <pt x="53" y="448" on="0"/>
        <pt x="107" y="585" on="0"/>
        <pt x="199" y="672" on="0"/>
        <pt x="321" y="712" on="0"/>
        <pt x="388" y="712" on="1"/>
        <pt x="454" y="712" on="0"/>
        <pt x="544" y="695" on="0"/>
        <pt x="578" y="678" on="1"/>
        <pt x="578" y="662" on="0"/>
        <pt x="576" y="619" on="0"/>
        <pt x="572" y="571" on="0"/>
        <pt x="566" y="525" on="0"/>
        <pt x="563" y="506" on="1"/>
        <pt x="537" y="506" on="1"/>
        <pt x="485" y="650" on="1"/>
        <pt x="474" y="656" on="0"/>
        <pt x="423" y="660" on="0"/>
        <pt x="398" y="660" on="1"/>
        <pt x="348" y="660" on="0"/>
        <pt x="259" y="623" on="0"/>
        <pt x="192" y="546" on="0"/>
        <pt x="152" y="429" on="0"/>
        <pt x="152" y="350" on="1"/>
        <pt x="152" y="279" on="0"/>
        <pt x="188" y="164" on="0"/>
        <pt x="256" y="83" on="0"/>
        <pt x="354" y="40" on="0"/>
        <pt x="416" y="40" on="1"/>
        <pt x="449" y="40" on="0"/>
        <pt x="493" y="50" on="0"/>
        <pt x="500" y="58" on="1"/>
      </contour>
    </TTGlyph>
    <TTGlyph name="Cacute" xMin="53" yMin="-12" xMax="586" yMax="894">
      <component glyphName="C" x="0" y="0" flags="0x204"/>
      <component glyphName="uniF6C9" x="234" y="0" flags="0x4"/>
    </TTGlyph>
    <TTGlyph name="Ccaron" xMin="53" yMin="-12" xMax="586" yMax="888">
      <component glyphName="C" x="0" y="0" flags="0x204"/>
      <component glyphName="uniF6CA" x="186" y="0" flags="0x4"/>
    </TTGlyph>
    <TTGlyph name="Ccedilla" xMin="53" yMin="-272" xMax="586" yMax="712">
      <contour>
        <pt x="547" y="182" on="1"/>
        <pt x="573" y="182" on="1"/>
        <pt x="578" y="154" on="0"/>
        <pt x="586" y="69" on="0"/>
        <pt x="584" y="29" on="1"/>
        <pt x="567" y="16" on="0"/>
        <pt x="520" y="0" on="0"/>
        <pt x="468" y="-9" on="0"/>
        <pt x="415" y="-12" on="0"/>
        <pt x="392" y="-12" on="1"/>
        <pt x="368" y="-75" on="1"/>
        <pt x="428" y="-76" on="0"/>
        <pt x="485" y="-119" on="0"/>
        <pt x="485" y="-154" on="1"/>
        <pt x="485" y="-184" on="0"/>
        <pt x="450" y="-228" on="0"/>
        <pt x="397" y="-258" on="0"/>
        <pt x="333" y="-272" on="0"/>
        <pt x="304" y="-272" on="1"/>
        <pt x="304" y="-239" on="1"/>
        <pt x="344" y="-233" on="0"/>
        <pt x="398" y="-201" on="0"/>
        <pt x="397" y="-172" on="1"/>
        <pt x="396" y="-144" on="0"/>
        <pt x="352" y="-119" on="0"/>
        <pt x="307" y="-116" on="1"/>
        <pt x="343" y="-8" on="1"/>
        <pt x="205" y="7" on="0"/>
        <pt x="53" y="180" on="0"/>
        <pt x="53" y="350" on="1"/>
        <pt x="53" y="448" on="0"/>
        <pt x="107" y="585" on="0"/>
        <pt x="199" y="672" on="0"/>
        <pt x="321" y="712" on="0"/>
        <pt x="388" y="712" on="1"/>
        <pt x="454" y="712" on="0"/>
        <pt x="544" y="695" on="0"/>
        <pt x="578" y="678" on="1"/>
        <pt x="578" y="662" on="0"/>
        <pt x="576" y="619" on="0"/>
        <pt x="572" y="571" on="0"/>
        <pt x="566" y="525" on="0"/>
        <pt x="563" y="506" on="1"/>
        <pt x="537" y="506" on="1"/>
        <pt x="485" y="650" on="1"/>
        <pt x="474" y="656" on="0"/>
        <pt x="423" y="660" on="0"/>
        <pt x="398" y="660" on="1"/>
        <pt x="348" y="660" on="0"/>
        <pt x="259" y="623" on="0"/>
        <pt x="192" y="546" on="0"/>
        <pt x="152" y="429" on="0"/>
        <pt x="152" y="350" on="1"/>
        <pt x="152" y="279" on="0"/>
        <pt x="188" y="164" on="0"/>
        <pt x="256" y="83" on="0"/>
        <pt x="354" y="40" on="0"/>
        <pt x="416" y="40" on="1"/>
        <pt x="449" y="40" on="0"/>
        <pt x="493" y="50" on="0"/>
        <pt x="500" y="58" on="1"/>
      </contour>
    </TTGlyph>
    <TTGlyph name="Ccircumflex" xMin="53" yMin="-12" xMax="586" yMax="887">
      <component glyphName="C" x="0" y="0" flags="0x204"/>
      <component glyphName="uniF408" x="172" y="0" flags="0x4"/>
    </TTGlyph>
    <TTGlyph name="D" xMin="29" yMin="-9" xMax="656" yMax="708">
      <contour>
        <pt x="29" y="0" on="1"/>
        <pt x="29" y="29" on="1"/>
        <pt x="64" y="45" on="0"/>
        <pt x="111" y="53" on="1"/>
        <pt x="111" y="646" on="1"/>
        <pt x="88" y="651" on="0"/>
        <pt x="46" y="664" on="0"/>
        <pt x="29" y="671" on="1"/>
        <pt x="29" y="700" on="1"/>
        <pt x="131" y="700" on="1"/>
        <pt x="148" y="700" on="0"/>
        <pt x="194" y="702" on="0"/>
        <pt x="243" y="705" on="0"/>
        <pt x="288" y="708" on="0"/>
        <pt x="303" y="708" on="1"/>
        <pt x="473" y="708" on="0"/>
        <pt x="656" y="526" on="0"/>
        <pt x="656" y="359" on="1"/>
        <pt x="656" y="280" on="0"/>
        <pt x="611" y="145" on="0"/>
        <pt x="519" y="47" on="0"/>
        <pt x="378" y="-9" on="0"/>
        <pt x="282" y="-9" on="1"/>
        <pt x="267" y="-9" on="0"/>
        <pt x="229" y="-6" on="0"/>
        <pt x="187" y="-3" on="0"/>
        <pt x="144" y="0" on="0"/>
        <pt x="125" y="0" on="1"/>
      </contour>
      <contour>
        <pt x="289" y="656" on="1"/>
        <pt x="263" y="656" on="0"/>
        <pt x="215" y="655" on="0"/>
        <pt x="201" y="652" on="1"/>
        <pt x="201" y="46" on="1"/>
        <pt x="206" y="45" on="0"/>
        <pt x="232" y="44" on="0"/>
        <pt x="262" y="43" on="0"/>
        <pt x="289" y="43" on="0"/>
        <pt x="295" y="43" on="1"/>
        <pt x="364" y="43" on="0"/>
        <pt x="460" y="95" on="0"/>
        <pt x="521" y="182" on="0"/>
        <pt x="549" y="296" on="0"/>
        <pt x="549" y="359" on="1"/>
        <pt x="549" y="408" on="0"/>
        <pt x="522" y="513" on="0"/>
        <pt x="461" y="600" on="0"/>
        <pt x="361" y="656" on="0"/>
      </contour>
    </TTGlyph>
    <TTGlyph name="Dcaron" xMin="29" yMin="-9" xMax="656" yMax="888">
      <component glyphName="D" x="0" y="0" flags="0x204"/>
      <component glyphName="uniF6CA" x="99" y="0" flags="0x4"/>
    </TTGlyph>
    <TTGlyph name="Dcroat" xMin="22" yMin="-9" xMax="656" yMax="708">
      <component glyphName="Eth" x="0" y="0" flags="0x204"/>
    </TTGlyph>
    <TTGlyph name="E" xMin="29" yMin="0" xMax="524" yMax="700">
      <contour>
        <pt x="503" y="700" on="1"/>
        <pt x="502" y="660" on="0"/>
        <pt x="497" y="579" on="0"/>
        <pt x="492" y="538" on="1"/>
        <pt x="466" y="538" on="1"/>
        <pt x="425" y="648" on="1"/>
        <pt x="207" y="648" on="1"/>
        <pt x="207" y="383" on="1"/>
        <pt x="370" y="383" on="1"/>
        <pt x="409" y="457" on="1"/>
        <pt x="434" y="457" on="1"/>
        <pt x="440" y="358" on="0"/>
        <pt x="434" y="255" on="1"/>
        <pt x="409" y="255" on="1"/>
        <pt x="370" y="331" on="1"/>
        <pt x="207" y="331" on="1"/>
        <pt x="207" y="52" on="1"/>
        <pt x="437" y="52" on="1"/>
        <pt x="486" y="172" on="1"/>
        <pt x="511" y="172" on="1"/>
        <pt x="518" y="130" on="0"/>
        <pt x="524" y="44" on="0"/>
        <pt x="522" y="0" on="1"/>
        <pt x="29" y="0" on="1"/>
        <pt x="29" y="29" on="1"/>
        <pt x="64" y="45" on="0"/>
        <pt x="111" y="53" on="1"/>
        <pt x="111" y="646" on="1"/>
        <pt x="91" y="650" on="0"/>
        <pt x="49" y="663" on="0"/>
        <pt x="29" y="671" on="1"/>
        <pt x="29" y="700" on="1"/>
      </contour>
    </TTGlyph>
    <TTGlyph name="Eacute" xMin="29" yMin="0" xMax="524" yMax="894">
      <component glyphName="E" x="0" y="0" flags="0x204"/>
      <component glyphName="uniF6C9" x="155" y="0" flags="0x4"/>
    </TTGlyph>
    <TTGlyph name="Ecaron" xMin="29" yMin="0" xMax="524" yMax="888">
      <component glyphName="E" x="0" y="0" flags="0x204"/>
      <component glyphName="uniF6CA" x="96" y="0" flags="0x4"/>
    </TTGlyph>
    <TTGlyph name="Ecircumflex" xMin="29" yMin="0" xMax="524" yMax="887">
      <component glyphName="E" x="0" y="0" flags="0x204"/>
      <component glyphName="uniF408" x="101" y="0" flags="0x4"/>
    </TTGlyph>
    <TTGlyph name="Edieresis" xMin="29" yMin="0" xMax="524" yMax="837">
      <component glyphName="E" x="0" y="0" flags="0x204"/>
      <component glyphName="uniF6CB" x="59" y="0" flags="0x4"/>
    </TTGlyph>
    <TTGlyph name="Edotaccent" xMin="29" yMin="0" xMax="524" yMax="871">
      <component glyphName="E" x="0" y="0" flags="0x204"/>
      <component glyphName="uniF40B" x="166" y="0" flags="0x4"/>
    </TTGlyph>
    <TTGlyph name="Egrave" xMin="29" yMin="0" xMax="524" yMax="894">
      <component glyphName="E" x="0" y="0" flags="0x204"/>
      <component glyphName="uniF6CE" x="53" y="0" flags="0x4"/>
    </TTGlyph>
    <TTGlyph name="Emacron" xMin="29" yMin="0" xMax="524" yMax="840">
      <component glyphName="E" x="0" y="0" flags="0x204"/>
      <component glyphName="uniF6D0" x="91" y="0" flags="0x4"/>
    </TTGlyph>
    <TTGlyph name="Eogonek" xMin="29" yMin="-251" xMax="522" yMax="700">
      <contour>
        <pt x="503" y="700" on="1"/>
        <pt x="502" y="660" on="0"/>
        <pt x="497" y="579" on="0"/>
        <pt x="492" y="538" on="1"/>
        <pt x="466" y="538" on="1"/>
        <pt x="425" y="648" on="1"/>
        <pt x="207" y="648" on="1"/>
        <pt x="207" y="383" on="1"/>
        <pt x="370" y="383" on="1"/>
        <pt x="409" y="457" on="1"/>
        <pt x="434" y="457" on="1"/>
        <pt x="440" y="358" on="0"/>
        <pt x="434" y="255" on="1"/>
        <pt x="409" y="255" on="1"/>
        <pt x="370" y="331" on="1"/>
        <pt x="207" y="331" on="1"/>
        <pt x="207" y="52" on="1"/>
        <pt x="437" y="52" on="1"/>
        <pt x="486" y="172" on="1"/>
        <pt x="511" y="172" on="1"/>
        <pt x="514" y="159" on="0"/>
        <pt x="519" y="112" on="0"/>
        <pt x="522" y="60" on="0"/>
        <pt x="522" y="13" on="0"/>
        <pt x="522" y="0" on="1"/>
        <pt x="478" y="0" on="1"/>
        <pt x="436" y="-24" on="0"/>
        <pt x="377" y="-91" on="0"/>
        <pt x="377" y="-135" on="1"/>
        <pt x="377" y="-163" on="0"/>
        <pt x="413" y="-199" on="0"/>
        <pt x="445" y="-199" on="1"/>
        <pt x="476" y="-199" on="0"/>
        <pt x="500" y="-193" on="1"/>
        <pt x="500" y="-222" on="1"/>
        <pt x="486" y="-233" on="0"/>
        <pt x="441" y="-251" on="0"/>
        <pt x="409" y="-251" on="1"/>
        <pt x="386" y="-251" on="0"/>
        <pt x="344" y="-237" on="0"/>
        <pt x="313" y="-211" on="0"/>
        <pt x="295" y="-174" on="0"/>
        <pt x="295" y="-152" on="1"/>
        <pt x="295" y="-126" on="0"/>
        <pt x="314" y="-83" on="0"/>
        <pt x="349" y="-46" on="0"/>
        <pt x="396" y="-15" on="0"/>
        <pt x="424" y="0" on="1"/>
        <pt x="29" y="0" on="1"/>
        <pt x="29" y="29" on="1"/>
        <pt x="64" y="45" on="0"/>
        <pt x="111" y="53" on="1"/>
        <pt x="111" y="646" on="1"/>
        <pt x="91" y="650" on="0"/>
        <pt x="49" y="663" on="0"/>
        <pt x="29" y="671" on="1"/>
        <pt x="29" y="700" on="1"/>
      </contour>
    </TTGlyph>
    <TTGlyph name="Eth" xMin="22" yMin="-9" xMax="656" yMax="708">
      <contour>
        <pt x="22" y="384" on="1"/>
        <pt x="111" y="384" on="1"/>
        <pt x="111" y="646" on="1"/>
        <pt x="88" y="651" on="0"/>
        <pt x="46" y="664" on="0"/>
        <pt x="29" y="671" on="1"/>
        <pt x="29" y="700" on="1"/>
        <pt x="131" y="700" on="1"/>
        <pt x="148" y="700" on="0"/>
        <pt x="194" y="702" on="0"/>
        <pt x="243" y="705" on="0"/>
        <pt x="288" y="708" on="0"/>
        <pt x="303" y="708" on="1"/>
        <pt x="388" y="708" on="0"/>
        <pt x="519" y="661" on="0"/>
        <pt x="609" y="572" on="0"/>
        <pt x="656" y="442" on="0"/>
        <pt x="656" y="359" on="1"/>
        <pt x="656" y="280" on="0"/>
        <pt x="611" y="145" on="0"/>
        <pt x="519" y="47" on="0"/>
        <pt x="378" y="-9" on="0"/>
        <pt x="282" y="-9" on="1"/>
        <pt x="268" y="-9" on="0"/>
        <pt x="229" y="-6" on="0"/>
        <pt x="187" y="-3" on="0"/>
        <pt x="144" y="0" on="0"/>
        <pt x="125" y="0" on="1"/>
        <pt x="29" y="0" on="1"/>
        <pt x="29" y="29" on="1"/>
        <pt x="64" y="45" on="0"/>
        <pt x="111" y="53" on="1"/>
        <pt x="111" y="332" on="1"/>
        <pt x="22" y="332" on="1"/>
      </contour>
      <contour>
        <pt x="289" y="656" on="1"/>
        <pt x="263" y="656" on="0"/>
        <pt x="215" y="655" on="0"/>
        <pt x="201" y="652" on="1"/>
        <pt x="201" y="384" on="1"/>
        <pt x="368" y="384" on="1"/>
        <pt x="368" y="332" on="1"/>
        <pt x="201" y="332" on="1"/>
        <pt x="201" y="46" on="1"/>
        <pt x="206" y="45" on="0"/>
        <pt x="233" y="44" on="0"/>
        <pt x="263" y="43" on="0"/>
        <pt x="290" y="43" on="0"/>
        <pt x="296" y="43" on="1"/>
        <pt x="365" y="43" on="0"/>
        <pt x="461" y="95" on="0"/>
        <pt x="521" y="182" on="0"/>
        <pt x="549" y="296" on="0"/>
        <pt x="549" y="359" on="1"/>
        <pt x="549" y="408" on="0"/>
        <pt x="522" y="513" on="0"/>
        <pt x="461" y="600" on="0"/>
        <pt x="362" y="656" on="0"/>
      </contour>
    </TTGlyph>
    <TTGlyph name="Euro" xMin="-56" yMin="-12" xMax="529" yMax="712">
      <contour>
        <pt x="-41" y="439" on="1"/>
        <pt x="28" y="439" on="1"/>
        <pt x="38" y="510" on="0"/>
        <pt x="92" y="613" on="0"/>
        <pt x="172" y="680" on="0"/>
        <pt x="273" y="712" on="0"/>
        <pt x="332" y="712" on="1"/>
        <pt x="398" y="712" on="0"/>
        <pt x="488" y="695" on="0"/>
        <pt x="522" y="678" on="1"/>
        <pt x="522" y="662" on="0"/>
        <pt x="520" y="619" on="0"/>
        <pt x="516" y="571" on="0"/>
        <pt x="510" y="525" on="0"/>
        <pt x="507" y="506" on="1"/>
        <pt x="481" y="506" on="1"/>
        <pt x="429" y="650" on="1"/>
        <pt x="418" y="656" on="0"/>
        <pt x="367" y="660" on="0"/>
        <pt x="342" y="660" on="1"/>
        <pt x="257" y="660" on="0"/>
        <pt x="143" y="555" on="0"/>
        <pt x="126" y="439" on="1"/>
        <pt x="428" y="439" on="1"/>
        <pt x="413" y="383" on="1"/>
        <pt x="120" y="383" on="1"/>
        <pt x="120" y="350" on="1"/>
        <pt x="120" y="340" on="0"/>
        <pt x="120" y="322" on="0"/>
        <pt x="121" y="314" on="1"/>
        <pt x="394" y="314" on="1"/>
        <pt x="379" y="257" on="1"/>
        <pt x="127" y="257" on="1"/>
        <pt x="136" y="208" on="0"/>
        <pt x="173" y="128" on="0"/>
        <pt x="230" y="71" on="0"/>
        <pt x="309" y="40" on="0"/>
        <pt x="360" y="40" on="1"/>
        <pt x="393" y="40" on="0"/>
        <pt x="437" y="50" on="0"/>
        <pt x="444" y="58" on="1"/>
        <pt x="491" y="182" on="1"/>
        <pt x="517" y="182" on="1"/>
        <pt x="522" y="154" on="0"/>
        <pt x="529" y="69" on="0"/>
        <pt x="528" y="29" on="1"/>
        <pt x="513" y="17" on="0"/>
        <pt x="471" y="2" on="0"/>
        <pt x="424" y="-8" on="0"/>
        <pt x="376" y="-12" on="0"/>
        <pt x="354" y="-12" on="1"/>
        <pt x="208" y="-12" on="0"/>
        <pt x="48" y="122" on="0"/>
        <pt x="29" y="257" on="1"/>
        <pt x="-56" y="257" on="1"/>
        <pt x="-41" y="314" on="1"/>
        <pt x="23" y="314" on="1"/>
        <pt x="22" y="323" on="0"/>
        <pt x="22" y="341" on="0"/>
        <pt x="22" y="351" on="1"/>
        <pt x="22" y="359" on="0"/>
        <pt x="22" y="375" on="0"/>
        <pt x="23" y="383" on="1"/>
        <pt x="-56" y="383" on="1"/>
      </contour>
    </TTGlyph>
    <TTGlyph name="F" xMin="29" yMin="0" xMax="498" yMax="700">
      <contour>
        <pt x="197" y="53" on="1"/>
        <pt x="241" y="47" on="0"/>
        <pt x="283" y="29" on="1"/>
        <pt x="283" y="0" on="1"/>
        <pt x="29" y="0" on="1"/>
        <pt x="29" y="29" on="1"/>
        <pt x="46" y="37" on="0"/>
        <pt x="82" y="49" on="0"/>
        <pt x="101" y="53" on="1"/>
        <pt x="101" y="646" on="1"/>
        <pt x="79" y="651" on="0"/>
        <pt x="43" y="664" on="0"/>
        <pt x="29" y="671" on="1"/>
        <pt x="29" y="700" on="1"/>
        <pt x="498" y="700" on="1"/>
        <pt x="497" y="661" on="0"/>
        <pt x="492" y="579" on="0"/>
        <pt x="487" y="538" on="1"/>
        <pt x="461" y="538" on="1"/>
        <pt x="420" y="648" on="1"/>
        <pt x="197" y="648" on="1"/>
        <pt x="197" y="363" on="1"/>
        <pt x="370" y="363" on="1"/>
        <pt x="411" y="437" on="1"/>
        <pt x="434" y="437" on="1"/>
        <pt x="436" y="414" on="0"/>
        <pt x="438" y="363" on="0"/>
        <pt x="438" y="337" on="1"/>
        <pt x="438" y="310" on="0"/>
        <pt x="436" y="258" on="0"/>
        <pt x="434" y="235" on="1"/>
        <pt x="411" y="235" on="1"/>
        <pt x="370" y="312" on="1"/>
        <pt x="197" y="312" on="1"/>
      </contour>
    </TTGlyph>
    <TTGlyph name="G" xMin="53" yMin="-12" xMax="671" yMax="712">
      <contour>
        <pt x="609" y="48" on="1"/>
        <pt x="590" y="37" on="0"/>
        <pt x="539" y="16" on="0"/>
        <pt x="482" y="-1" on="0"/>
        <pt x="425" y="-12" on="0"/>
        <pt x="400" y="-12" on="1"/>
        <pt x="320" y="-12" on="0"/>
        <pt x="192" y="31" on="0"/>
        <pt x="102" y="120" on="0"/>
        <pt x="53" y="256" on="0"/>
        <pt x="53" y="350" on="1"/>
        <pt x="53" y="448" on="0"/>
        <pt x="110" y="586" on="0"/>
        <pt x="205" y="673" on="0"/>
        <pt x="326" y="712" on="0"/>
        <pt x="389" y="712" on="1"/>
        <pt x="455" y="712" on="0"/>
        <pt x="546" y="695" on="0"/>
        <pt x="580" y="678" on="1"/>
        <pt x="580" y="663" on="0"/>
        <pt x="578" y="619" on="0"/>
        <pt x="574" y="571" on="0"/>
        <pt x="568" y="524" on="0"/>
        <pt x="565" y="506" on="1"/>
        <pt x="539" y="506" on="1"/>
        <pt x="487" y="650" on="1"/>
        <pt x="476" y="656" on="0"/>
        <pt x="424" y="660" on="0"/>
        <pt x="399" y="660" on="1"/>
        <pt x="349" y="660" on="0"/>
        <pt x="259" y="623" on="0"/>
        <pt x="192" y="546" on="0"/>
        <pt x="152" y="429" on="0"/>
        <pt x="152" y="350" on="1"/>
        <pt x="152" y="279" on="0"/>
        <pt x="191" y="165" on="0"/>
        <pt x="260" y="84" on="0"/>
        <pt x="353" y="40" on="0"/>
        <pt x="407" y="40" on="1"/>
        <pt x="427" y="40" on="0"/>
        <pt x="465" y="48" on="0"/>
        <pt x="497" y="59" on="0"/>
        <pt x="518" y="71" on="0"/>
        <pt x="522" y="75" on="1"/>
        <pt x="522" y="277" on="1"/>
        <pt x="496" y="279" on="0"/>
        <pt x="449" y="293" on="0"/>
        <pt x="426" y="301" on="1"/>
        <pt x="426" y="330" on="1"/>
        <pt x="671" y="330" on="1"/>
        <pt x="671" y="301" on="1"/>
        <pt x="661" y="294" on="0"/>
        <pt x="633" y="282" on="0"/>
        <pt x="609" y="277" on="1"/>
      </contour>
    </TTGlyph>
    <TTGlyph name="Gbreve" xMin="53" yMin="-12" xMax="671" yMax="890">
      <component glyphName="G" x="0" y="0" flags="0x204"/>
      <component glyphName="uniF406" x="185" y="0" flags="0x4"/>
    </TTGlyph>
    <TTGlyph name="Gcircumflex" xMin="53" yMin="-12" xMax="671" yMax="887">
      <component glyphName="G" x="0" y="0" flags="0x204"/>
      <component glyphName="uniF408" x="174" y="0" flags="0x4"/>
    </TTGlyph>
    <TTGlyph name="Gcommaaccent" xMin="53" yMin="-272" xMax="671" yMax="712">
      <component glyphName="G" x="0" y="0" flags="0x204"/>
      <component glyphName="uniF409" x="240" y="0" flags="0x4"/>
    </TTGlyph>
    <TTGlyph name="H" xMin="29" yMin="0" xMax="699" yMax="700">
      <contour>
        <pt x="282" y="0" on="1"/>
        <pt x="29" y="0" on="1"/>
        <pt x="29" y="29" on="1"/>
        <pt x="69" y="45" on="0"/>
        <pt x="111" y="53" on="1"/>
        <pt x="111" y="646" on="1"/>
        <pt x="64" y="653" on="0"/>
        <pt x="29" y="671" on="1"/>
        <pt x="29" y="700" on="1"/>
        <pt x="282" y="700" on="1"/>
        <pt x="282" y="671" on="1"/>
        <pt x="265" y="662" on="0"/>
        <pt x="227" y="650" on="0"/>
        <pt x="207" y="646" on="1"/>
        <pt x="207" y="385" on="1"/>
        <pt x="521" y="385" on="1"/>
        <pt x="521" y="646" on="1"/>
        <pt x="500" y="651" on="0"/>
        <pt x="463" y="663" on="0"/>
        <pt x="446" y="671" on="1"/>
        <pt x="446" y="700" on="1"/>
        <pt x="699" y="700" on="1"/>
        <pt x="699" y="671" on="1"/>
        <pt x="681" y="661" on="0"/>
        <pt x="638" y="650" on="0"/>
        <pt x="617" y="646" on="1"/>
        <pt x="617" y="53" on="1"/>
        <pt x="640" y="49" on="0"/>
        <pt x="682" y="37" on="0"/>
        <pt x="699" y="29" on="1"/>
        <pt x="699" y="0" on="1"/>
        <pt x="446" y="0" on="1"/>
        <pt x="446" y="29" on="1"/>
        <pt x="482" y="45" on="0"/>
        <pt x="521" y="53" on="1"/>
        <pt x="521" y="333" on="1"/>
        <pt x="207" y="333" on="1"/>
        <pt x="207" y="53" on="1"/>
        <pt x="227" y="49" on="0"/>
        <pt x="265" y="37" on="0"/>
        <pt x="282" y="29" on="1"/>
      </contour>
    </TTGlyph>
    <TTGlyph name="Hbar" xMin="29" yMin="0" xMax="699" yMax="700">
      <contour>
        <pt x="30" y="558" on="1"/>
        <pt x="111" y="558" on="1"/>
        <pt x="111" y="646" on="1"/>
        <pt x="64" y="653" on="0"/>
        <pt x="29" y="671" on="1"/>
        <pt x="29" y="700" on="1"/>
        <pt x="282" y="700" on="1"/>
        <pt x="282" y="671" on="1"/>
        <pt x="265" y="662" on="0"/>
        <pt x="227" y="650" on="0"/>
        <pt x="207" y="646" on="1"/>
        <pt x="207" y="558" on="1"/>
        <pt x="521" y="558" on="1"/>
        <pt x="521" y="646" on="1"/>
        <pt x="500" y="651" on="0"/>
        <pt x="463" y="663" on="0"/>
        <pt x="446" y="671" on="1"/>
        <pt x="446" y="700" on="1"/>
        <pt x="699" y="700" on="1"/>
        <pt x="699" y="671" on="1"/>
        <pt x="681" y="661" on="0"/>
        <pt x="638" y="650" on="0"/>
        <pt x="617" y="646" on="1"/>
        <pt x="617" y="558" on="1"/>
        <pt x="698" y="558" on="1"/>
        <pt x="698" y="506" on="1"/>
        <pt x="617" y="506" on="1"/>
        <pt x="617" y="53" on="1"/>
        <pt x="640" y="49" on="0"/>
        <pt x="682" y="37" on="0"/>
        <pt x="699" y="29" on="1"/>
        <pt x="699" y="0" on="1"/>
        <pt x="446" y="0" on="1"/>
        <pt x="446" y="29" on="1"/>
        <pt x="482" y="45" on="0"/>
        <pt x="521" y="53" on="1"/>
        <pt x="521" y="333" on="1"/>
        <pt x="207" y="333" on="1"/>
        <pt x="207" y="53" on="1"/>
        <pt x="227" y="49" on="0"/>
        <pt x="265" y="37" on="0"/>
        <pt x="282" y="29" on="1"/>
        <pt x="282" y="0" on="1"/>
        <pt x="29" y="0" on="1"/>
        <pt x="29" y="29" on="1"/>
        <pt x="69" y="45" on="0"/>
        <pt x="111" y="53" on="1"/>
        <pt x="111" y="506" on="1"/>
        <pt x="30" y="506" on="1"/>
      </contour>
      <contour>
        <pt x="521" y="385" on="1"/>
        <pt x="521" y="506" on="1"/>
        <pt x="207" y="506" on="1"/>
        <pt x="207" y="385" on="1"/>
      </contour>
    </TTGlyph>
    <TTGlyph name="Hcircumflex" xMin="29" yMin="0" xMax="699" yMax="887">
      <component glyphName="H" x="0" y="0" flags="0x204"/>
      <component glyphName="uniF408" x="165" y="0" flags="0x4"/>
    </TTGlyph>
    <TTGlyph name="I" xMin="48" yMin="0" xMax="304" yMax="700">
      <contour>
        <pt x="304" y="0" on="1"/>
        <pt x="48" y="0" on="1"/>
        <pt x="48" y="29" on="1"/>
        <pt x="87" y="47" on="0"/>
        <pt x="128" y="53" on="1"/>
        <pt x="128" y="646" on="1"/>
        <pt x="108" y="650" on="0"/>
        <pt x="68" y="663" on="0"/>
        <pt x="48" y="671" on="1"/>
        <pt x="48" y="700" on="1"/>
        <pt x="304" y="700" on="1"/>
        <pt x="304" y="671" on="1"/>
        <pt x="286" y="663" on="0"/>
        <pt x="244" y="650" on="0"/>
        <pt x="224" y="646" on="1"/>
        <pt x="224" y="53" on="1"/>
        <pt x="245" y="49" on="0"/>
        <pt x="287" y="37" on="0"/>
        <pt x="304" y="29" on="1"/>
      </contour>
    </TTGlyph>
    <TTGlyph name="Iacute" xMin="48" yMin="0" xMax="337" yMax="894">
      <component glyphName="I" x="0" y="0" flags="0x204"/>
      <component glyphName="uniF6C9" x="34" y="0" flags="0x4"/>
    </TTGlyph>
    <TTGlyph name="Icircumflex" xMin="38" yMin="0" xMax="316" yMax="887">
      <component glyphName="I" x="0" y="0" flags="0x204"/>
      <component glyphName="uniF408" x="-22" y="0" flags="0x4"/>
    </TTGlyph>
    <TTGlyph name="Idieresis" xMin="9" yMin="0" xMax="345" yMax="837">
      <component glyphName="I" x="0" y="0" flags="0x204"/>
      <component glyphName="uniF6CB" x="-51" y="0" flags="0x4"/>
    </TTGlyph>
    <TTGlyph name="Idotaccent" xMin="48" yMin="0" xMax="304" yMax="871">
      <component glyphName="I" x="0" y="0" flags="0x204"/>
      <component glyphName="uniF40B" x="52" y="0" flags="0x4"/>
    </TTGlyph>
    <TTGlyph name="Igrave" xMin="36" yMin="0" xMax="304" yMax="894">
      <component glyphName="I" x="0" y="0" flags="0x204"/>
      <component glyphName="uniF6CE" x="-24" y="0" flags="0x4"/>
    </TTGlyph>
    <TTGlyph name="Imacron" xMin="27" yMin="0" xMax="328" yMax="840">
      <component glyphName="I" x="0" y="0" flags="0x204"/>
      <component glyphName="uniF6D0" x="-33" y="0" flags="0x4"/>
    </TTGlyph>
    <TTGlyph name="Iogonek" xMin="48" yMin="-251" xMax="304" yMax="700">
      <contour>
        <pt x="304" y="0" on="1"/>
        <pt x="264" y="0" on="1"/>
        <pt x="221" y="-24" on="0"/>
        <pt x="163" y="-91" on="0"/>
        <pt x="163" y="-135" on="1"/>
        <pt x="163" y="-163" on="0"/>
        <pt x="199" y="-199" on="0"/>
        <pt x="230" y="-199" on="1"/>
        <pt x="261" y="-199" on="0"/>
        <pt x="285" y="-193" on="1"/>
        <pt x="285" y="-222" on="1"/>
        <pt x="271" y="-233" on="0"/>
        <pt x="227" y="-251" on="0"/>
        <pt x="194" y="-251" on="1"/>
        <pt x="171" y="-251" on="0"/>
        <pt x="130" y="-237" on="0"/>
        <pt x="99" y="-211" on="0"/>
        <pt x="81" y="-174" on="0"/>
        <pt x="81" y="-152" on="1"/>
        <pt x="81" y="-126" on="0"/>
        <pt x="100" y="-83" on="0"/>
        <pt x="134" y="-46" on="0"/>
        <pt x="181" y="-15" on="0"/>
        <pt x="209" y="0" on="1"/>
        <pt x="48" y="0" on="1"/>
        <pt x="48" y="29" on="1"/>
        <pt x="87" y="47" on="0"/>
        <pt x="128" y="53" on="1"/>
        <pt x="128" y="646" on="1"/>
        <pt x="108" y="650" on="0"/>
        <pt x="68" y="663" on="0"/>
        <pt x="48" y="671" on="1"/>
        <pt x="48" y="700" on="1"/>
        <pt x="304" y="700" on="1"/>
        <pt x="304" y="671" on="1"/>
        <pt x="286" y="663" on="0"/>
        <pt x="244" y="650" on="0"/>
        <pt x="224" y="646" on="1"/>
        <pt x="224" y="53" on="1"/>
        <pt x="245" y="49" on="0"/>
        <pt x="287" y="37" on="0"/>
        <pt x="304" y="29" on="1"/>
      </contour>
    </TTGlyph>
    <TTGlyph name="J" xMin="39" yMin="-160" xMax="293" yMax="700">
      <contour>
        <pt x="39" y="700" on="1"/>
        <pt x="293" y="700" on="1"/>
        <pt x="293" y="671" on="1"/>
        <pt x="275" y="663" on="0"/>
        <pt x="237" y="650" on="0"/>
        <pt x="217" y="646" on="1"/>
        <pt x="217" y="86" on="1"/>
        <pt x="217" y="16" on="0"/>
        <pt x="185" y="-74" on="0"/>
        <pt x="138" y="-129" on="0"/>
        <pt x="85" y="-155" on="0"/>
        <pt x="63" y="-160" on="1"/>
        <pt x="52" y="-145" on="1"/>
        <pt x="67" y="-132" on="0"/>
        <pt x="92" y="-99" on="0"/>
        <pt x="111" y="-49" on="0"/>
        <pt x="121" y="23" on="0"/>
        <pt x="121" y="75" on="1"/>
        <pt x="121" y="646" on="1"/>
        <pt x="99" y="651" on="0"/>
        <pt x="57" y="663" on="0"/>
        <pt x="39" y="671" on="1"/>
      </contour>
    </TTGlyph>
    <TTGlyph name="Jcircumflex" xMin="30" yMin="-160" xMax="308" yMax="887">
      <component glyphName="J" x="0" y="0" flags="0x204"/>
      <component glyphName="uniF408" x="-30" y="0" flags="0x4"/>
    </TTGlyph>
    <TTGlyph name="K" xMin="29" yMin="0" xMax="646" yMax="700">
      <contour>
        <pt x="382" y="700" on="1"/>
        <pt x="603" y="700" on="1"/>
        <pt x="603" y="671" on="1"/>
        <pt x="583" y="662" on="0"/>
        <pt x="545" y="650" on="0"/>
        <pt x="527" y="646" on="1"/>
        <pt x="326" y="380" on="1"/>
        <pt x="351" y="347" on="0"/>
        <pt x="416" y="265" on="0"/>
        <pt x="487" y="178" on="0"/>
        <pt x="562" y="89" on="0"/>
        <pt x="598" y="49" on="1"/>
        <pt x="646" y="25" on="1"/>
        <pt x="646" y="0" on="1"/>
        <pt x="521" y="0" on="1"/>
        <pt x="487" y="24" on="1"/>
        <pt x="428" y="93" on="0"/>
        <pt x="311" y="253" on="0"/>
        <pt x="256" y="335" on="1"/>
        <pt x="207" y="335" on="1"/>
        <pt x="207" y="53" on="1"/>
        <pt x="253" y="45" on="0"/>
        <pt x="282" y="29" on="1"/>
        <pt x="282" y="0" on="1"/>
        <pt x="29" y="0" on="1"/>
        <pt x="29" y="29" on="1"/>
        <pt x="69" y="45" on="0"/>
        <pt x="111" y="53" on="1"/>
        <pt x="111" y="646" on="1"/>
        <pt x="66" y="652" on="0"/>
        <pt x="29" y="671" on="1"/>
        <pt x="29" y="700" on="1"/>
        <pt x="282" y="700" on="1"/>
        <pt x="282" y="671" on="1"/>
        <pt x="266" y="664" on="0"/>
        <pt x="228" y="651" on="0"/>
        <pt x="207" y="646" on="1"/>
        <pt x="207" y="369" on="1"/>
        <pt x="267" y="383" on="1"/>
        <pt x="454" y="646" on="1"/>
        <pt x="434" y="651" on="0"/>
        <pt x="398" y="663" on="0"/>
        <pt x="382" y="671" on="1"/>
      </contour>
    </TTGlyph>
    <TTGlyph name="Kcommaaccent" xMin="29" yMin="-272" xMax="646" yMax="700">
      <component glyphName="K" x="0" y="0" flags="0x204"/>
      <component glyphName="uniF409" x="182" y="0" flags="0x4"/>
    </TTGlyph>
    <TTGlyph name="L" xMin="29" yMin="0" xMax="533" yMax="700">
      <contour>
        <pt x="29" y="700" on="1"/>
        <pt x="303" y="700" on="1"/>
        <pt x="303" y="671" on="1"/>
        <pt x="279" y="662" on="0"/>
        <pt x="231" y="649" on="0"/>
        <pt x="207" y="646" on="1"/>
        <pt x="207" y="52" on="1"/>
        <pt x="437" y="52" on="1"/>
        <pt x="496" y="213" on="1"/>
        <pt x="522" y="213" on="1"/>
        <pt x="525" y="192" on="0"/>
        <pt x="530" y="137" on="0"/>
        <pt x="533" y="78" on="0"/>
        <pt x="533" y="22" on="0"/>
        <pt x="532" y="0" on="1"/>
        <pt x="29" y="0" on="1"/>
        <pt x="29" y="29" on="1"/>
        <pt x="53" y="40" on="0"/>
        <pt x="93" y="50" on="0"/>
        <pt x="111" y="53" on="1"/>
        <pt x="111" y="646" on="1"/>
        <pt x="88" y="650" on="0"/>
        <pt x="46" y="663" on="0"/>
        <pt x="29" y="671" on="1"/>
      </contour>
    </TTGlyph>
    <TTGlyph name="Lacute" xMin="29" yMin="0" xMax="533" yMax="894">
      <component glyphName="L" x="0" y="0" flags="0x204"/>
      <component glyphName="uniF6C9" x="85" y="0" flags="0x4"/>
    </TTGlyph>
    <TTGlyph name="Lcaron" xMin="29" yMin="0" xMax="533" yMax="713">
      <component glyphName="L" x="0" y="0" flags="0x204"/>
      <component glyphName="caron.L" x="5" y="0" flags="0x4"/>
    </TTGlyph>
    <TTGlyph name="Lcommaaccent" xMin="29" yMin="-272" xMax="533" yMax="700">
      <component glyphName="L" x="0" y="0" flags="0x204"/>
      <component glyphName="uniF409" x="140" y="0" flags="0x4"/>
    </TTGlyph>
    <TTGlyph name="Lslash" xMin="17" yMin="0" xMax="533" yMax="700">
      <contour>
        <pt x="29" y="700" on="1"/>
        <pt x="303" y="700" on="1"/>
        <pt x="303" y="671" on="1"/>
        <pt x="279" y="662" on="0"/>
        <pt x="231" y="649" on="0"/>
        <pt x="207" y="646" on="1"/>
        <pt x="207" y="392" on="1"/>
        <pt x="342" y="476" on="1"/>
        <pt x="342" y="410" on="1"/>
        <pt x="207" y="326" on="1"/>
        <pt x="207" y="52" on="1"/>
        <pt x="437" y="52" on="1"/>
        <pt x="496" y="213" on="1"/>
        <pt x="522" y="213" on="1"/>
        <pt x="525" y="192" on="0"/>
        <pt x="530" y="137" on="0"/>
        <pt x="533" y="78" on="0"/>
        <pt x="533" y="22" on="0"/>
        <pt x="532" y="0" on="1"/>
        <pt x="29" y="0" on="1"/>
        <pt x="29" y="29" on="1"/>
        <pt x="53" y="40" on="0"/>
        <pt x="93" y="50" on="0"/>
        <pt x="111" y="53" on="1"/>
        <pt x="111" y="267" on="1"/>
        <pt x="17" y="210" on="1"/>
        <pt x="17" y="275" on="1"/>
        <pt x="111" y="332" on="1"/>
        <pt x="111" y="646" on="1"/>
        <pt x="88" y="650" on="0"/>
        <pt x="46" y="663" on="0"/>
        <pt x="29" y="671" on="1"/>
      </contour>
    </TTGlyph>
    <TTGlyph name="M" xMin="29" yMin="0" xMax="838" yMax="700">
      <contour>
        <pt x="837" y="0" on="1"/>
        <pt x="589" y="0" on="1"/>
        <pt x="589" y="29" on="1"/>
        <pt x="609" y="37" on="0"/>
        <pt x="649" y="48" on="0"/>
        <pt x="670" y="53" on="1"/>
        <pt x="670" y="503" on="1"/>
        <pt x="674" y="620" on="1"/>
        <pt x="666" y="620" on="1"/>
        <pt x="633" y="513" on="1"/>
        <pt x="428" y="0" on="1"/>
        <pt x="402" y="0" on="1"/>
        <pt x="207" y="513" on="1"/>
        <pt x="171" y="630" on="1"/>
        <pt x="162" y="630" on="1"/>
        <pt x="163" y="503" on="1"/>
        <pt x="163" y="53" on="1"/>
        <pt x="182" y="49" on="0"/>
        <pt x="220" y="37" on="0"/>
        <pt x="239" y="29" on="1"/>
        <pt x="239" y="0" on="1"/>
        <pt x="30" y="0" on="1"/>
        <pt x="30" y="29" on="1"/>
        <pt x="49" y="37" on="0"/>
        <pt x="90" y="50" on="0"/>
        <pt x="111" y="54" on="1"/>
        <pt x="111" y="646" on="1"/>
        <pt x="90" y="650" on="0"/>
        <pt x="49" y="663" on="0"/>
        <pt x="29" y="671" on="1"/>
        <pt x="29" y="700" on="1"/>
        <pt x="234" y="700" on="1"/>
        <pt x="408" y="243" on="1"/>
        <pt x="442" y="140" on="1"/>
        <pt x="443" y="140" on="1"/>
        <pt x="477" y="245" on="1"/>
        <pt x="657" y="700" on="1"/>
        <pt x="838" y="700" on="1"/>
        <pt x="838" y="671" on="1"/>
        <pt x="820" y="663" on="0"/>
        <pt x="782" y="650" on="0"/>
        <pt x="762" y="646" on="1"/>
        <pt x="762" y="52" on="1"/>
        <pt x="783" y="48" on="0"/>
        <pt x="820" y="37" on="0"/>
        <pt x="837" y="29" on="1"/>
      </contour>
    </TTGlyph>
    <TTGlyph name="N" xMin="29" yMin="-12" xMax="703" yMax="700">
      <contour>
        <pt x="487" y="700" on="1"/>
        <pt x="703" y="700" on="1"/>
        <pt x="703" y="671" on="1"/>
        <pt x="661" y="643" on="0"/>
        <pt x="621" y="631" on="1"/>
        <pt x="621" y="-12" on="1"/>
        <pt x="564" y="-12" on="1"/>
        <pt x="201" y="539" on="1"/>
        <pt x="162" y="617" on="1"/>
        <pt x="159" y="617" on="1"/>
        <pt x="168" y="539" on="1"/>
        <pt x="168" y="64" on="1"/>
        <pt x="209" y="53" on="0"/>
        <pt x="245" y="29" on="1"/>
        <pt x="245" y="0" on="1"/>
        <pt x="29" y="0" on="1"/>
        <pt x="29" y="29" on="1"/>
        <pt x="47" y="40" on="0"/>
        <pt x="88" y="57" on="0"/>
        <pt x="111" y="64" on="1"/>
        <pt x="111" y="637" on="1"/>
        <pt x="91" y="645" on="0"/>
        <pt x="52" y="663" on="0"/>
        <pt x="35" y="672" on="1"/>
        <pt x="35" y="700" on="1"/>
        <pt x="204" y="700" on="1"/>
        <pt x="519" y="225" on="1"/>
        <pt x="565" y="139" on="1"/>
        <pt x="569" y="139" on="1"/>
        <pt x="564" y="225" on="1"/>
        <pt x="564" y="631" on="1"/>
        <pt x="543" y="640" on="0"/>
        <pt x="504" y="660" on="0"/>
        <pt x="487" y="671" on="1"/>
      </contour>
    </TTGlyph>
    <TTGlyph name="Nacute" xMin="29" yMin="-12" xMax="703" yMax="894">
      <component glyphName="N" x="0" y="0" flags="0x204"/>
      <component glyphName="uniF6C9" x="264" y="0" flags="0x4"/>
    </TTGlyph>
    <TTGlyph name="Ncaron" xMin="29" yMin="-12" xMax="703" yMax="888">
      <component glyphName="N" x="0" y="0" flags="0x204"/>
      <component glyphName="uniF6CA" x="167" y="0" flags="0x4"/>
    </TTGlyph>
    <TTGlyph name="Ncommaaccent" xMin="29" yMin="-272" xMax="703" yMax="700">
      <component glyphName="N" x="0" y="0" flags="0x204"/>
      <component glyphName="uniF409" x="229" y="0" flags="0x4"/>
    </TTGlyph>
    <TTGlyph name="Ntilde" xMin="29" yMin="-12" xMax="703" yMax="862">
      <component glyphName="N" x="0" y="0" flags="0x204"/>
      <component glyphName="uniF40D" x="147" y="0" flags="0x4"/>
    </TTGlyph>
    <TTGlyph name="O" xMin="53" yMin="-12" xMax="687" yMax="712">
      <contour>
        <pt x="53" y="350" on="1"/>
        <pt x="53" y="428" on="0"/>
        <pt x="96" y="561" on="0"/>
        <pt x="177" y="658" on="0"/>
        <pt x="295" y="712" on="0"/>
        <pt x="370" y="712" on="1"/>
        <pt x="445" y="712" on="0"/>
        <pt x="563" y="658" on="0"/>
        <pt x="644" y="561" on="0"/>
        <pt x="687" y="428" on="0"/>
        <pt x="687" y="350" on="1"/>
        <pt x="687" y="272" on="0"/>
        <pt x="644" y="139" on="0"/>
        <pt x="563" y="42" on="0"/>
        <pt x="445" y="-12" on="0"/>
        <pt x="370" y="-12" on="1"/>
        <pt x="295" y="-12" on="0"/>
        <pt x="177" y="42" on="0"/>
        <pt x="96" y="139" on="0"/>
        <pt x="53" y="272" on="0"/>
      </contour>
      <contour>
        <pt x="160" y="350" on="1"/>
        <pt x="160" y="286" on="0"/>
        <pt x="187" y="173" on="0"/>
        <pt x="241" y="89" on="0"/>
        <pt x="323" y="40" on="0"/>
        <pt x="379" y="40" on="1"/>
        <pt x="430" y="40" on="0"/>
        <pt x="506" y="89" on="0"/>
        <pt x="555" y="173" on="0"/>
        <pt x="580" y="286" on="0"/>
        <pt x="580" y="350" on="1"/>
        <pt x="580" y="414" on="0"/>
        <pt x="554" y="527" on="0"/>
        <pt x="500" y="611" on="0"/>
        <pt x="418" y="660" on="0"/>
        <pt x="362" y="660" on="1"/>
        <pt x="307" y="660" on="0"/>
        <pt x="230" y="611" on="0"/>
        <pt x="182" y="527" on="0"/>
        <pt x="160" y="414" on="0"/>
      </contour>
    </TTGlyph>
    <TTGlyph name="OE" xMin="53" yMin="-12" xMax="897" yMax="712">
      <contour>
        <pt x="486" y="0" on="1"/>
        <pt x="460" y="-5" on="0"/>
        <pt x="397" y="-12" on="0"/>
        <pt x="370" y="-12" on="1"/>
        <pt x="295" y="-12" on="0"/>
        <pt x="177" y="42" on="0"/>
        <pt x="96" y="139" on="0"/>
        <pt x="53" y="272" on="0"/>
        <pt x="53" y="350" on="1"/>
        <pt x="53" y="428" on="0"/>
        <pt x="96" y="561" on="0"/>
        <pt x="177" y="658" on="0"/>
        <pt x="295" y="712" on="0"/>
        <pt x="370" y="712" on="1"/>
        <pt x="393" y="712" on="0"/>
        <pt x="455" y="706" on="0"/>
        <pt x="484" y="700" on="1"/>
        <pt x="876" y="700" on="1"/>
        <pt x="874" y="660" on="0"/>
        <pt x="870" y="579" on="0"/>
        <pt x="865" y="538" on="1"/>
        <pt x="839" y="538" on="1"/>
        <pt x="797" y="648" on="1"/>
        <pt x="580" y="648" on="1"/>
        <pt x="580" y="383" on="1"/>
        <pt x="742" y="383" on="1"/>
        <pt x="782" y="457" on="1"/>
        <pt x="806" y="457" on="1"/>
        <pt x="814" y="358" on="0"/>
        <pt x="806" y="255" on="1"/>
        <pt x="782" y="255" on="1"/>
        <pt x="742" y="331" on="1"/>
        <pt x="580" y="331" on="1"/>
        <pt x="580" y="52" on="1"/>
        <pt x="810" y="52" on="1"/>
        <pt x="858" y="172" on="1"/>
        <pt x="884" y="172" on="1"/>
        <pt x="890" y="130" on="0"/>
        <pt x="897" y="44" on="0"/>
        <pt x="895" y="0" on="1"/>
      </contour>
      <contour>
        <pt x="379" y="40" on="1"/>
        <pt x="405" y="40" on="0"/>
        <pt x="458" y="48" on="0"/>
        <pt x="484" y="59" on="1"/>
        <pt x="484" y="636" on="1"/>
        <pt x="458" y="647" on="0"/>
        <pt x="395" y="660" on="0"/>
        <pt x="362" y="660" on="1"/>
        <pt x="307" y="660" on="0"/>
        <pt x="230" y="611" on="0"/>
        <pt x="182" y="527" on="0"/>
        <pt x="160" y="414" on="0"/>
        <pt x="160" y="350" on="1"/>
        <pt x="160" y="286" on="0"/>
        <pt x="187" y="173" on="0"/>
        <pt x="241" y="89" on="0"/>
        <pt x="323" y="40" on="0"/>
      </contour>
    </TTGlyph>
    <TTGlyph name="Oacute" xMin="53" yMin="-12" xMax="687" yMax="894">
      <component glyphName="O" x="0" y="0" flags="0x204"/>
      <component glyphName="uniF6C9" x="216" y="0" flags="0x4"/>
    </TTGlyph>
    <TTGlyph name="Ocircumflex" xMin="53" yMin="-12" xMax="687" yMax="887">
      <component glyphName="O" x="0" y="0" flags="0x204"/>
      <component glyphName="uniF408" x="171" y="0" flags="0x4"/>
    </TTGlyph>
    <TTGlyph name="Odieresis" xMin="53" yMin="-12" xMax="687" yMax="837">
      <component glyphName="O" x="0" y="0" flags="0x204"/>
      <component glyphName="uniF6CB" x="142" y="0" flags="0x4"/>
    </TTGlyph>
    <TTGlyph name="Ograve" xMin="53" yMin="-12" xMax="687" yMax="894">
      <component glyphName="O" x="0" y="0" flags="0x204"/>
      <component glyphName="uniF6CE" x="135" y="0" flags="0x4"/>
    </TTGlyph>
    <TTGlyph name="Ohungarumlaut" xMin="53" yMin="-12" xMax="687" yMax="889">
      <component glyphName="O" x="0" y="0" flags="0x204"/>
      <component glyphName="uniF6CF" x="195" y="0" flags="0x4"/>
    </TTGlyph>
    <TTGlyph name="Omacron" xMin="53" yMin="-12" xMax="687" yMax="840">
      <component glyphName="O" x="0" y="0" flags="0x204"/>
      <component glyphName="uniF6D0" x="159" y="0" flags="0x4"/>
    </TTGlyph>
    <TTGlyph name="Oslash" xMin="53" yMin="-13" xMax="687" yMax="713">
      <contour>
        <pt x="53" y="350" on="1"/>
        <pt x="53" y="428" on="0"/>
        <pt x="96" y="561" on="0"/>
        <pt x="177" y="658" on="0"/>
        <pt x="295" y="712" on="0"/>
        <pt x="370" y="712" on="1"/>
        <pt x="419" y="712" on="0"/>
        <pt x="502" y="688" on="0"/>
        <pt x="537" y="667" on="1"/>
        <pt x="565" y="713" on="1"/>
        <pt x="616" y="684" on="1"/>
        <pt x="582" y="631" on="1"/>
        <pt x="633" y="582" on="0"/>
        <pt x="687" y="438" on="0"/>
        <pt x="687" y="350" on="1"/>
        <pt x="687" y="272" on="0"/>
        <pt x="644" y="139" on="0"/>
        <pt x="563" y="42" on="0"/>
        <pt x="445" y="-12" on="0"/>
        <pt x="370" y="-12" on="1"/>
        <pt x="322" y="-12" on="0"/>
        <pt x="239" y="11" on="0"/>
        <pt x="204" y="31" on="1"/>
        <pt x="176" y="-13" on="1"/>
        <pt x="129" y="16" on="1"/>
        <pt x="159" y="65" on="1"/>
        <pt x="107" y="114" on="0"/>
        <pt x="53" y="260" on="0"/>
      </contour>
      <contour>
        <pt x="160" y="350" on="1"/>
        <pt x="160" y="290" on="0"/>
        <pt x="184" y="184" on="0"/>
        <pt x="208" y="143" on="1"/>
        <pt x="498" y="606" on="1"/>
        <pt x="472" y="632" on="0"/>
        <pt x="404" y="660" on="0"/>
        <pt x="362" y="660" on="1"/>
        <pt x="307" y="660" on="0"/>
        <pt x="230" y="611" on="0"/>
        <pt x="182" y="527" on="0"/>
        <pt x="160" y="414" on="0"/>
      </contour>
      <contour>
        <pt x="580" y="350" on="1"/>
        <pt x="580" y="410" on="0"/>
        <pt x="557" y="513" on="0"/>
        <pt x="533" y="554" on="1"/>
        <pt x="244" y="93" on="1"/>
        <pt x="270" y="67" on="0"/>
        <pt x="336" y="40" on="0"/>
        <pt x="379" y="40" on="1"/>
        <pt x="430" y="40" on="0"/>
        <pt x="506" y="89" on="0"/>
        <pt x="555" y="173" on="0"/>
        <pt x="580" y="286" on="0"/>
      </contour>
    </TTGlyph>
    <TTGlyph name="Otilde" xMin="53" yMin="-12" xMax="687" yMax="862">
      <component glyphName="O" x="0" y="0" flags="0x204"/>
      <component glyphName="uniF40D" x="151" y="0" flags="0x4"/>
    </TTGlyph>
    <TTGlyph name="P" xMin="29" yMin="0" xMax="557" yMax="708">
      <contour>
        <pt x="207" y="53" on="1"/>
        <pt x="234" y="50" on="0"/>
        <pt x="282" y="37" on="0"/>
        <pt x="303" y="29" on="1"/>
        <pt x="303" y="0" on="1"/>
        <pt x="29" y="0" on="1"/>
        <pt x="29" y="29" on="1"/>
        <pt x="49" y="39" on="0"/>
        <pt x="91" y="49" on="0"/>
        <pt x="111" y="53" on="1"/>
        <pt x="111" y="646" on="1"/>
        <pt x="88" y="650" on="0"/>
        <pt x="48" y="663" on="0"/>
        <pt x="29" y="671" on="1"/>
        <pt x="29" y="700" on="1"/>
        <pt x="119" y="700" on="1"/>
        <pt x="159" y="700" on="0"/>
        <pt x="253" y="708" on="0"/>
        <pt x="296" y="708" on="1"/>
        <pt x="345" y="708" on="0"/>
        <pt x="439" y="687" on="0"/>
        <pt x="512" y="637" on="0"/>
        <pt x="557" y="554" on="0"/>
        <pt x="557" y="492" on="1"/>
        <pt x="557" y="433" on="0"/>
        <pt x="511" y="349" on="0"/>
        <pt x="434" y="295" on="0"/>
        <pt x="336" y="270" on="0"/>
        <pt x="284" y="270" on="1"/>
        <pt x="279" y="270" on="0"/>
        <pt x="258" y="270" on="0"/>
        <pt x="234" y="271" on="0"/>
        <pt x="212" y="273" on="0"/>
        <pt x="207" y="274" on="1"/>
      </contour>
      <contour>
        <pt x="275" y="656" on="1"/>
        <pt x="251" y="656" on="0"/>
        <pt x="221" y="654" on="0"/>
        <pt x="207" y="651" on="1"/>
        <pt x="207" y="327" on="1"/>
        <pt x="212" y="325" on="0"/>
        <pt x="231" y="324" on="0"/>
        <pt x="252" y="322" on="0"/>
        <pt x="272" y="322" on="0"/>
        <pt x="278" y="322" on="1"/>
        <pt x="313" y="322" on="0"/>
        <pt x="375" y="341" on="0"/>
        <pt x="422" y="383" on="0"/>
        <pt x="450" y="447" on="0"/>
        <pt x="450" y="492" on="1"/>
        <pt x="450" y="574" on="0"/>
        <pt x="357" y="656" on="0"/>
      </contour>
    </TTGlyph>
    <TTGlyph name="Q" xMin="53" yMin="-202" xMax="760" yMax="712">
      <contour>
        <pt x="760" y="-115" on="1"/>
        <pt x="720" y="-151" on="0"/>
        <pt x="636" y="-202" on="0"/>
        <pt x="588" y="-201" on="1"/>
        <pt x="547" y="-201" on="0"/>
        <pt x="457" y="-171" on="0"/>
        <pt x="355" y="-129" on="0"/>
        <pt x="240" y="-83" on="0"/>
        <pt x="173" y="-66" on="1"/>
        <pt x="203" y="-46" on="1"/>
        <pt x="225" y="-43" on="0"/>
        <pt x="246" y="-43" on="1"/>
        <pt x="296" y="-43" on="0"/>
        <pt x="393" y="-67" on="0"/>
        <pt x="491" y="-95" on="0"/>
        <pt x="591" y="-119" on="0"/>
        <pt x="643" y="-119" on="1"/>
        <pt x="670" y="-119" on="0"/>
        <pt x="726" y="-111" on="0"/>
        <pt x="755" y="-101" on="1"/>
      </contour>
      <contour>
        <pt x="53" y="350" on="1"/>
        <pt x="53" y="428" on="0"/>
        <pt x="96" y="561" on="0"/>
        <pt x="177" y="658" on="0"/>
        <pt x="295" y="712" on="0"/>
        <pt x="370" y="712" on="1"/>
        <pt x="445" y="712" on="0"/>
        <pt x="563" y="658" on="0"/>
        <pt x="644" y="561" on="0"/>
        <pt x="687" y="428" on="0"/>
        <pt x="687" y="350" on="1"/>
        <pt x="687" y="272" on="0"/>
        <pt x="644" y="139" on="0"/>
        <pt x="563" y="42" on="0"/>
        <pt x="445" y="-12" on="0"/>
        <pt x="370" y="-12" on="1"/>
        <pt x="295" y="-12" on="0"/>
        <pt x="177" y="42" on="0"/>
        <pt x="96" y="139" on="0"/>
        <pt x="53" y="272" on="0"/>
      </contour>
      <contour>
        <pt x="160" y="350" on="1"/>
        <pt x="160" y="286" on="0"/>
        <pt x="187" y="173" on="0"/>
        <pt x="241" y="89" on="0"/>
        <pt x="323" y="40" on="0"/>
        <pt x="379" y="40" on="1"/>
        <pt x="430" y="40" on="0"/>
        <pt x="506" y="89" on="0"/>
        <pt x="555" y="173" on="0"/>
        <pt x="580" y="286" on="0"/>
        <pt x="580" y="350" on="1"/>
        <pt x="580" y="414" on="0"/>
        <pt x="554" y="527" on="0"/>
        <pt x="500" y="611" on="0"/>
        <pt x="418" y="660" on="0"/>
        <pt x="362" y="660" on="1"/>
        <pt x="307" y="660" on="0"/>
        <pt x="230" y="611" on="0"/>
        <pt x="182" y="527" on="0"/>
        <pt x="160" y="414" on="0"/>
      </contour>
    </TTGlyph>
    <TTGlyph name="R" xMin="29" yMin="0" xMax="627" yMax="708">
      <contour>
        <pt x="207" y="53" on="1"/>
        <pt x="230" y="48" on="0"/>
        <pt x="272" y="37" on="0"/>
        <pt x="292" y="29" on="1"/>
        <pt x="292" y="0" on="1"/>
        <pt x="29" y="0" on="1"/>
        <pt x="29" y="29" on="1"/>
        <pt x="51" y="39" on="0"/>
        <pt x="91" y="49" on="0"/>
        <pt x="111" y="53" on="1"/>
        <pt x="111" y="646" on="1"/>
        <pt x="85" y="651" on="0"/>
        <pt x="45" y="664" on="0"/>
        <pt x="29" y="671" on="1"/>
        <pt x="29" y="700" on="1"/>
        <pt x="117" y="700" on="1"/>
        <pt x="157" y="700" on="0"/>
        <pt x="252" y="708" on="0"/>
        <pt x="297" y="708" on="1"/>
        <pt x="346" y="708" on="0"/>
        <pt x="431" y="686" on="0"/>
        <pt x="493" y="638" on="0"/>
        <pt x="528" y="564" on="0"/>
        <pt x="528" y="512" on="1"/>
        <pt x="528" y="439" on="0"/>
        <pt x="451" y="343" on="0"/>
        <pt x="385" y="322" on="1"/>
        <pt x="428" y="254" on="0"/>
        <pt x="522" y="120" on="0"/>
        <pt x="573" y="54" on="1"/>
        <pt x="627" y="25" on="1"/>
        <pt x="627" y="0" on="1"/>
        <pt x="506" y="0" on="1"/>
        <pt x="468" y="28" on="1"/>
        <pt x="440" y="63" on="0"/>
        <pt x="394" y="130" on="0"/>
        <pt x="354" y="199" on="0"/>
        <pt x="319" y="270" on="0"/>
        <pt x="301" y="310" on="1"/>
        <pt x="207" y="310" on="1"/>
      </contour>
      <contour>
        <pt x="275" y="656" on="1"/>
        <pt x="251" y="656" on="0"/>
        <pt x="220" y="654" on="0"/>
        <pt x="207" y="651" on="1"/>
        <pt x="207" y="352" on="1"/>
        <pt x="279" y="352" on="1"/>
        <pt x="348" y="352" on="0"/>
        <pt x="429" y="440" on="0"/>
        <pt x="429" y="512" on="1"/>
        <pt x="429" y="586" on="0"/>
        <pt x="343" y="656" on="0"/>
      </contour>
    </TTGlyph>
    <TTGlyph name="Racute" xMin="29" yMin="0" xMax="627" yMax="894">
      <component glyphName="R" x="0" y="0" flags="0x204"/>
      <component glyphName="uniF6C9" x="175" y="0" flags="0x4"/>
    </TTGlyph>
    <TTGlyph name="Rcaron" xMin="29" yMin="0" xMax="627" yMax="888">
      <component glyphName="R" x="0" y="0" flags="0x204"/>
      <component glyphName="uniF6CA" x="87" y="0" flags="0x4"/>
    </TTGlyph>
    <TTGlyph name="Rcommaaccent" xMin="29" yMin="-272" xMax="627" yMax="708">
      <component glyphName="R" x="0" y="0" flags="0x204"/>
      <component glyphName="uniF409" x="180" y="0" flags="0x4"/>
    </TTGlyph>
    <TTGlyph name="S" xMin="58" yMin="-12" xMax="484" yMax="712">
      <contour>
        <pt x="150" y="69" on="1"/>
        <pt x="162" y="57" on="0"/>
        <pt x="200" y="40" on="0"/>
        <pt x="238" y="40" on="1"/>
        <pt x="270" y="40" on="0"/>
        <pt x="326" y="57" on="0"/>
        <pt x="367" y="90" on="0"/>
        <pt x="391" y="137" on="0"/>
        <pt x="391" y="167" on="1"/>
        <pt x="391" y="207" on="0"/>
        <pt x="342" y="261" on="0"/>
        <pt x="269" y="303" on="0"/>
        <pt x="183" y="343" on="0"/>
        <pt x="110" y="398" on="0"/>
        <pt x="61" y="475" on="0"/>
        <pt x="61" y="533" on="1"/>
        <pt x="61" y="575" on="0"/>
        <pt x="91" y="641" on="0"/>
        <pt x="146" y="687" on="0"/>
        <pt x="222" y="712" on="0"/>
        <pt x="269" y="712" on="1"/>
        <pt x="330" y="712" on="0"/>
        <pt x="431" y="693" on="0"/>
        <pt x="460" y="679" on="1"/>
        <pt x="460" y="662" on="0"/>
        <pt x="455" y="617" on="0"/>
        <pt x="448" y="569" on="0"/>
        <pt x="440" y="524" on="0"/>
        <pt x="436" y="507" on="1"/>
        <pt x="410" y="507" on="1"/>
        <pt x="370" y="644" on="1"/>
        <pt x="352" y="652" on="0"/>
        <pt x="297" y="660" on="0"/>
        <pt x="266" y="660" on="1"/>
        <pt x="215" y="660" on="0"/>
        <pt x="153" y="603" on="0"/>
        <pt x="153" y="552" on="1"/>
        <pt x="153" y="511" on="0"/>
        <pt x="202" y="455" on="0"/>
        <pt x="276" y="411" on="0"/>
        <pt x="361" y="370" on="0"/>
        <pt x="435" y="316" on="0"/>
        <pt x="484" y="242" on="0"/>
        <pt x="484" y="187" on="1"/>
        <pt x="484" y="142" on="0"/>
        <pt x="451" y="68" on="0"/>
        <pt x="389" y="16" on="0"/>
        <pt x="299" y="-12" on="0"/>
        <pt x="242" y="-12" on="1"/>
        <pt x="179" y="-12" on="0"/>
        <pt x="79" y="18" on="0"/>
        <pt x="58" y="35" on="1"/>
        <pt x="59" y="52" on="0"/>
        <pt x="64" y="100" on="0"/>
        <pt x="71" y="151" on="0"/>
        <pt x="79" y="199" on="0"/>
        <pt x="83" y="216" on="1"/>
        <pt x="109" y="216" on="1"/>
      </contour>
    </TTGlyph>
    <TTGlyph name="Sacute" xMin="58" yMin="-12" xMax="484" yMax="894">
      <component glyphName="S" x="0" y="0" flags="0x204"/>
      <component glyphName="uniF6C9" x="159" y="0" flags="0x4"/>
    </TTGlyph>
    <TTGlyph name="Scaron" xMin="58" yMin="-12" xMax="484" yMax="888">
      <component glyphName="S" x="0" y="0" flags="0x204"/>
      <component glyphName="uniF6CA" x="78" y="0" flags="0x4"/>
    </TTGlyph>
    <TTGlyph name="Scedilla" xMin="58" yMin="-272" xMax="484" yMax="712">
      <contour>
        <pt x="150" y="69" on="1"/>
        <pt x="162" y="57" on="0"/>
        <pt x="200" y="39" on="0"/>
        <pt x="238" y="39" on="1"/>
        <pt x="270" y="39" on="0"/>
        <pt x="326" y="56" on="0"/>
        <pt x="367" y="89" on="0"/>
        <pt x="391" y="137" on="0"/>
        <pt x="391" y="167" on="1"/>
        <pt x="391" y="207" on="0"/>
        <pt x="342" y="261" on="0"/>
        <pt x="269" y="303" on="0"/>
        <pt x="183" y="343" on="0"/>
        <pt x="110" y="398" on="0"/>
        <pt x="61" y="475" on="0"/>
        <pt x="61" y="533" on="1"/>
        <pt x="61" y="575" on="0"/>
        <pt x="91" y="641" on="0"/>
        <pt x="146" y="687" on="0"/>
        <pt x="222" y="712" on="0"/>
        <pt x="269" y="712" on="1"/>
        <pt x="330" y="712" on="0"/>
        <pt x="431" y="693" on="0"/>
        <pt x="460" y="679" on="1"/>
        <pt x="460" y="662" on="0"/>
        <pt x="455" y="617" on="0"/>
        <pt x="448" y="569" on="0"/>
        <pt x="440" y="524" on="0"/>
        <pt x="436" y="507" on="1"/>
        <pt x="410" y="507" on="1"/>
        <pt x="370" y="644" on="1"/>
        <pt x="352" y="652" on="0"/>
        <pt x="297" y="660" on="0"/>
        <pt x="266" y="660" on="1"/>
        <pt x="215" y="660" on="0"/>
        <pt x="153" y="603" on="0"/>
        <pt x="153" y="552" on="1"/>
        <pt x="153" y="511" on="0"/>
        <pt x="202" y="455" on="0"/>
        <pt x="276" y="411" on="0"/>
        <pt x="361" y="370" on="0"/>
        <pt x="435" y="316" on="0"/>
        <pt x="484" y="242" on="0"/>
        <pt x="484" y="187" on="1"/>
        <pt x="484" y="102" on="0"/>
        <pt x="374" y="-2" on="0"/>
        <pt x="274" y="-10" on="1"/>
        <pt x="249" y="-75" on="1"/>
        <pt x="309" y="-76" on="0"/>
        <pt x="366" y="-119" on="0"/>
        <pt x="366" y="-154" on="1"/>
        <pt x="366" y="-184" on="0"/>
        <pt x="331" y="-228" on="0"/>
        <pt x="278" y="-258" on="0"/>
        <pt x="214" y="-272" on="0"/>
        <pt x="185" y="-272" on="1"/>
        <pt x="185" y="-239" on="1"/>
        <pt x="225" y="-233" on="0"/>
        <pt x="279" y="-201" on="0"/>
        <pt x="278" y="-172" on="1"/>
        <pt x="277" y="-144" on="0"/>
        <pt x="233" y="-119" on="0"/>
        <pt x="188" y="-116" on="1"/>
        <pt x="223" y="-12" on="1"/>
        <pt x="166" y="-10" on="0"/>
        <pt x="78" y="19" on="0"/>
        <pt x="58" y="35" on="1"/>
        <pt x="59" y="52" on="0"/>
        <pt x="64" y="100" on="0"/>
        <pt x="71" y="151" on="0"/>
        <pt x="79" y="199" on="0"/>
        <pt x="83" y="216" on="1"/>
        <pt x="109" y="216" on="1"/>
      </contour>
    </TTGlyph>
    <TTGlyph name="Scircumflex" xMin="58" yMin="-12" xMax="484" yMax="887">
      <component glyphName="S" x="0" y="0" flags="0x204"/>
      <component glyphName="uniF408" x="86" y="0" flags="0x4"/>
    </TTGlyph>
    <TTGlyph name="Scommaaccent" xMin="58" yMin="-272" xMax="484" yMax="712">
      <component glyphName="S" x="0" y="0" flags="0x204"/>
      <component glyphName="uniF409" x="130" y="0" flags="0x4"/>
    </TTGlyph>
    <TTGlyph name="T" xMin="19" yMin="0" xMax="600" yMax="700">
      <contour>
        <pt x="450" y="0" on="1"/>
        <pt x="169" y="0" on="1"/>
        <pt x="169" y="29" on="1"/>
        <pt x="191" y="37" on="0"/>
        <pt x="236" y="49" on="0"/>
        <pt x="262" y="53" on="1"/>
        <pt x="262" y="648" on="1"/>
        <pt x="109" y="648" on="1"/>
        <pt x="56" y="505" on="1"/>
        <pt x="31" y="505" on="1"/>
        <pt x="28" y="525" on="0"/>
        <pt x="24" y="576" on="0"/>
        <pt x="21" y="629" on="0"/>
        <pt x="19" y="680" on="0"/>
        <pt x="19" y="700" on="1"/>
        <pt x="600" y="700" on="1"/>
        <pt x="600" y="680" on="0"/>
        <pt x="598" y="630" on="0"/>
        <pt x="595" y="577" on="0"/>
        <pt x="592" y="526" on="0"/>
        <pt x="589" y="505" on="1"/>
        <pt x="563" y="505" on="1"/>
        <pt x="511" y="648" on="1"/>
        <pt x="358" y="648" on="1"/>
        <pt x="358" y="53" on="1"/>
        <pt x="384" y="48" on="0"/>
        <pt x="429" y="38" on="0"/>
        <pt x="450" y="29" on="1"/>
      </contour>
    </TTGlyph>
    <TTGlyph name="Tcaron" xMin="19" yMin="0" xMax="600" yMax="888">
      <component glyphName="T" x="0" y="0" flags="0x204"/>
      <component glyphName="uniF6CA" x="111" y="0" flags="0x4"/>
    </TTGlyph>
    <TTGlyph name="Tcedilla" xMin="19" yMin="-272" xMax="600" yMax="700">
      <contour>
        <pt x="450" y="0" on="1"/>
        <pt x="330" y="0" on="1"/>
        <pt x="301" y="-75" on="1"/>
        <pt x="361" y="-76" on="0"/>
        <pt x="418" y="-119" on="0"/>
        <pt x="418" y="-154" on="1"/>
        <pt x="418" y="-184" on="0"/>
        <pt x="383" y="-228" on="0"/>
        <pt x="330" y="-258" on="0"/>
        <pt x="266" y="-272" on="0"/>
        <pt x="237" y="-272" on="1"/>
        <pt x="237" y="-239" on="1"/>
        <pt x="277" y="-233" on="0"/>
        <pt x="331" y="-201" on="0"/>
        <pt x="330" y="-172" on="1"/>
        <pt x="329" y="-144" on="0"/>
        <pt x="285" y="-119" on="0"/>
        <pt x="240" y="-116" on="1"/>
        <pt x="279" y="0" on="1"/>
        <pt x="169" y="0" on="1"/>
        <pt x="169" y="29" on="1"/>
        <pt x="191" y="37" on="0"/>
        <pt x="236" y="49" on="0"/>
        <pt x="262" y="53" on="1"/>
        <pt x="262" y="648" on="1"/>
        <pt x="109" y="648" on="1"/>
        <pt x="56" y="505" on="1"/>
        <pt x="31" y="505" on="1"/>
        <pt x="28" y="525" on="0"/>
        <pt x="24" y="576" on="0"/>
        <pt x="21" y="629" on="0"/>
        <pt x="19" y="680" on="0"/>
        <pt x="19" y="700" on="1"/>
        <pt x="600" y="700" on="1"/>
        <pt x="600" y="680" on="0"/>
        <pt x="598" y="630" on="0"/>
        <pt x="595" y="577" on="0"/>
        <pt x="592" y="526" on="0"/>
        <pt x="589" y="505" on="1"/>
        <pt x="563" y="505" on="1"/>
        <pt x="511" y="648" on="1"/>
        <pt x="358" y="648" on="1"/>
        <pt x="358" y="53" on="1"/>
        <pt x="384" y="48" on="0"/>
        <pt x="429" y="38" on="0"/>
        <pt x="450" y="29" on="1"/>
      </contour>
    </TTGlyph>
    <TTGlyph name="Tcommaaccent" xMin="19" yMin="-272" xMax="600" yMax="700">
      <component glyphName="T" x="0" y="0" flags="0x204"/>
      <component glyphName="uniF409" x="179" y="0" flags="0x4"/>
    </TTGlyph>
    <TTGlyph name="Thorn" xMin="29" yMin="0" xMax="557" yMax="700">
      <contour>
        <pt x="207" y="53" on="1"/>
        <pt x="263" y="45" on="0"/>
        <pt x="303" y="28" on="1"/>
        <pt x="303" y="0" on="1"/>
        <pt x="29" y="0" on="1"/>
        <pt x="29" y="28" on="1"/>
        <pt x="49" y="39" on="0"/>
        <pt x="91" y="49" on="0"/>
        <pt x="111" y="53" on="1"/>
        <pt x="111" y="647" on="1"/>
        <pt x="70" y="655" on="0"/>
        <pt x="31" y="672" on="1"/>
        <pt x="31" y="700" on="1"/>
        <pt x="287" y="700" on="1"/>
        <pt x="287" y="672" on="1"/>
        <pt x="269" y="663" on="0"/>
        <pt x="227" y="651" on="0"/>
        <pt x="207" y="647" on="1"/>
        <pt x="207" y="598" on="1"/>
        <pt x="230" y="600" on="0"/>
        <pt x="275" y="602" on="0"/>
        <pt x="297" y="602" on="1"/>
        <pt x="346" y="602" on="0"/>
        <pt x="440" y="581" on="0"/>
        <pt x="513" y="532" on="0"/>
        <pt x="557" y="451" on="0"/>
        <pt x="557" y="391" on="1"/>
        <pt x="557" y="334" on="0"/>
        <pt x="511" y="253" on="0"/>
        <pt x="434" y="200" on="0"/>
        <pt x="336" y="175" on="0"/>
        <pt x="284" y="175" on="1"/>
        <pt x="279" y="175" on="0"/>
        <pt x="258" y="175" on="0"/>
        <pt x="234" y="176" on="0"/>
        <pt x="212" y="178" on="0"/>
        <pt x="207" y="179" on="1"/>
      </contour>
      <contour>
        <pt x="275" y="550" on="1"/>
        <pt x="251" y="550" on="0"/>
        <pt x="221" y="548" on="0"/>
        <pt x="207" y="544" on="1"/>
        <pt x="207" y="231" on="1"/>
        <pt x="212" y="229" on="0"/>
        <pt x="231" y="228" on="0"/>
        <pt x="252" y="227" on="0"/>
        <pt x="272" y="227" on="0"/>
        <pt x="278" y="227" on="1"/>
        <pt x="313" y="227" on="0"/>
        <pt x="375" y="246" on="0"/>
        <pt x="422" y="286" on="0"/>
        <pt x="450" y="348" on="0"/>
        <pt x="450" y="391" on="1"/>
        <pt x="450" y="469" on="0"/>
        <pt x="357" y="550" on="0"/>
      </contour>
    </TTGlyph>
    <TTGlyph name="U" xMin="10" yMin="-9" xMax="662" yMax="700">
      <contour>
        <pt x="10" y="700" on="1"/>
        <pt x="264" y="700" on="1"/>
        <pt x="264" y="671" on="1"/>
        <pt x="245" y="663" on="0"/>
        <pt x="207" y="651" on="0"/>
        <pt x="188" y="646" on="1"/>
        <pt x="188" y="237" on="1"/>
        <pt x="188" y="184" on="0"/>
        <pt x="211" y="113" on="0"/>
        <pt x="255" y="70" on="0"/>
        <pt x="320" y="51" on="0"/>
        <pt x="361" y="51" on="1"/>
        <pt x="440" y="51" on="0"/>
        <pt x="528" y="138" on="0"/>
        <pt x="528" y="238" on="1"/>
        <pt x="528" y="637" on="1"/>
        <pt x="505" y="645" on="0"/>
        <pt x="465" y="662" on="0"/>
        <pt x="449" y="671" on="1"/>
        <pt x="449" y="700" on="1"/>
        <pt x="662" y="700" on="1"/>
        <pt x="662" y="671" on="1"/>
        <pt x="643" y="660" on="0"/>
        <pt x="604" y="642" on="0"/>
        <pt x="584" y="637" on="1"/>
        <pt x="584" y="236" on="1"/>
        <pt x="584" y="172" on="0"/>
        <pt x="550" y="80" on="0"/>
        <pt x="489" y="20" on="0"/>
        <pt x="402" y="-9" on="0"/>
        <pt x="349" y="-9" on="1"/>
        <pt x="224" y="-9" on="0"/>
        <pt x="92" y="104" on="0"/>
        <pt x="92" y="221" on="1"/>
        <pt x="92" y="646" on="1"/>
        <pt x="51" y="652" on="0"/>
        <pt x="10" y="671" on="1"/>
      </contour>
    </TTGlyph>
    <TTGlyph name="Uacute" xMin="10" yMin="-9" xMax="662" yMax="894">
      <component glyphName="U" x="0" y="0" flags="0x204"/>
      <component glyphName="uniF6C9" x="259" y="0" flags="0x4"/>
    </TTGlyph>
    <TTGlyph name="Ubreve" xMin="10" yMin="-9" xMax="662" yMax="890">
      <component glyphName="U" x="0" y="0" flags="0x204"/>
      <component glyphName="uniF406" x="136" y="0" flags="0x4"/>
    </TTGlyph>
    <TTGlyph name="Ucircumflex" xMin="10" yMin="-9" xMax="662" yMax="887">
      <component glyphName="U" x="0" y="0" flags="0x204"/>
      <component glyphName="uniF408" x="158" y="0" flags="0x4"/>
    </TTGlyph>
    <TTGlyph name="Udieresis" xMin="10" yMin="-9" xMax="662" yMax="837">
      <component glyphName="U" x="0" y="0" flags="0x204"/>
      <component glyphName="uniF6CB" x="129" y="0" flags="0x4"/>
    </TTGlyph>
    <TTGlyph name="Ugrave" xMin="10" yMin="-9" xMax="662" yMax="894">
      <component glyphName="U" x="0" y="0" flags="0x204"/>
      <component glyphName="uniF6CE" x="98" y="0" flags="0x4"/>
    </TTGlyph>
    <TTGlyph name="Uhungarumlaut" xMin="10" yMin="-9" xMax="662" yMax="889">
      <component glyphName="U" x="0" y="0" flags="0x204"/>
      <component glyphName="uniF6CF" x="179" y="0" flags="0x4"/>
    </TTGlyph>
    <TTGlyph name="Umacron" xMin="10" yMin="-9" xMax="662" yMax="840">
      <component glyphName="U" x="0" y="0" flags="0x204"/>
      <component glyphName="uniF6D0" x="145" y="0" flags="0x4"/>
    </TTGlyph>
    <TTGlyph name="Uogonek" xMin="10" yMin="-251" xMax="662" yMax="700">
      <contour>
        <pt x="10" y="700" on="1"/>
        <pt x="264" y="700" on="1"/>
        <pt x="264" y="671" on="1"/>
        <pt x="245" y="663" on="0"/>
        <pt x="207" y="651" on="0"/>
        <pt x="188" y="646" on="1"/>
        <pt x="188" y="237" on="1"/>
        <pt x="188" y="184" on="0"/>
        <pt x="211" y="113" on="0"/>
        <pt x="255" y="70" on="0"/>
        <pt x="320" y="51" on="0"/>
        <pt x="361" y="51" on="1"/>
        <pt x="440" y="51" on="0"/>
        <pt x="528" y="138" on="0"/>
        <pt x="528" y="238" on="1"/>
        <pt x="528" y="637" on="1"/>
        <pt x="505" y="645" on="0"/>
        <pt x="465" y="662" on="0"/>
        <pt x="449" y="671" on="1"/>
        <pt x="449" y="700" on="1"/>
        <pt x="662" y="700" on="1"/>
        <pt x="662" y="671" on="1"/>
        <pt x="643" y="660" on="0"/>
        <pt x="604" y="642" on="0"/>
        <pt x="584" y="637" on="1"/>
        <pt x="584" y="236" on="1"/>
        <pt x="584" y="143" on="0"/>
        <pt x="516" y="32" on="0"/>
        <pt x="455" y="8" on="1"/>
        <pt x="431" y="-4" on="0"/>
        <pt x="389" y="-34" on="0"/>
        <pt x="358" y="-70" on="0"/>
        <pt x="339" y="-111" on="0"/>
        <pt x="339" y="-135" on="1"/>
        <pt x="339" y="-163" on="0"/>
        <pt x="374" y="-199" on="0"/>
        <pt x="406" y="-199" on="1"/>
        <pt x="437" y="-199" on="0"/>
        <pt x="461" y="-193" on="1"/>
        <pt x="461" y="-222" on="1"/>
        <pt x="447" y="-233" on="0"/>
        <pt x="403" y="-251" on="0"/>
        <pt x="370" y="-251" on="1"/>
        <pt x="347" y="-251" on="0"/>
        <pt x="306" y="-237" on="0"/>
        <pt x="275" y="-211" on="0"/>
        <pt x="257" y="-174" on="0"/>
        <pt x="257" y="-152" on="1"/>
        <pt x="257" y="-104" on="0"/>
        <pt x="319" y="-37" on="0"/>
        <pt x="370" y="-8" on="1"/>
        <pt x="365" y="-9" on="0"/>
        <pt x="354" y="-9" on="0"/>
        <pt x="349" y="-9" on="1"/>
        <pt x="224" y="-9" on="0"/>
        <pt x="92" y="104" on="0"/>
        <pt x="92" y="221" on="1"/>
        <pt x="92" y="646" on="1"/>
        <pt x="51" y="652" on="0"/>
        <pt x="10" y="671" on="1"/>
      </contour>
    </TTGlyph>
    <TTGlyph name="Uring" xMin="10" yMin="-9" xMax="662" yMax="874">
      <component glyphName="U" x="0" y="0" flags="0x204"/>
      <component glyphName="uniF40C" x="185" y="0" flags="0x4"/>
    </TTGlyph>
    <TTGlyph name="V" xMin="0" yMin="-12" xMax="684" yMax="700">
      <contour>
        <pt x="545" y="646" on="1"/>
        <pt x="521" y="651" on="0"/>
        <pt x="479" y="664" on="0"/>
        <pt x="459" y="671" on="1"/>
        <pt x="459" y="700" on="1"/>
        <pt x="684" y="700" on="1"/>
        <pt x="684" y="671" on="1"/>
        <pt x="655" y="655" on="0"/>
        <pt x="612" y="646" on="1"/>
        <pt x="386" y="0" on="1"/>
        <pt x="331" y="-12" on="1"/>
        <pt x="76" y="646" on="1"/>
        <pt x="56" y="651" on="0"/>
        <pt x="18" y="664" on="0"/>
        <pt x="0" y="671" on="1"/>
        <pt x="0" y="700" on="1"/>
        <pt x="265" y="700" on="1"/>
        <pt x="265" y="671" on="1"/>
        <pt x="248" y="664" on="0"/>
        <pt x="206" y="651" on="0"/>
        <pt x="183" y="646" on="1"/>
        <pt x="354" y="189" on="1"/>
        <pt x="375" y="109" on="1"/>
        <pt x="377" y="109" on="1"/>
        <pt x="397" y="191" on="1"/>
      </contour>
    </TTGlyph>
    <TTGlyph name="W" xMin="0" yMin="-12" xMax="934" yMax="700">
      <contour>
        <pt x="796" y="646" on="1"/>
        <pt x="775" y="649" on="0"/>
        <pt x="733" y="662" on="0"/>
        <pt x="710" y="671" on="1"/>
        <pt x="710" y="700" on="1"/>
        <pt x="934" y="700" on="1"/>
        <pt x="934" y="671" on="1"/>
        <pt x="900" y="656" on="0"/>
        <pt x="862" y="646" on="1"/>
        <pt x="695" y="0" on="1"/>
        <pt x="633" y="-12" on="1"/>
        <pt x="472" y="532" on="1"/>
        <pt x="314" y="0" on="1"/>
        <pt x="253" y="-12" on="1"/>
        <pt x="76" y="646" on="1"/>
        <pt x="56" y="651" on="0"/>
        <pt x="18" y="663" on="0"/>
        <pt x="0" y="671" on="1"/>
        <pt x="0" y="700" on="1"/>
        <pt x="260" y="700" on="1"/>
        <pt x="260" y="671" on="1"/>
        <pt x="241" y="664" on="0"/>
        <pt x="201" y="651" on="0"/>
        <pt x="178" y="646" on="1"/>
        <pt x="277" y="243" on="1"/>
        <pt x="299" y="113" on="1"/>
        <pt x="301" y="113" on="1"/>
        <pt x="336" y="245" on="1"/>
        <pt x="471" y="700" on="1"/>
        <pt x="505" y="700" on="1"/>
        <pt x="650" y="245" on="1"/>
        <pt x="679" y="115" on="1"/>
        <pt x="681" y="115" on="1"/>
        <pt x="704" y="247" on="1"/>
      </contour>
    </TTGlyph>
    <TTGlyph name="X" xMin="10" yMin="0" xMax="661" yMax="700">
      <contour>
        <pt x="395" y="700" on="1"/>
        <pt x="625" y="700" on="1"/>
        <pt x="625" y="671" on="1"/>
        <pt x="608" y="664" on="0"/>
        <pt x="570" y="651" on="0"/>
        <pt x="550" y="646" on="1"/>
        <pt x="374" y="375" on="1"/>
        <pt x="579" y="53" on="1"/>
        <pt x="627" y="45" on="0"/>
        <pt x="661" y="29" on="1"/>
        <pt x="661" y="0" on="1"/>
        <pt x="395" y="0" on="1"/>
        <pt x="395" y="29" on="1"/>
        <pt x="431" y="47" on="0"/>
        <pt x="471" y="53" on="1"/>
        <pt x="313" y="304" on="1"/>
        <pt x="161" y="52" on="1"/>
        <pt x="182" y="49" on="0"/>
        <pt x="222" y="40" on="0"/>
        <pt x="241" y="29" on="1"/>
        <pt x="241" y="0" on="1"/>
        <pt x="10" y="0" on="1"/>
        <pt x="10" y="29" on="1"/>
        <pt x="29" y="39" on="0"/>
        <pt x="66" y="49" on="0"/>
        <pt x="84" y="53" on="1"/>
        <pt x="280" y="352" on="1"/>
        <pt x="92" y="646" on="1"/>
        <pt x="72" y="652" on="0"/>
        <pt x="33" y="664" on="0"/>
        <pt x="13" y="671" on="1"/>
        <pt x="13" y="700" on="1"/>
        <pt x="278" y="700" on="1"/>
        <pt x="278" y="671" on="1"/>
        <pt x="263" y="665" on="0"/>
        <pt x="226" y="653" on="0"/>
        <pt x="202" y="646" on="1"/>
        <pt x="342" y="420" on="1"/>
        <pt x="478" y="646" on="1"/>
        <pt x="437" y="655" on="0"/>
        <pt x="395" y="671" on="1"/>
      </contour>
    </TTGlyph>
    <TTGlyph name="Y" xMin="0" yMin="0" xMax="644" yMax="700">
      <contour>
        <pt x="424" y="700" on="1"/>
        <pt x="644" y="700" on="1"/>
        <pt x="644" y="671" on="1"/>
        <pt x="606" y="652" on="0"/>
        <pt x="568" y="646" on="1"/>
        <pt x="379" y="298" on="1"/>
        <pt x="379" y="53" on="1"/>
        <pt x="418" y="48" on="0"/>
        <pt x="455" y="29" on="1"/>
        <pt x="455" y="0" on="1"/>
        <pt x="201" y="0" on="1"/>
        <pt x="201" y="29" on="1"/>
        <pt x="237" y="47" on="0"/>
        <pt x="283" y="53" on="1"/>
        <pt x="283" y="297" on="1"/>
        <pt x="81" y="646" on="1"/>
        <pt x="58" y="650" on="0"/>
        <pt x="19" y="663" on="0"/>
        <pt x="0" y="671" on="1"/>
        <pt x="0" y="700" on="1"/>
        <pt x="265" y="700" on="1"/>
        <pt x="265" y="671" on="1"/>
        <pt x="250" y="665" on="0"/>
        <pt x="212" y="652" on="0"/>
        <pt x="188" y="646" on="1"/>
        <pt x="352" y="352" on="1"/>
        <pt x="506" y="646" on="1"/>
        <pt x="483" y="651" on="0"/>
        <pt x="442" y="664" on="0"/>
        <pt x="424" y="671" on="1"/>
      </contour>
    </TTGlyph>
    <TTGlyph name="Yacute" xMin="0" yMin="0" xMax="644" yMax="894">
      <component glyphName="Y" x="0" y="0" flags="0x204"/>
      <component glyphName="uniF6C9" x="259" y="0" flags="0x4"/>
    </TTGlyph>
    <TTGlyph name="Ydieresis" xMin="0" yMin="0" xMax="644" yMax="837">
      <component glyphName="Y" x="0" y="0" flags="0x204"/>
      <component glyphName="uniF6CB" x="117" y="0" flags="0x4"/>
    </TTGlyph>
    <TTGlyph name="Z" xMin="39" yMin="0" xMax="571" yMax="700">
      <contour>
        <pt x="533" y="192" on="1"/>
        <pt x="559" y="192" on="1"/>
        <pt x="562" y="172" on="0"/>
        <pt x="567" y="122" on="0"/>
        <pt x="570" y="70" on="0"/>
        <pt x="571" y="20" on="0"/>
        <pt x="570" y="0" on="1"/>
        <pt x="39" y="0" on="1"/>
        <pt x="39" y="51" on="1"/>
        <pt x="455" y="648" on="1"/>
        <pt x="147" y="648" on="1"/>
        <pt x="86" y="508" on="1"/>
        <pt x="61" y="508" on="1"/>
        <pt x="58" y="529" on="0"/>
        <pt x="53" y="579" on="0"/>
        <pt x="50" y="631" on="0"/>
        <pt x="49" y="680" on="0"/>
        <pt x="49" y="700" on="1"/>
        <pt x="560" y="700" on="1"/>
        <pt x="560" y="648" on="1"/>
        <pt x="146" y="52" on="1"/>
        <pt x="472" y="52" on="1"/>
      </contour>
    </TTGlyph>
    <TTGlyph name="Zacute" xMin="39" yMin="0" xMax="571" yMax="894">
      <component glyphName="Z" x="0" y="0" flags="0x204"/>
      <component glyphName="uniF6C9" x="196" y="0" flags="0x4"/>
    </TTGlyph>
    <TTGlyph name="Zcaron" xMin="39" yMin="0" xMax="571" yMax="888">
      <component glyphName="Z" x="0" y="0" flags="0x204"/>
      <component glyphName="uniF6CA" x="107" y="0" flags="0x4"/>
    </TTGlyph>
    <TTGlyph name="Zdotaccent" xMin="39" yMin="0" xMax="571" yMax="871">
      <component glyphName="Z" x="0" y="0" flags="0x204"/>
      <component glyphName="uniF40B" x="177" y="0" flags="0x4"/>
    </TTGlyph>
    <TTGlyph name="a" xMin="39" yMin="-12" xMax="482" yMax="512">
      <contour>
        <pt x="410" y="131" on="1"/>
        <pt x="410" y="109" on="0"/>
        <pt x="412" y="77" on="0"/>
        <pt x="413" y="59" on="1"/>
        <pt x="482" y="49" on="1"/>
        <pt x="482" y="28" on="1"/>
        <pt x="457" y="15" on="0"/>
        <pt x="396" y="-5" on="0"/>
        <pt x="368" y="-10" on="1"/>
        <pt x="343" y="-10" on="1"/>
        <pt x="333" y="13" on="0"/>
        <pt x="329" y="68" on="0"/>
        <pt x="328" y="101" on="1"/>
        <pt x="323" y="101" on="1"/>
        <pt x="319" y="81" on="0"/>
        <pt x="296" y="40" on="0"/>
        <pt x="259" y="8" on="0"/>
        <pt x="209" y="-12" on="0"/>
        <pt x="177" y="-12" on="1"/>
        <pt x="116" y="-12" on="0"/>
        <pt x="39" y="62" on="0"/>
        <pt x="39" y="122" on="1"/>
        <pt x="39" y="168" on="0"/>
        <pt x="76" y="227" on="0"/>
        <pt x="148" y="261" on="0"/>
        <pt x="254" y="276" on="0"/>
        <pt x="324" y="280" on="1"/>
        <pt x="328" y="323" on="0"/>
        <pt x="325" y="392" on="0"/>
        <pt x="306" y="441" on="0"/>
        <pt x="269" y="468" on="0"/>
        <pt x="239" y="468" on="1"/>
        <pt x="225" y="468" on="0"/>
        <pt x="190" y="465" on="0"/>
        <pt x="173" y="458" on="1"/>
        <pt x="126" y="338" on="1"/>
        <pt x="100" y="338" on="1"/>
        <pt x="90" y="368" on="0"/>
        <pt x="75" y="432" on="0"/>
        <pt x="73" y="463" on="1"/>
        <pt x="111" y="486" on="0"/>
        <pt x="204" y="512" on="0"/>
        <pt x="261" y="512" on="1"/>
        <pt x="312" y="512" on="0"/>
        <pt x="373" y="483" on="0"/>
        <pt x="405" y="437" on="0"/>
        <pt x="415" y="381" on="0"/>
        <pt x="415" y="353" on="1"/>
        <pt x="415" y="293" on="0"/>
        <pt x="410" y="182" on="0"/>
      </contour>
      <contour>
        <pt x="217" y="50" on="1"/>
        <pt x="242" y="50" on="0"/>
        <pt x="280" y="70" on="0"/>
        <pt x="306" y="98" on="0"/>
        <pt x="322" y="127" on="0"/>
        <pt x="325" y="137" on="1"/>
        <pt x="325" y="242" on="1"/>
        <pt x="267" y="242" on="0"/>
        <pt x="193" y="230" on="0"/>
        <pt x="151" y="204" on="0"/>
        <pt x="135" y="165" on="0"/>
        <pt x="135" y="140" on="1"/>
        <pt x="135" y="97" on="0"/>
        <pt x="179" y="50" on="0"/>
      </contour>
    </TTGlyph>
    <TTGlyph name="aacute" xMin="39" yMin="-12" xMax="482" yMax="768">
      <component glyphName="a" x="0" y="0" flags="0x204"/>
      <component glyphName="acute" x="128" y="0" flags="0x4"/>
    </TTGlyph>
    <TTGlyph name="abreve" xMin="39" yMin="-12" xMax="482" yMax="734">
      <component glyphName="a" x="0" y="0" flags="0x204"/>
      <component glyphName="breve" x="56" y="0" flags="0x4"/>
    </TTGlyph>
    <TTGlyph name="acircumflex" xMin="39" yMin="-12" xMax="482" yMax="796">
      <component glyphName="a" x="0" y="0" flags="0x204"/>
      <component glyphName="circumflex" x="68" y="0" flags="0x4"/>
    </TTGlyph>
    <TTGlyph name="acute" xMin="60" yMin="575" xMax="269" yMax="768">
      <contour>
        <pt x="177" y="767" on="1"/>
        <pt x="185" y="768" on="0"/>
        <pt x="211" y="765" on="0"/>
        <pt x="239" y="759" on="0"/>
        <pt x="263" y="750" on="0"/>
        <pt x="269" y="745" on="1"/>
        <pt x="269" y="726" on="1"/>
        <pt x="82" y="575" on="1"/>
        <pt x="60" y="593" on="1"/>
      </contour>
    </TTGlyph>
    <TTGlyph name="acutecomb" xMin="-301" yMin="575" xMax="-92" yMax="768">
      <component glyphName="acute" x="-361" y="0" flags="0x4"/>
    </TTGlyph>
    <TTGlyph name="adieresis" xMin="39" yMin="-12" xMax="482" yMax="716">
      <component glyphName="a" x="0" y="0" flags="0x204"/>
      <component glyphName="dieresis" x="17" y="0" flags="0x4"/>
    </TTGlyph>
    <TTGlyph name="ae" xMin="39" yMin="-12" xMax="731" yMax="512">
      <component glyphName="uni04D5" x="0" y="0" flags="0x204"/>
    </TTGlyph>
    <TTGlyph name="afii10017" xMin="0" yMin="0" xMax="683" yMax="712">
      <component glyphName="A" x="0" y="0" flags="0x204"/>
    </TTGlyph>
    <TTGlyph name="afii10018" xMin="29" yMin="-3" xMax="547" yMax="700">
      <contour>
        <pt x="111" y="646" on="1"/>
        <pt x="88" y="650" on="0"/>
        <pt x="48" y="663" on="0"/>
        <pt x="29" y="671" on="1"/>
        <pt x="29" y="700" on="1"/>
        <pt x="508" y="700" on="1"/>
        <pt x="509" y="660" on="0"/>
        <pt x="503" y="561" on="0"/>
        <pt x="497" y="519" on="1"/>
        <pt x="471" y="519" on="1"/>
        <pt x="419" y="648" on="1"/>
        <pt x="207" y="648" on="1"/>
        <pt x="207" y="407" on="1"/>
        <pt x="225" y="409" on="0"/>
        <pt x="278" y="414" on="0"/>
        <pt x="298" y="414" on="1"/>
        <pt x="347" y="414" on="0"/>
        <pt x="437" y="393" on="0"/>
        <pt x="506" y="345" on="0"/>
        <pt x="547" y="266" on="0"/>
        <pt x="547" y="208" on="1"/>
        <pt x="547" y="153" on="0"/>
        <pt x="504" y="74" on="0"/>
        <pt x="432" y="22" on="0"/>
        <pt x="336" y="-3" on="0"/>
        <pt x="283" y="-3" on="1"/>
        <pt x="278" y="-3" on="0"/>
        <pt x="249" y="-2" on="0"/>
        <pt x="211" y="-1" on="0"/>
        <pt x="171" y="0" on="0"/>
        <pt x="156" y="0" on="1"/>
        <pt x="29" y="0" on="1"/>
        <pt x="29" y="29" on="1"/>
        <pt x="68" y="47" on="0"/>
        <pt x="111" y="53" on="1"/>
      </contour>
      <contour>
        <pt x="276" y="362" on="1"/>
        <pt x="252" y="362" on="0"/>
        <pt x="221" y="360" on="0"/>
        <pt x="207" y="357" on="1"/>
        <pt x="207" y="53" on="1"/>
        <pt x="212" y="51" on="0"/>
        <pt x="231" y="50" on="0"/>
        <pt x="253" y="49" on="0"/>
        <pt x="273" y="49" on="0"/>
        <pt x="279" y="49" on="1"/>
        <pt x="314" y="49" on="0"/>
        <pt x="373" y="68" on="0"/>
        <pt x="416" y="108" on="0"/>
        <pt x="440" y="168" on="0"/>
        <pt x="440" y="209" on="1"/>
        <pt x="440" y="283" on="0"/>
        <pt x="358" y="362" on="0"/>
      </contour>
    </TTGlyph>
    <TTGlyph name="afii10019" xMin="29" yMin="-6" xMax="562" yMax="706">
      <component glyphName="B" x="0" y="0" flags="0x204"/>
    </TTGlyph>
    <TTGlyph name="afii10020" xMin="29" yMin="0" xMax="497" yMax="700">
      <contour>
        <pt x="207" y="53" on="1"/>
        <pt x="256" y="45" on="0"/>
        <pt x="303" y="29" on="1"/>
        <pt x="303" y="0" on="1"/>
        <pt x="29" y="0" on="1"/>
        <pt x="29" y="29" on="1"/>
        <pt x="69" y="45" on="0"/>
        <pt x="111" y="53" on="1"/>
        <pt x="111" y="646" on="1"/>
        <pt x="91" y="650" on="0"/>
        <pt x="49" y="663" on="0"/>
        <pt x="29" y="671" on="1"/>
        <pt x="29" y="700" on="1"/>
        <pt x="497" y="700" on="1"/>
        <pt x="497" y="680" on="0"/>
        <pt x="495" y="628" on="0"/>
        <pt x="493" y="572" on="0"/>
        <pt x="489" y="519" on="0"/>
        <pt x="486" y="498" on="1"/>
        <pt x="460" y="498" on="1"/>
        <pt x="408" y="648" on="1"/>
        <pt x="207" y="648" on="1"/>
      </contour>
    </TTGlyph>
    <TTGlyph name="afii10021" xMin="0" yMin="-151" xMax="669" yMax="700">
      <contour>
        <pt x="669" y="52" on="1"/>
        <pt x="669" y="32" on="0"/>
        <pt x="665" y="-21" on="0"/>
        <pt x="659" y="-77" on="0"/>
        <pt x="652" y="-131" on="0"/>
        <pt x="649" y="-151" on="1"/>
        <pt x="623" y="-151" on="1"/>
        <pt x="581" y="0" on="1"/>
        <pt x="88" y="0" on="1"/>
        <pt x="46" y="-151" on="1"/>
        <pt x="21" y="-151" on="1"/>
        <pt x="16" y="-132" on="0"/>
        <pt x="9" y="-78" on="0"/>
        <pt x="4" y="-21" on="0"/>
        <pt x="0" y="32" on="0"/>
        <pt x="0" y="52" on="1"/>
        <pt x="83" y="52" on="1"/>
        <pt x="109" y="94" on="0"/>
        <pt x="155" y="225" on="0"/>
        <pt x="188" y="382" on="0"/>
        <pt x="208" y="556" on="0"/>
        <pt x="208" y="641" on="1"/>
        <pt x="182" y="646" on="0"/>
        <pt x="131" y="660" on="0"/>
        <pt x="106" y="671" on="1"/>
        <pt x="106" y="700" on="1"/>
        <pt x="637" y="700" on="1"/>
        <pt x="637" y="671" on="1"/>
        <pt x="620" y="664" on="0"/>
        <pt x="580" y="651" on="0"/>
        <pt x="555" y="646" on="1"/>
        <pt x="555" y="52" on="1"/>
      </contour>
      <contour>
        <pt x="459" y="52" on="1"/>
        <pt x="459" y="648" on="1"/>
        <pt x="266" y="648" on="1"/>
        <pt x="260" y="525" on="0"/>
        <pt x="233" y="332" on="0"/>
        <pt x="198" y="185" on="0"/>
        <pt x="161" y="83" on="0"/>
        <pt x="146" y="52" on="1"/>
      </contour>
    </TTGlyph>
    <TTGlyph name="afii10022" xMin="29" yMin="0" xMax="524" yMax="700">
      <component glyphName="E" x="0" y="0" flags="0x204"/>
    </TTGlyph>
    <TTGlyph name="afii10023" xMin="29" yMin="0" xMax="524" yMax="837">
      <component glyphName="E" x="0" y="0" flags="0x204"/>
      <component glyphName="uniF6CB" x="66" y="0" flags="0x4"/>
    </TTGlyph>
    <TTGlyph name="afii10024" xMin="0" yMin="0" xMax="947" yMax="700">
      <contour>
        <pt x="424" y="646" on="1"/>
        <pt x="403" y="652" on="0"/>
        <pt x="367" y="664" on="0"/>
        <pt x="353" y="671" on="1"/>
        <pt x="353" y="700" on="1"/>
        <pt x="585" y="700" on="1"/>
        <pt x="585" y="671" on="1"/>
        <pt x="573" y="665" on="0"/>
        <pt x="540" y="653" on="0"/>
        <pt x="520" y="646" on="1"/>
        <pt x="520" y="369" on="1"/>
        <pt x="588" y="383" on="1"/>
        <pt x="756" y="646" on="1"/>
        <pt x="736" y="652" on="0"/>
        <pt x="701" y="665" on="0"/>
        <pt x="684" y="671" on="1"/>
        <pt x="684" y="700" on="1"/>
        <pt x="904" y="700" on="1"/>
        <pt x="904" y="671" on="1"/>
        <pt x="886" y="663" on="0"/>
        <pt x="848" y="651" on="0"/>
        <pt x="829" y="646" on="1"/>
        <pt x="647" y="380" on="1"/>
        <pt x="673" y="347" on="0"/>
        <pt x="731" y="265" on="0"/>
        <pt x="794" y="177" on="0"/>
        <pt x="863" y="89" on="0"/>
        <pt x="900" y="49" on="1"/>
        <pt x="947" y="25" on="1"/>
        <pt x="947" y="0" on="1"/>
        <pt x="822" y="0" on="1"/>
        <pt x="788" y="25" on="1"/>
        <pt x="729" y="94" on="0"/>
        <pt x="632" y="253" on="0"/>
        <pt x="578" y="335" on="1"/>
        <pt x="520" y="335" on="1"/>
        <pt x="520" y="53" on="1"/>
        <pt x="537" y="48" on="0"/>
        <pt x="570" y="37" on="0"/>
        <pt x="585" y="29" on="1"/>
        <pt x="585" y="0" on="1"/>
        <pt x="352" y="0" on="1"/>
        <pt x="352" y="29" on="1"/>
        <pt x="382" y="45" on="0"/>
        <pt x="424" y="53" on="1"/>
        <pt x="424" y="344" on="1"/>
        <pt x="364" y="329" on="1"/>
        <pt x="310" y="247" on="0"/>
        <pt x="218" y="94" on="0"/>
        <pt x="159" y="25" on="1"/>
        <pt x="125" y="0" on="1"/>
        <pt x="0" y="0" on="1"/>
        <pt x="0" y="25" on="1"/>
        <pt x="47" y="49" on="1"/>
        <pt x="84" y="89" on="0"/>
        <pt x="154" y="175" on="0"/>
        <pt x="218" y="259" on="0"/>
        <pt x="274" y="338" on="0"/>
        <pt x="297" y="371" on="1"/>
        <pt x="109" y="646" on="1"/>
        <pt x="68" y="658" on="0"/>
        <pt x="38" y="671" on="1"/>
        <pt x="38" y="700" on="1"/>
        <pt x="259" y="700" on="1"/>
        <pt x="259" y="671" on="1"/>
        <pt x="245" y="664" on="0"/>
        <pt x="211" y="651" on="0"/>
        <pt x="191" y="646" on="1"/>
        <pt x="360" y="377" on="1"/>
        <pt x="424" y="377" on="1"/>
      </contour>
    </TTGlyph>
    <TTGlyph name="afii10025" xMin="50" yMin="-12" xMax="502" yMax="712">
      <contour>
        <pt x="241" y="-12" on="1"/>
        <pt x="185" y="-12" on="0"/>
        <pt x="84" y="10" on="0"/>
        <pt x="50" y="27" on="1"/>
        <pt x="50" y="43" on="0"/>
        <pt x="54" y="84" on="0"/>
        <pt x="61" y="129" on="0"/>
        <pt x="70" y="174" on="0"/>
        <pt x="75" y="194" on="1"/>
        <pt x="101" y="194" on="1"/>
        <pt x="143" y="54" on="1"/>
        <pt x="149" y="51" on="0"/>
        <pt x="171" y="46" on="0"/>
        <pt x="198" y="42" on="0"/>
        <pt x="227" y="40" on="0"/>
        <pt x="240" y="40" on="1"/>
        <pt x="277" y="40" on="0"/>
        <pt x="338" y="64" on="0"/>
        <pt x="382" y="105" on="0"/>
        <pt x="406" y="161" on="0"/>
        <pt x="406" y="194" on="1"/>
        <pt x="406" y="234" on="0"/>
        <pt x="381" y="288" on="0"/>
        <pt x="339" y="321" on="0"/>
        <pt x="284" y="335" on="0"/>
        <pt x="254" y="335" on="1"/>
        <pt x="177" y="324" on="1"/>
        <pt x="170" y="355" on="0"/>
        <pt x="176" y="382" on="1"/>
        <pt x="208" y="382" on="1"/>
        <pt x="225" y="382" on="0"/>
        <pt x="273" y="385" on="0"/>
        <pt x="289" y="387" on="1"/>
        <pt x="335" y="403" on="0"/>
        <pt x="384" y="474" on="0"/>
        <pt x="384" y="522" on="1"/>
        <pt x="384" y="588" on="0"/>
        <pt x="309" y="660" on="0"/>
        <pt x="243" y="660" on="1"/>
        <pt x="210" y="660" on="0"/>
        <pt x="171" y="649" on="0"/>
        <pt x="164" y="641" on="1"/>
        <pt x="112" y="519" on="1"/>
        <pt x="86" y="519" on="1"/>
        <pt x="81" y="546" on="0"/>
        <pt x="74" y="630" on="0"/>
        <pt x="75" y="671" on="1"/>
        <pt x="90" y="683" on="0"/>
        <pt x="133" y="698" on="0"/>
        <pt x="179" y="708" on="0"/>
        <pt x="228" y="712" on="0"/>
        <pt x="249" y="712" on="1"/>
        <pt x="289" y="712" on="0"/>
        <pt x="371" y="698" on="0"/>
        <pt x="438" y="659" on="0"/>
        <pt x="480" y="592" on="0"/>
        <pt x="480" y="540" on="1"/>
        <pt x="480" y="489" on="0"/>
        <pt x="421" y="400" on="0"/>
        <pt x="357" y="375" on="1"/>
        <pt x="357" y="371" on="1"/>
        <pt x="387" y="366" on="0"/>
        <pt x="440" y="341" on="0"/>
        <pt x="479" y="300" on="0"/>
        <pt x="502" y="240" on="0"/>
        <pt x="502" y="199" on="1"/>
        <pt x="502" y="145" on="0"/>
        <pt x="459" y="65" on="0"/>
        <pt x="387" y="13" on="0"/>
        <pt x="292" y="-12" on="0"/>
      </contour>
    </TTGlyph>
    <TTGlyph name="afii10026" xMin="29" yMin="0" xMax="710" yMax="700">
      <contour>
        <pt x="282" y="0" on="1"/>
        <pt x="29" y="0" on="1"/>
        <pt x="29" y="29" on="1"/>
        <pt x="69" y="47" on="0"/>
        <pt x="111" y="53" on="1"/>
        <pt x="111" y="646" on="1"/>
        <pt x="91" y="651" on="0"/>
        <pt x="49" y="663" on="0"/>
        <pt x="29" y="671" on="1"/>
        <pt x="29" y="700" on="1"/>
        <pt x="282" y="700" on="1"/>
        <pt x="282" y="671" on="1"/>
        <pt x="266" y="663" on="0"/>
        <pt x="230" y="651" on="0"/>
        <pt x="207" y="646" on="1"/>
        <pt x="207" y="212" on="1"/>
        <pt x="196" y="137" on="1"/>
        <pt x="244" y="216" on="1"/>
        <pt x="537" y="622" on="1"/>
        <pt x="537" y="646" on="1"/>
        <pt x="514" y="651" on="0"/>
        <pt x="473" y="664" on="0"/>
        <pt x="456" y="671" on="1"/>
        <pt x="456" y="700" on="1"/>
        <pt x="710" y="700" on="1"/>
        <pt x="710" y="671" on="1"/>
        <pt x="692" y="663" on="0"/>
        <pt x="650" y="651" on="0"/>
        <pt x="628" y="646" on="1"/>
        <pt x="628" y="53" on="1"/>
        <pt x="675" y="45" on="0"/>
        <pt x="710" y="29" on="1"/>
        <pt x="710" y="0" on="1"/>
        <pt x="456" y="0" on="1"/>
        <pt x="456" y="29" on="1"/>
        <pt x="472" y="36" on="0"/>
        <pt x="510" y="49" on="0"/>
        <pt x="532" y="53" on="1"/>
        <pt x="532" y="486" on="1"/>
        <pt x="542" y="561" on="1"/>
        <pt x="498" y="486" on="1"/>
        <pt x="201" y="75" on="1"/>
        <pt x="201" y="53" on="1"/>
        <pt x="224" y="49" on="0"/>
        <pt x="265" y="37" on="0"/>
        <pt x="282" y="29" on="1"/>
      </contour>
    </TTGlyph>
    <TTGlyph name="afii10027" xMin="29" yMin="0" xMax="710" yMax="882">
      <component glyphName="afii10026" x="0" y="0" flags="0x204"/>
      <component glyphName="uniF6D1" x="138" y="0" flags="0x4"/>
    </TTGlyph>
    <TTGlyph name="afii10028" xMin="29" yMin="0" xMax="646" yMax="700">
      <component glyphName="K" x="0" y="0" flags="0x204"/>
    </TTGlyph>
    <TTGlyph name="afii10029" xMin="-10" yMin="-12" xMax="626" yMax="700">
      <contour>
        <pt x="202" y="641" on="1"/>
        <pt x="140" y="651" on="0"/>
        <pt x="100" y="671" on="1"/>
        <pt x="100" y="700" on="1"/>
        <pt x="626" y="700" on="1"/>
        <pt x="626" y="671" on="1"/>
        <pt x="591" y="653" on="0"/>
        <pt x="544" y="646" on="1"/>
        <pt x="544" y="53" on="1"/>
        <pt x="591" y="45" on="0"/>
        <pt x="626" y="29" on="1"/>
        <pt x="626" y="0" on="1"/>
        <pt x="372" y="0" on="1"/>
        <pt x="372" y="29" on="1"/>
        <pt x="390" y="37" on="0"/>
        <pt x="428" y="48" on="0"/>
        <pt x="448" y="53" on="1"/>
        <pt x="448" y="648" on="1"/>
        <pt x="261" y="648" on="1"/>
        <pt x="257" y="491" on="0"/>
        <pt x="236" y="284" on="0"/>
        <pt x="204" y="149" on="0"/>
        <pt x="163" y="69" on="0"/>
        <pt x="139" y="38" on="1"/>
        <pt x="119" y="12" on="0"/>
        <pt x="61" y="-12" on="0"/>
        <pt x="34" y="-12" on="1"/>
        <pt x="27" y="-4" on="0"/>
        <pt x="12" y="25" on="0"/>
        <pt x="-1" y="58" on="0"/>
        <pt x="-9" y="91" on="0"/>
        <pt x="-10" y="104" on="1"/>
        <pt x="5" y="129" on="1"/>
        <pt x="120" y="108" on="1"/>
        <pt x="135" y="133" on="0"/>
        <pt x="164" y="215" on="0"/>
        <pt x="187" y="342" on="0"/>
        <pt x="202" y="520" on="0"/>
      </contour>
    </TTGlyph>
    <TTGlyph name="afii10030" xMin="29" yMin="0" xMax="838" yMax="700">
      <component glyphName="M" x="0" y="0" flags="0x204"/>
    </TTGlyph>
    <TTGlyph name="afii10031" xMin="29" yMin="0" xMax="699" yMax="700">
      <component glyphName="H" x="0" y="0" flags="0x204"/>
    </TTGlyph>
    <TTGlyph name="afii10032" xMin="53" yMin="-12" xMax="687" yMax="712">
      <component glyphName="O" x="0" y="0" flags="0x204"/>
    </TTGlyph>
    <TTGlyph name="afii10033" xMin="29" yMin="0" xMax="689" yMax="700">
      <contour>
        <pt x="282" y="0" on="1"/>
        <pt x="29" y="0" on="1"/>
        <pt x="29" y="29" on="1"/>
        <pt x="44" y="37" on="0"/>
        <pt x="84" y="49" on="0"/>
        <pt x="111" y="53" on="1"/>
        <pt x="111" y="646" on="1"/>
        <pt x="91" y="650" on="0"/>
        <pt x="49" y="663" on="0"/>
        <pt x="29" y="671" on="1"/>
        <pt x="29" y="700" on="1"/>
        <pt x="689" y="700" on="1"/>
        <pt x="689" y="671" on="1"/>
        <pt x="670" y="661" on="0"/>
        <pt x="628" y="650" on="0"/>
        <pt x="607" y="646" on="1"/>
        <pt x="607" y="53" on="1"/>
        <pt x="647" y="48" on="0"/>
        <pt x="689" y="29" on="1"/>
        <pt x="689" y="0" on="1"/>
        <pt x="436" y="0" on="1"/>
        <pt x="436" y="29" on="1"/>
        <pt x="458" y="43" on="0"/>
        <pt x="511" y="53" on="1"/>
        <pt x="511" y="648" on="1"/>
        <pt x="207" y="648" on="1"/>
        <pt x="207" y="53" on="1"/>
        <pt x="246" y="45" on="0"/>
        <pt x="282" y="29" on="1"/>
      </contour>
    </TTGlyph>
    <TTGlyph name="afii10034" xMin="29" yMin="0" xMax="557" yMax="708">
      <component glyphName="P" x="0" y="0" flags="0x204"/>
    </TTGlyph>
    <TTGlyph name="afii10035" xMin="53" yMin="-12" xMax="586" yMax="712">
      <component glyphName="C" x="0" y="0" flags="0x204"/>
    </TTGlyph>
    <TTGlyph name="afii10036" xMin="19" yMin="0" xMax="600" yMax="700">
      <component glyphName="T" x="0" y="0" flags="0x204"/>
    </TTGlyph>
    <TTGlyph name="afii10037" xMin="0" yMin="-11" xMax="660" yMax="700">
      <contour>
        <pt x="522" y="646" on="1"/>
        <pt x="472" y="655" on="0"/>
        <pt x="437" y="671" on="1"/>
        <pt x="437" y="700" on="1"/>
        <pt x="660" y="700" on="1"/>
        <pt x="660" y="671" on="1"/>
        <pt x="647" y="665" on="0"/>
        <pt x="611" y="652" on="0"/>
        <pt x="588" y="646" on="1"/>
        <pt x="392" y="201" on="1"/>
        <pt x="371" y="147" on="0"/>
        <pt x="329" y="64" on="0"/>
        <pt x="285" y="12" on="0"/>
        <pt x="235" y="-11" on="0"/>
        <pt x="206" y="-5" on="1"/>
        <pt x="200" y="4" on="0"/>
        <pt x="189" y="32" on="0"/>
        <pt x="181" y="62" on="0"/>
        <pt x="175" y="91" on="0"/>
        <pt x="174" y="103" on="1"/>
        <pt x="189" y="128" on="1"/>
        <pt x="292" y="101" on="1"/>
        <pt x="296" y="105" on="0"/>
        <pt x="305" y="121" on="0"/>
        <pt x="314" y="141" on="0"/>
        <pt x="322" y="161" on="0"/>
        <pt x="324" y="169" on="1"/>
        <pt x="75" y="646" on="1"/>
        <pt x="56" y="651" on="0"/>
        <pt x="18" y="663" on="0"/>
        <pt x="0" y="671" on="1"/>
        <pt x="0" y="700" on="1"/>
        <pt x="263" y="700" on="1"/>
        <pt x="263" y="671" on="1"/>
        <pt x="246" y="664" on="0"/>
        <pt x="205" y="651" on="0"/>
        <pt x="182" y="646" on="1"/>
        <pt x="348" y="315" on="1"/>
        <pt x="369" y="251" on="1"/>
        <pt x="371" y="251" on="1"/>
        <pt x="391" y="317" on="1"/>
      </contour>
    </TTGlyph>
    <TTGlyph name="afii10038" xMin="39" yMin="0" xMax="747" yMax="700">
      <contour>
        <pt x="278" y="700" on="1"/>
        <pt x="503" y="700" on="1"/>
        <pt x="503" y="671" on="1"/>
        <pt x="492" y="665" on="0"/>
        <pt x="460" y="653" on="0"/>
        <pt x="437" y="647" on="1"/>
        <pt x="437" y="596" on="1"/>
        <pt x="456" y="601" on="0"/>
        <pt x="505" y="603" on="0"/>
        <pt x="521" y="603" on="1"/>
        <pt x="569" y="603" on="0"/>
        <pt x="652" y="570" on="0"/>
        <pt x="713" y="507" on="0"/>
        <pt x="747" y="417" on="0"/>
        <pt x="747" y="360" on="1"/>
        <pt x="747" y="296" on="0"/>
        <pt x="705" y="202" on="0"/>
        <pt x="636" y="139" on="0"/>
        <pt x="549" y="108" on="0"/>
        <pt x="504" y="108" on="1"/>
        <pt x="499" y="108" on="0"/>
        <pt x="481" y="109" on="0"/>
        <pt x="461" y="110" on="0"/>
        <pt x="443" y="113" on="0"/>
        <pt x="437" y="115" on="1"/>
        <pt x="437" y="53" on="1"/>
        <pt x="457" y="48" on="0"/>
        <pt x="489" y="37" on="0"/>
        <pt x="503" y="29" on="1"/>
        <pt x="503" y="0" on="1"/>
        <pt x="278" y="0" on="1"/>
        <pt x="278" y="29" on="1"/>
        <pt x="293" y="37" on="0"/>
        <pt x="329" y="48" on="0"/>
        <pt x="349" y="52" on="1"/>
        <pt x="349" y="113" on="1"/>
        <pt x="330" y="110" on="0"/>
        <pt x="285" y="108" on="0"/>
        <pt x="265" y="108" on="1"/>
        <pt x="224" y="108" on="0"/>
        <pt x="144" y="135" on="0"/>
        <pt x="79" y="193" on="0"/>
        <pt x="39" y="285" on="0"/>
        <pt x="39" y="350" on="1"/>
        <pt x="39" y="410" on="0"/>
        <pt x="79" y="505" on="0"/>
        <pt x="147" y="569" on="0"/>
        <pt x="236" y="603" on="0"/>
        <pt x="285" y="603" on="1"/>
        <pt x="298" y="603" on="0"/>
        <pt x="337" y="601" on="0"/>
        <pt x="349" y="599" on="1"/>
        <pt x="349" y="647" on="1"/>
        <pt x="304" y="657" on="0"/>
        <pt x="278" y="671" on="1"/>
      </contour>
      <contour>
        <pt x="491" y="556" on="1"/>
        <pt x="477" y="556" on="0"/>
        <pt x="450" y="554" on="0"/>
        <pt x="436" y="550" on="1"/>
        <pt x="436" y="158" on="1"/>
        <pt x="446" y="156" on="0"/>
        <pt x="476" y="155" on="0"/>
        <pt x="484" y="155" on="1"/>
        <pt x="517" y="155" on="0"/>
        <pt x="578" y="179" on="0"/>
        <pt x="625" y="228" on="0"/>
        <pt x="653" y="306" on="0"/>
        <pt x="653" y="360" on="1"/>
        <pt x="653" y="452" on="0"/>
        <pt x="568" y="556" on="0"/>
      </contour>
      <contour>
        <pt x="302" y="155" on="1"/>
        <pt x="313" y="155" on="0"/>
        <pt x="336" y="156" on="0"/>
        <pt x="350" y="160" on="1"/>
        <pt x="350" y="553" on="1"/>
        <pt x="326" y="556" on="0"/>
        <pt x="302" y="556" on="1"/>
        <pt x="270" y="556" on="0"/>
        <pt x="210" y="532" on="0"/>
        <pt x="162" y="481" on="0"/>
        <pt x="133" y="404" on="0"/>
        <pt x="133" y="350" on="1"/>
        <pt x="133" y="303" on="0"/>
        <pt x="159" y="230" on="0"/>
        <pt x="204" y="181" on="0"/>
        <pt x="266" y="155" on="0"/>
      </contour>
    </TTGlyph>
    <TTGlyph name="afii10039" xMin="10" yMin="0" xMax="661" yMax="700">
      <component glyphName="X" x="0" y="0" flags="0x204"/>
    </TTGlyph>
    <TTGlyph name="afii10040" xMin="29" yMin="-151" xMax="717" yMax="700">
      <contour>
        <pt x="29" y="0" on="1"/>
        <pt x="29" y="29" on="1"/>
        <pt x="57" y="42" on="0"/>
        <pt x="111" y="53" on="1"/>
        <pt x="111" y="646" on="1"/>
        <pt x="72" y="652" on="0"/>
        <pt x="29" y="671" on="1"/>
        <pt x="29" y="700" on="1"/>
        <pt x="282" y="700" on="1"/>
        <pt x="282" y="671" on="1"/>
        <pt x="253" y="658" on="0"/>
        <pt x="207" y="646" on="1"/>
        <pt x="207" y="52" on="1"/>
        <pt x="506" y="52" on="1"/>
        <pt x="506" y="646" on="1"/>
        <pt x="488" y="650" on="0"/>
        <pt x="450" y="662" on="0"/>
        <pt x="431" y="671" on="1"/>
        <pt x="431" y="700" on="1"/>
        <pt x="684" y="700" on="1"/>
        <pt x="684" y="671" on="1"/>
        <pt x="644" y="654" on="0"/>
        <pt x="602" y="646" on="1"/>
        <pt x="602" y="52" on="1"/>
        <pt x="717" y="52" on="1"/>
        <pt x="717" y="32" on="0"/>
        <pt x="713" y="-21" on="0"/>
        <pt x="707" y="-78" on="0"/>
        <pt x="700" y="-131" on="0"/>
        <pt x="696" y="-151" on="1"/>
        <pt x="671" y="-151" on="1"/>
        <pt x="628" y="0" on="1"/>
      </contour>
    </TTGlyph>
    <TTGlyph name="afii10041" xMin="9" yMin="0" xMax="607" yMax="700">
      <contour>
        <pt x="607" y="0" on="1"/>
        <pt x="353" y="0" on="1"/>
        <pt x="353" y="29" on="1"/>
        <pt x="377" y="40" on="0"/>
        <pt x="422" y="51" on="0"/>
        <pt x="445" y="53" on="1"/>
        <pt x="445" y="310" on="1"/>
        <pt x="418" y="295" on="0"/>
        <pt x="329" y="265" on="0"/>
        <pt x="272" y="265" on="1"/>
        <pt x="230" y="265" on="0"/>
        <pt x="160" y="281" on="0"/>
        <pt x="109" y="323" on="0"/>
        <pt x="81" y="395" on="0"/>
        <pt x="81" y="451" on="1"/>
        <pt x="81" y="646" on="1"/>
        <pt x="63" y="649" on="0"/>
        <pt x="27" y="662" on="0"/>
        <pt x="9" y="671" on="1"/>
        <pt x="9" y="700" on="1"/>
        <pt x="243" y="700" on="1"/>
        <pt x="243" y="671" on="1"/>
        <pt x="229" y="664" on="0"/>
        <pt x="197" y="651" on="0"/>
        <pt x="177" y="646" on="1"/>
        <pt x="177" y="470" on="1"/>
        <pt x="177" y="400" on="0"/>
        <pt x="234" y="317" on="0"/>
        <pt x="300" y="317" on="1"/>
        <pt x="342" y="317" on="0"/>
        <pt x="418" y="341" on="0"/>
        <pt x="445" y="358" on="1"/>
        <pt x="445" y="646" on="1"/>
        <pt x="427" y="651" on="0"/>
        <pt x="391" y="664" on="0"/>
        <pt x="374" y="671" on="1"/>
        <pt x="374" y="700" on="1"/>
        <pt x="607" y="700" on="1"/>
        <pt x="607" y="671" on="1"/>
        <pt x="593" y="664" on="0"/>
        <pt x="560" y="651" on="0"/>
        <pt x="541" y="646" on="1"/>
        <pt x="541" y="53" on="1"/>
        <pt x="561" y="49" on="0"/>
        <pt x="594" y="37" on="0"/>
        <pt x="607" y="29" on="1"/>
      </contour>
    </TTGlyph>
    <TTGlyph name="afii10042" xMin="29" yMin="0" xMax="901" yMax="700">
      <contour>
        <pt x="353" y="700" on="1"/>
        <pt x="579" y="700" on="1"/>
        <pt x="579" y="671" on="1"/>
        <pt x="563" y="663" on="0"/>
        <pt x="531" y="651" on="0"/>
        <pt x="514" y="646" on="1"/>
        <pt x="514" y="52" on="1"/>
        <pt x="735" y="52" on="1"/>
        <pt x="735" y="646" on="1"/>
        <pt x="700" y="656" on="0"/>
        <pt x="669" y="671" on="1"/>
        <pt x="669" y="700" on="1"/>
        <pt x="901" y="700" on="1"/>
        <pt x="901" y="671" on="1"/>
        <pt x="886" y="664" on="0"/>
        <pt x="851" y="651" on="0"/>
        <pt x="831" y="646" on="1"/>
        <pt x="831" y="53" on="1"/>
        <pt x="872" y="45" on="0"/>
        <pt x="901" y="29" on="1"/>
        <pt x="901" y="0" on="1"/>
        <pt x="29" y="0" on="1"/>
        <pt x="29" y="29" on="1"/>
        <pt x="66" y="47" on="0"/>
        <pt x="101" y="53" on="1"/>
        <pt x="101" y="646" on="1"/>
        <pt x="82" y="651" on="0"/>
        <pt x="46" y="663" on="0"/>
        <pt x="29" y="671" on="1"/>
        <pt x="29" y="700" on="1"/>
        <pt x="262" y="700" on="1"/>
        <pt x="262" y="671" on="1"/>
        <pt x="236" y="658" on="0"/>
        <pt x="197" y="646" on="1"/>
        <pt x="197" y="52" on="1"/>
        <pt x="418" y="52" on="1"/>
        <pt x="418" y="646" on="1"/>
        <pt x="398" y="652" on="0"/>
        <pt x="366" y="665" on="0"/>
        <pt x="353" y="671" on="1"/>
      </contour>
    </TTGlyph>
    <TTGlyph name="afii10043" xMin="29" yMin="-151" xMax="946" yMax="700">
      <contour>
        <pt x="29" y="0" on="1"/>
        <pt x="29" y="29" on="1"/>
        <pt x="45" y="37" on="0"/>
        <pt x="79" y="49" on="0"/>
        <pt x="101" y="53" on="1"/>
        <pt x="101" y="646" on="1"/>
        <pt x="66" y="652" on="0"/>
        <pt x="29" y="671" on="1"/>
        <pt x="29" y="700" on="1"/>
        <pt x="262" y="700" on="1"/>
        <pt x="262" y="671" on="1"/>
        <pt x="248" y="664" on="0"/>
        <pt x="217" y="651" on="0"/>
        <pt x="197" y="646" on="1"/>
        <pt x="197" y="52" on="1"/>
        <pt x="418" y="52" on="1"/>
        <pt x="418" y="646" on="1"/>
        <pt x="400" y="652" on="0"/>
        <pt x="367" y="663" on="0"/>
        <pt x="353" y="671" on="1"/>
        <pt x="353" y="700" on="1"/>
        <pt x="579" y="700" on="1"/>
        <pt x="579" y="671" on="1"/>
        <pt x="567" y="663" on="0"/>
        <pt x="534" y="651" on="0"/>
        <pt x="514" y="646" on="1"/>
        <pt x="514" y="52" on="1"/>
        <pt x="735" y="52" on="1"/>
        <pt x="735" y="646" on="1"/>
        <pt x="699" y="655" on="0"/>
        <pt x="669" y="671" on="1"/>
        <pt x="669" y="700" on="1"/>
        <pt x="901" y="700" on="1"/>
        <pt x="901" y="671" on="1"/>
        <pt x="872" y="653" on="0"/>
        <pt x="831" y="646" on="1"/>
        <pt x="831" y="51" on="1"/>
        <pt x="946" y="51" on="1"/>
        <pt x="946" y="31" on="0"/>
        <pt x="942" y="-21" on="0"/>
        <pt x="936" y="-77" on="0"/>
        <pt x="929" y="-131" on="0"/>
        <pt x="925" y="-151" on="1"/>
        <pt x="900" y="-151" on="1"/>
        <pt x="857" y="0" on="1"/>
      </contour>
    </TTGlyph>
    <TTGlyph name="afii10044" xMin="19" yMin="-3" xMax="683" yMax="700">
      <contour>
        <pt x="421" y="700" on="1"/>
        <pt x="421" y="671" on="1"/>
        <pt x="403" y="664" on="0"/>
        <pt x="358" y="651" on="0"/>
        <pt x="333" y="646" on="1"/>
        <pt x="333" y="417" on="1"/>
        <pt x="351" y="419" on="0"/>
        <pt x="403" y="424" on="0"/>
        <pt x="423" y="424" on="1"/>
        <pt x="472" y="424" on="0"/>
        <pt x="566" y="406" on="0"/>
        <pt x="639" y="360" on="0"/>
        <pt x="683" y="280" on="0"/>
        <pt x="683" y="218" on="1"/>
        <pt x="683" y="159" on="0"/>
        <pt x="637" y="75" on="0"/>
        <pt x="560" y="22" on="0"/>
        <pt x="461" y="-3" on="0"/>
        <pt x="408" y="-3" on="1"/>
        <pt x="403" y="-3" on="0"/>
        <pt x="374" y="-2" on="0"/>
        <pt x="338" y="-1" on="0"/>
        <pt x="298" y="0" on="0"/>
        <pt x="283" y="0" on="1"/>
        <pt x="155" y="0" on="1"/>
        <pt x="155" y="29" on="1"/>
        <pt x="190" y="45" on="0"/>
        <pt x="237" y="53" on="1"/>
        <pt x="237" y="648" on="1"/>
        <pt x="108" y="648" on="1"/>
        <pt x="56" y="505" on="1"/>
        <pt x="31" y="505" on="1"/>
        <pt x="28" y="526" on="0"/>
        <pt x="24" y="578" on="0"/>
        <pt x="21" y="630" on="0"/>
        <pt x="20" y="680" on="0"/>
        <pt x="19" y="700" on="1"/>
      </contour>
      <contour>
        <pt x="402" y="372" on="1"/>
        <pt x="377" y="372" on="0"/>
        <pt x="347" y="371" on="0"/>
        <pt x="333" y="367" on="1"/>
        <pt x="333" y="53" on="1"/>
        <pt x="338" y="51" on="0"/>
        <pt x="357" y="50" on="0"/>
        <pt x="379" y="49" on="0"/>
        <pt x="399" y="49" on="0"/>
        <pt x="404" y="49" on="1"/>
        <pt x="439" y="49" on="0"/>
        <pt x="501" y="69" on="0"/>
        <pt x="548" y="110" on="0"/>
        <pt x="576" y="174" on="0"/>
        <pt x="576" y="219" on="1"/>
        <pt x="576" y="300" on="0"/>
        <pt x="483" y="372" on="0"/>
      </contour>
    </TTGlyph>
    <TTGlyph name="afii10045" xMin="29" yMin="-3" xMax="815" yMax="700">
      <contour>
        <pt x="815" y="0" on="1"/>
        <pt x="561" y="0" on="1"/>
        <pt x="561" y="29" on="1"/>
        <pt x="581" y="39" on="0"/>
        <pt x="619" y="49" on="0"/>
        <pt x="639" y="53" on="1"/>
        <pt x="639" y="646" on="1"/>
        <pt x="620" y="651" on="0"/>
        <pt x="581" y="661" on="0"/>
        <pt x="561" y="671" on="1"/>
        <pt x="561" y="700" on="1"/>
        <pt x="815" y="700" on="1"/>
        <pt x="815" y="671" on="1"/>
        <pt x="782" y="655" on="0"/>
        <pt x="735" y="646" on="1"/>
        <pt x="735" y="53" on="1"/>
        <pt x="760" y="49" on="0"/>
        <pt x="798" y="37" on="0"/>
        <pt x="815" y="29" on="1"/>
      </contour>
      <contour>
        <pt x="29" y="0" on="1"/>
        <pt x="29" y="29" on="1"/>
        <pt x="68" y="47" on="0"/>
        <pt x="111" y="53" on="1"/>
        <pt x="111" y="646" on="1"/>
        <pt x="91" y="651" on="0"/>
        <pt x="49" y="663" on="0"/>
        <pt x="29" y="671" on="1"/>
        <pt x="29" y="700" on="1"/>
        <pt x="295" y="700" on="1"/>
        <pt x="295" y="671" on="1"/>
        <pt x="276" y="663" on="0"/>
        <pt x="232" y="650" on="0"/>
        <pt x="207" y="646" on="1"/>
        <pt x="207" y="417" on="1"/>
        <pt x="225" y="419" on="0"/>
        <pt x="277" y="424" on="0"/>
        <pt x="297" y="424" on="1"/>
        <pt x="346" y="424" on="0"/>
        <pt x="436" y="406" on="0"/>
        <pt x="504" y="360" on="0"/>
        <pt x="545" y="280" on="0"/>
        <pt x="545" y="218" on="1"/>
        <pt x="545" y="159" on="0"/>
        <pt x="499" y="76" on="0"/>
        <pt x="425" y="22" on="0"/>
        <pt x="331" y="-3" on="0"/>
        <pt x="283" y="-3" on="1"/>
        <pt x="278" y="-3" on="0"/>
        <pt x="249" y="-2" on="0"/>
        <pt x="213" y="-1" on="0"/>
        <pt x="173" y="0" on="0"/>
        <pt x="158" y="0" on="1"/>
      </contour>
      <contour>
        <pt x="275" y="372" on="1"/>
        <pt x="251" y="372" on="0"/>
        <pt x="220" y="371" on="0"/>
        <pt x="207" y="367" on="1"/>
        <pt x="207" y="53" on="1"/>
        <pt x="212" y="51" on="0"/>
        <pt x="231" y="50" on="0"/>
        <pt x="252" y="49" on="0"/>
        <pt x="272" y="49" on="0"/>
        <pt x="278" y="49" on="1"/>
        <pt x="348" y="49" on="0"/>
        <pt x="438" y="133" on="0"/>
        <pt x="438" y="219" on="1"/>
        <pt x="438" y="294" on="0"/>
        <pt x="356" y="372" on="0"/>
      </contour>
    </TTGlyph>
    <TTGlyph name="afii10046" xMin="29" yMin="-3" xMax="557" yMax="700">
      <contour>
        <pt x="29" y="0" on="1"/>
        <pt x="29" y="29" on="1"/>
        <pt x="68" y="47" on="0"/>
        <pt x="111" y="53" on="1"/>
        <pt x="111" y="646" on="1"/>
        <pt x="91" y="650" on="0"/>
        <pt x="49" y="663" on="0"/>
        <pt x="29" y="671" on="1"/>
        <pt x="29" y="700" on="1"/>
        <pt x="295" y="700" on="1"/>
        <pt x="295" y="671" on="1"/>
        <pt x="277" y="663" on="0"/>
        <pt x="232" y="650" on="0"/>
        <pt x="207" y="646" on="1"/>
        <pt x="207" y="417" on="1"/>
        <pt x="225" y="419" on="0"/>
        <pt x="277" y="424" on="0"/>
        <pt x="297" y="424" on="1"/>
        <pt x="347" y="424" on="0"/>
        <pt x="441" y="406" on="0"/>
        <pt x="513" y="360" on="0"/>
        <pt x="557" y="280" on="0"/>
        <pt x="557" y="218" on="1"/>
        <pt x="557" y="159" on="0"/>
        <pt x="511" y="76" on="0"/>
        <pt x="435" y="22" on="0"/>
        <pt x="336" y="-3" on="0"/>
        <pt x="283" y="-3" on="1"/>
        <pt x="278" y="-3" on="0"/>
        <pt x="249" y="-2" on="0"/>
        <pt x="212" y="-1" on="0"/>
        <pt x="172" y="0" on="0"/>
        <pt x="157" y="0" on="1"/>
      </contour>
      <contour>
        <pt x="276" y="372" on="1"/>
        <pt x="251" y="372" on="0"/>
        <pt x="221" y="371" on="0"/>
        <pt x="207" y="367" on="1"/>
        <pt x="207" y="53" on="1"/>
        <pt x="212" y="51" on="0"/>
        <pt x="231" y="50" on="0"/>
        <pt x="253" y="49" on="0"/>
        <pt x="273" y="49" on="0"/>
        <pt x="278" y="49" on="1"/>
        <pt x="313" y="49" on="0"/>
        <pt x="375" y="69" on="0"/>
        <pt x="422" y="110" on="0"/>
        <pt x="450" y="174" on="0"/>
        <pt x="450" y="219" on="1"/>
        <pt x="450" y="300" on="0"/>
        <pt x="357" y="372" on="0"/>
      </contour>
    </TTGlyph>
    <TTGlyph name="afii10047" xMin="58" yMin="-12" xMax="580" yMax="712">
      <contour>
        <pt x="189" y="314" on="1"/>
        <pt x="184" y="334" on="0"/>
        <pt x="184" y="373" on="0"/>
        <pt x="189" y="392" on="1"/>
        <pt x="480" y="391" on="1"/>
        <pt x="472" y="526" on="0"/>
        <pt x="343" y="660" on="0"/>
        <pt x="232" y="660" on="1"/>
        <pt x="199" y="660" on="0"/>
        <pt x="160" y="649" on="0"/>
        <pt x="152" y="641" on="1"/>
        <pt x="100" y="519" on="1"/>
        <pt x="74" y="519" on="1"/>
        <pt x="72" y="532" on="0"/>
        <pt x="68" y="568" on="0"/>
        <pt x="65" y="608" on="0"/>
        <pt x="64" y="651" on="0"/>
        <pt x="64" y="671" on="1"/>
        <pt x="79" y="683" on="0"/>
        <pt x="122" y="698" on="0"/>
        <pt x="168" y="708" on="0"/>
        <pt x="217" y="712" on="0"/>
        <pt x="238" y="712" on="1"/>
        <pt x="319" y="712" on="0"/>
        <pt x="446" y="671" on="0"/>
        <pt x="534" y="584" on="0"/>
        <pt x="580" y="447" on="0"/>
        <pt x="580" y="351" on="1"/>
        <pt x="580" y="255" on="0"/>
        <pt x="524" y="118" on="0"/>
        <pt x="431" y="30" on="0"/>
        <pt x="312" y="-12" on="0"/>
        <pt x="248" y="-12" on="1"/>
        <pt x="182" y="-12" on="0"/>
        <pt x="93" y="5" on="0"/>
        <pt x="58" y="22" on="1"/>
        <pt x="59" y="38" on="0"/>
        <pt x="62" y="83" on="0"/>
        <pt x="66" y="130" on="0"/>
        <pt x="71" y="176" on="0"/>
        <pt x="73" y="195" on="1"/>
        <pt x="99" y="195" on="1"/>
        <pt x="151" y="49" on="1"/>
        <pt x="162" y="43" on="0"/>
        <pt x="214" y="40" on="0"/>
        <pt x="239" y="40" on="1"/>
        <pt x="284" y="40" on="0"/>
        <pt x="370" y="78" on="0"/>
        <pt x="438" y="154" on="0"/>
        <pt x="480" y="268" on="0"/>
        <pt x="480" y="344" on="1"/>
      </contour>
    </TTGlyph>
    <TTGlyph name="afii10048" xMin="29" yMin="-12" xMax="915" yMax="712">
      <contour>
        <pt x="283" y="0" on="1"/>
        <pt x="29" y="0" on="1"/>
        <pt x="29" y="29" on="1"/>
        <pt x="48" y="37" on="0"/>
        <pt x="88" y="49" on="0"/>
        <pt x="111" y="53" on="1"/>
        <pt x="111" y="646" on="1"/>
        <pt x="72" y="652" on="0"/>
        <pt x="29" y="671" on="1"/>
        <pt x="29" y="700" on="1"/>
        <pt x="283" y="700" on="1"/>
        <pt x="283" y="671" on="1"/>
        <pt x="269" y="665" on="0"/>
        <pt x="237" y="652" on="0"/>
        <pt x="207" y="646" on="1"/>
        <pt x="207" y="385" on="1"/>
        <pt x="326" y="385" on="1"/>
        <pt x="330" y="454" on="0"/>
        <pt x="370" y="574" on="0"/>
        <pt x="443" y="662" on="0"/>
        <pt x="548" y="712" on="0"/>
        <pt x="617" y="712" on="1"/>
        <pt x="692" y="712" on="0"/>
        <pt x="804" y="658" on="0"/>
        <pt x="878" y="561" on="0"/>
        <pt x="915" y="428" on="0"/>
        <pt x="915" y="350" on="1"/>
        <pt x="915" y="273" on="0"/>
        <pt x="877" y="140" on="0"/>
        <pt x="802" y="43" on="0"/>
        <pt x="691" y="-12" on="0"/>
        <pt x="617" y="-12" on="1"/>
        <pt x="544" y="-12" on="0"/>
        <pt x="435" y="40" on="0"/>
        <pt x="363" y="131" on="0"/>
        <pt x="326" y="258" on="0"/>
        <pt x="325" y="333" on="1"/>
        <pt x="207" y="333" on="1"/>
        <pt x="207" y="53" on="1"/>
        <pt x="232" y="48" on="0"/>
        <pt x="269" y="36" on="0"/>
        <pt x="283" y="29" on="1"/>
      </contour>
      <contour>
        <pt x="428" y="350" on="1"/>
        <pt x="428" y="285" on="0"/>
        <pt x="449" y="172" on="0"/>
        <pt x="496" y="88" on="0"/>
        <pt x="571" y="40" on="0"/>
        <pt x="626" y="40" on="1"/>
        <pt x="677" y="40" on="0"/>
        <pt x="747" y="89" on="0"/>
        <pt x="789" y="173" on="0"/>
        <pt x="808" y="286" on="0"/>
        <pt x="808" y="350" on="1"/>
        <pt x="808" y="414" on="0"/>
        <pt x="788" y="527" on="0"/>
        <pt x="741" y="611" on="0"/>
        <pt x="665" y="660" on="0"/>
        <pt x="609" y="660" on="1"/>
        <pt x="555" y="660" on="0"/>
        <pt x="485" y="611" on="0"/>
        <pt x="444" y="527" on="0"/>
        <pt x="428" y="414" on="0"/>
      </contour>
    </TTGlyph>
    <TTGlyph name="afii10049" xMin="9" yMin="0" xMax="607" yMax="703">
      <contour>
        <pt x="607" y="700" on="1"/>
        <pt x="607" y="671" on="1"/>
        <pt x="592" y="664" on="0"/>
        <pt x="552" y="651" on="0"/>
        <pt x="525" y="646" on="1"/>
        <pt x="525" y="53" on="1"/>
        <pt x="575" y="46" on="0"/>
        <pt x="607" y="29" on="1"/>
        <pt x="607" y="0" on="1"/>
        <pt x="342" y="0" on="1"/>
        <pt x="342" y="29" on="1"/>
        <pt x="379" y="47" on="0"/>
        <pt x="429" y="53" on="1"/>
        <pt x="429" y="294" on="1"/>
        <pt x="328" y="294" on="1"/>
        <pt x="306" y="258" on="0"/>
        <pt x="271" y="188" on="0"/>
        <pt x="235" y="120" on="0"/>
        <pt x="195" y="56" on="0"/>
        <pt x="169" y="25" on="1"/>
        <pt x="135" y="0" on="1"/>
        <pt x="9" y="0" on="1"/>
        <pt x="9" y="25" on="1"/>
        <pt x="57" y="49" on="1"/>
        <pt x="89" y="83" on="0"/>
        <pt x="139" y="149" on="0"/>
        <pt x="181" y="211" on="0"/>
        <pt x="220" y="271" on="0"/>
        <pt x="240" y="300" on="1"/>
        <pt x="211" y="309" on="0"/>
        <pt x="157" y="341" on="0"/>
        <pt x="117" y="389" on="0"/>
        <pt x="93" y="454" on="0"/>
        <pt x="93" y="496" on="1"/>
        <pt x="93" y="551" on="0"/>
        <pt x="141" y="630" on="0"/>
        <pt x="219" y="680" on="0"/>
        <pt x="318" y="703" on="0"/>
        <pt x="369" y="703" on="1"/>
        <pt x="389" y="703" on="0"/>
        <pt x="448" y="700" on="0"/>
        <pt x="479" y="700" on="1"/>
      </contour>
      <contour>
        <pt x="360" y="338" on="1"/>
        <pt x="378" y="338" on="0"/>
        <pt x="416" y="341" on="0"/>
        <pt x="429" y="345" on="1"/>
        <pt x="429" y="646" on="1"/>
        <pt x="419" y="649" on="0"/>
        <pt x="382" y="651" on="0"/>
        <pt x="368" y="651" on="1"/>
        <pt x="291" y="651" on="0"/>
        <pt x="200" y="578" on="0"/>
        <pt x="200" y="496" on="1"/>
        <pt x="200" y="421" on="0"/>
        <pt x="279" y="338" on="0"/>
      </contour>
    </TTGlyph>
    <TTGlyph name="afii10050" xMin="29" yMin="0" xMax="496" yMax="836">
      <contour>
        <pt x="207" y="53" on="1"/>
        <pt x="256" y="45" on="0"/>
        <pt x="303" y="29" on="1"/>
        <pt x="303" y="0" on="1"/>
        <pt x="29" y="0" on="1"/>
        <pt x="29" y="29" on="1"/>
        <pt x="69" y="45" on="0"/>
        <pt x="111" y="53" on="1"/>
        <pt x="111" y="646" on="1"/>
        <pt x="91" y="650" on="0"/>
        <pt x="49" y="663" on="0"/>
        <pt x="29" y="671" on="1"/>
        <pt x="29" y="700" on="1"/>
        <pt x="409" y="700" on="1"/>
        <pt x="462" y="836" on="1"/>
        <pt x="488" y="836" on="1"/>
        <pt x="491" y="815" on="0"/>
        <pt x="494" y="766" on="0"/>
        <pt x="495" y="715" on="0"/>
        <pt x="496" y="667" on="0"/>
        <pt x="496" y="648" on="1"/>
        <pt x="207" y="648" on="1"/>
      </contour>
    </TTGlyph>
    <TTGlyph name="afii10051" xMin="10" yMin="-3" xMax="712" yMax="700">
      <contour>
        <pt x="712" y="238" on="1"/>
        <pt x="712" y="163" on="0"/>
        <pt x="681" y="69" on="0"/>
        <pt x="627" y="16" on="0"/>
        <pt x="552" y="-3" on="0"/>
        <pt x="507" y="-3" on="1"/>
        <pt x="501" y="24" on="1"/>
        <pt x="527" y="30" on="0"/>
        <pt x="569" y="52" on="0"/>
        <pt x="599" y="97" on="0"/>
        <pt x="616" y="171" on="0"/>
        <pt x="616" y="229" on="1"/>
        <pt x="616" y="299" on="0"/>
        <pt x="560" y="382" on="0"/>
        <pt x="494" y="382" on="1"/>
        <pt x="452" y="382" on="0"/>
        <pt x="376" y="357" on="0"/>
        <pt x="348" y="340" on="1"/>
        <pt x="348" y="53" on="1"/>
        <pt x="367" y="48" on="0"/>
        <pt x="402" y="36" on="0"/>
        <pt x="419" y="29" on="1"/>
        <pt x="419" y="0" on="1"/>
        <pt x="160" y="0" on="1"/>
        <pt x="160" y="29" on="1"/>
        <pt x="181" y="37" on="0"/>
        <pt x="226" y="49" on="0"/>
        <pt x="252" y="53" on="1"/>
        <pt x="252" y="648" on="1"/>
        <pt x="99" y="648" on="1"/>
        <pt x="47" y="505" on="1"/>
        <pt x="21" y="505" on="1"/>
        <pt x="18" y="525" on="0"/>
        <pt x="15" y="576" on="0"/>
        <pt x="12" y="629" on="0"/>
        <pt x="10" y="680" on="0"/>
        <pt x="10" y="700" on="1"/>
        <pt x="590" y="700" on="1"/>
        <pt x="590" y="680" on="0"/>
        <pt x="588" y="631" on="0"/>
        <pt x="585" y="579" on="0"/>
        <pt x="582" y="529" on="0"/>
        <pt x="579" y="508" on="1"/>
        <pt x="553" y="508" on="1"/>
        <pt x="501" y="648" on="1"/>
        <pt x="348" y="648" on="1"/>
        <pt x="348" y="389" on="1"/>
        <pt x="375" y="404" on="0"/>
        <pt x="465" y="434" on="0"/>
        <pt x="522" y="434" on="1"/>
        <pt x="564" y="434" on="0"/>
        <pt x="633" y="417" on="0"/>
        <pt x="684" y="374" on="0"/>
        <pt x="712" y="298" on="0"/>
      </contour>
    </TTGlyph>
    <TTGlyph name="afii10052" xMin="29" yMin="0" xMax="497" yMax="894">
      <component glyphName="afii10020" x="0" y="0" flags="0x204"/>
      <component glyphName="uniF6C9" x="163" y="0" flags="0x4"/>
    </TTGlyph>
    <TTGlyph name="afii10053" xMin="53" yMin="-12" xMax="586" yMax="712">
      <contour>
        <pt x="547" y="182" on="1"/>
        <pt x="573" y="182" on="1"/>
        <pt x="578" y="154" on="0"/>
        <pt x="586" y="69" on="0"/>
        <pt x="584" y="29" on="1"/>
        <pt x="569" y="17" on="0"/>
        <pt x="527" y="2" on="0"/>
        <pt x="480" y="-8" on="0"/>
        <pt x="431" y="-12" on="0"/>
        <pt x="409" y="-12" on="1"/>
        <pt x="325" y="-12" on="0"/>
        <pt x="193" y="31" on="0"/>
        <pt x="102" y="119" on="0"/>
        <pt x="53" y="256" on="0"/>
        <pt x="53" y="350" on="1"/>
        <pt x="53" y="448" on="0"/>
        <pt x="107" y="585" on="0"/>
        <pt x="199" y="672" on="0"/>
        <pt x="321" y="712" on="0"/>
        <pt x="388" y="712" on="1"/>
        <pt x="454" y="712" on="0"/>
        <pt x="544" y="695" on="0"/>
        <pt x="578" y="678" on="1"/>
        <pt x="578" y="662" on="0"/>
        <pt x="576" y="619" on="0"/>
        <pt x="572" y="571" on="0"/>
        <pt x="566" y="525" on="0"/>
        <pt x="563" y="506" on="1"/>
        <pt x="537" y="506" on="1"/>
        <pt x="485" y="650" on="1"/>
        <pt x="474" y="656" on="0"/>
        <pt x="423" y="660" on="0"/>
        <pt x="398" y="660" on="1"/>
        <pt x="350" y="660" on="0"/>
        <pt x="264" y="625" on="0"/>
        <pt x="197" y="555" on="0"/>
        <pt x="155" y="448" on="0"/>
        <pt x="152" y="375" on="1"/>
        <pt x="480" y="389" on="1"/>
        <pt x="493" y="349" on="0"/>
        <pt x="484" y="311" on="1"/>
        <pt x="449" y="314" on="0"/>
        <pt x="364" y="319" on="0"/>
        <pt x="275" y="324" on="0"/>
        <pt x="189" y="327" on="0"/>
        <pt x="152" y="327" on="1"/>
        <pt x="155" y="261" on="0"/>
        <pt x="194" y="155" on="0"/>
        <pt x="261" y="80" on="0"/>
        <pt x="356" y="40" on="0"/>
        <pt x="416" y="40" on="1"/>
        <pt x="449" y="40" on="0"/>
        <pt x="493" y="50" on="0"/>
        <pt x="500" y="58" on="1"/>
      </contour>
    </TTGlyph>
    <TTGlyph name="afii10054" xMin="58" yMin="-12" xMax="484" yMax="712">
      <component glyphName="S" x="0" y="0" flags="0x204"/>
    </TTGlyph>
    <TTGlyph name="afii10055" xMin="48" yMin="0" xMax="304" yMax="700">
      <component glyphName="I" x="0" y="0" flags="0x204"/>
    </TTGlyph>
    <TTGlyph name="afii10055.alt" xMin="48" yMin="0" xMax="304" yMax="871">
      <component glyphName="I" x="0" y="0" flags="0x204"/>
      <component glyphName="uniF40B" x="54" y="0" flags="0x4"/>
    </TTGlyph>
    <TTGlyph name="afii10056" xMin="32" yMin="0" xMax="320" yMax="837">
      <contour>
        <pt x="32" y="789" on="1"/>
        <pt x="32" y="813" on="0"/>
        <pt x="63" y="837" on="0"/>
        <pt x="88" y="837" on="1"/>
        <pt x="112" y="837" on="0"/>
        <pt x="144" y="813" on="0"/>
        <pt x="144" y="789" on="1"/>
        <pt x="144" y="766" on="0"/>
        <pt x="112" y="742" on="0"/>
        <pt x="88" y="742" on="1"/>
        <pt x="63" y="742" on="0"/>
        <pt x="32" y="766" on="0"/>
      </contour>
      <contour>
        <pt x="208" y="789" on="1"/>
        <pt x="208" y="813" on="0"/>
        <pt x="240" y="837" on="0"/>
        <pt x="264" y="837" on="1"/>
        <pt x="289" y="837" on="0"/>
        <pt x="320" y="813" on="0"/>
        <pt x="320" y="789" on="1"/>
        <pt x="320" y="766" on="0"/>
        <pt x="289" y="742" on="0"/>
        <pt x="264" y="742" on="1"/>
        <pt x="240" y="742" on="0"/>
        <pt x="208" y="766" on="0"/>
      </contour>
      <contour>
        <pt x="304" y="0" on="1"/>
        <pt x="48" y="0" on="1"/>
        <pt x="48" y="29" on="1"/>
        <pt x="87" y="47" on="0"/>
        <pt x="128" y="53" on="1"/>
        <pt x="128" y="646" on="1"/>
        <pt x="108" y="650" on="0"/>
        <pt x="68" y="663" on="0"/>
        <pt x="48" y="671" on="1"/>
        <pt x="48" y="700" on="1"/>
        <pt x="304" y="700" on="1"/>
        <pt x="304" y="671" on="1"/>
        <pt x="286" y="663" on="0"/>
        <pt x="244" y="650" on="0"/>
        <pt x="224" y="646" on="1"/>
        <pt x="224" y="53" on="1"/>
        <pt x="245" y="49" on="0"/>
        <pt x="287" y="37" on="0"/>
        <pt x="304" y="29" on="1"/>
      </contour>
    </TTGlyph>
    <TTGlyph name="afii10057" xMin="39" yMin="-160" xMax="293" yMax="700">
      <component glyphName="J" x="0" y="0" flags="0x204"/>
    </TTGlyph>
    <TTGlyph name="afii10058" xMin="-10" yMin="-12" xMax="882" yMax="700">
      <contour>
        <pt x="372" y="0" on="1"/>
        <pt x="372" y="29" on="1"/>
        <pt x="410" y="47" on="0"/>
        <pt x="448" y="53" on="1"/>
        <pt x="448" y="648" on="1"/>
        <pt x="261" y="648" on="1"/>
        <pt x="257" y="491" on="0"/>
        <pt x="236" y="284" on="0"/>
        <pt x="204" y="149" on="0"/>
        <pt x="163" y="69" on="0"/>
        <pt x="139" y="38" on="1"/>
        <pt x="119" y="12" on="0"/>
        <pt x="61" y="-12" on="0"/>
        <pt x="34" y="-12" on="1"/>
        <pt x="27" y="-4" on="0"/>
        <pt x="12" y="25" on="0"/>
        <pt x="-1" y="58" on="0"/>
        <pt x="-9" y="91" on="0"/>
        <pt x="-10" y="104" on="1"/>
        <pt x="5" y="129" on="1"/>
        <pt x="120" y="108" on="1"/>
        <pt x="135" y="133" on="0"/>
        <pt x="164" y="215" on="0"/>
        <pt x="187" y="342" on="0"/>
        <pt x="202" y="520" on="0"/>
        <pt x="202" y="641" on="1"/>
        <pt x="140" y="651" on="0"/>
        <pt x="100" y="671" on="1"/>
        <pt x="100" y="700" on="1"/>
        <pt x="632" y="700" on="1"/>
        <pt x="632" y="671" on="1"/>
        <pt x="613" y="663" on="0"/>
        <pt x="569" y="650" on="0"/>
        <pt x="544" y="646" on="1"/>
        <pt x="544" y="417" on="1"/>
        <pt x="562" y="419" on="0"/>
        <pt x="614" y="424" on="0"/>
        <pt x="634" y="424" on="1"/>
        <pt x="683" y="424" on="0"/>
        <pt x="773" y="406" on="0"/>
        <pt x="841" y="360" on="0"/>
        <pt x="882" y="280" on="0"/>
        <pt x="882" y="218" on="1"/>
        <pt x="882" y="159" on="0"/>
        <pt x="836" y="76" on="0"/>
        <pt x="762" y="22" on="0"/>
        <pt x="668" y="-3" on="0"/>
        <pt x="620" y="-3" on="1"/>
        <pt x="615" y="-3" on="0"/>
        <pt x="586" y="-2" on="0"/>
        <pt x="550" y="-1" on="0"/>
        <pt x="510" y="0" on="0"/>
        <pt x="495" y="0" on="1"/>
      </contour>
      <contour>
        <pt x="612" y="372" on="1"/>
        <pt x="588" y="372" on="0"/>
        <pt x="558" y="371" on="0"/>
        <pt x="544" y="367" on="1"/>
        <pt x="544" y="53" on="1"/>
        <pt x="549" y="51" on="0"/>
        <pt x="568" y="50" on="0"/>
        <pt x="589" y="49" on="0"/>
        <pt x="609" y="49" on="0"/>
        <pt x="615" y="49" on="1"/>
        <pt x="685" y="49" on="0"/>
        <pt x="775" y="133" on="0"/>
        <pt x="775" y="219" on="1"/>
        <pt x="775" y="294" on="0"/>
        <pt x="694" y="372" on="0"/>
      </contour>
    </TTGlyph>
    <TTGlyph name="afii10059" xMin="29" yMin="-3" xMax="955" yMax="700">
      <contour>
        <pt x="446" y="0" on="1"/>
        <pt x="446" y="29" on="1"/>
        <pt x="466" y="38" on="0"/>
        <pt x="500" y="50" on="0"/>
        <pt x="521" y="53" on="1"/>
        <pt x="521" y="346" on="1"/>
        <pt x="207" y="346" on="1"/>
        <pt x="207" y="53" on="1"/>
        <pt x="227" y="49" on="0"/>
        <pt x="265" y="37" on="0"/>
        <pt x="282" y="29" on="1"/>
        <pt x="282" y="0" on="1"/>
        <pt x="29" y="0" on="1"/>
        <pt x="29" y="29" on="1"/>
        <pt x="69" y="45" on="0"/>
        <pt x="111" y="53" on="1"/>
        <pt x="111" y="646" on="1"/>
        <pt x="64" y="653" on="0"/>
        <pt x="29" y="671" on="1"/>
        <pt x="29" y="700" on="1"/>
        <pt x="282" y="700" on="1"/>
        <pt x="282" y="671" on="1"/>
        <pt x="265" y="662" on="0"/>
        <pt x="227" y="650" on="0"/>
        <pt x="207" y="646" on="1"/>
        <pt x="207" y="398" on="1"/>
        <pt x="521" y="398" on="1"/>
        <pt x="521" y="646" on="1"/>
        <pt x="501" y="651" on="0"/>
        <pt x="466" y="663" on="0"/>
        <pt x="446" y="671" on="1"/>
        <pt x="446" y="700" on="1"/>
        <pt x="705" y="700" on="1"/>
        <pt x="705" y="671" on="1"/>
        <pt x="686" y="663" on="0"/>
        <pt x="642" y="650" on="0"/>
        <pt x="617" y="646" on="1"/>
        <pt x="617" y="397" on="1"/>
        <pt x="635" y="400" on="0"/>
        <pt x="687" y="404" on="0"/>
        <pt x="707" y="404" on="1"/>
        <pt x="756" y="404" on="0"/>
        <pt x="846" y="386" on="0"/>
        <pt x="914" y="341" on="0"/>
        <pt x="955" y="264" on="0"/>
        <pt x="955" y="205" on="1"/>
        <pt x="955" y="147" on="0"/>
        <pt x="910" y="68" on="0"/>
        <pt x="836" y="19" on="0"/>
        <pt x="742" y="-3" on="0"/>
        <pt x="693" y="-3" on="1"/>
        <pt x="688" y="-3" on="0"/>
        <pt x="659" y="-2" on="0"/>
        <pt x="623" y="-1" on="0"/>
        <pt x="583" y="0" on="0"/>
        <pt x="568" y="0" on="1"/>
      </contour>
      <contour>
        <pt x="686" y="351" on="1"/>
        <pt x="662" y="351" on="0"/>
        <pt x="631" y="350" on="0"/>
        <pt x="617" y="346" on="1"/>
        <pt x="617" y="53" on="1"/>
        <pt x="622" y="51" on="0"/>
        <pt x="641" y="50" on="0"/>
        <pt x="663" y="49" on="0"/>
        <pt x="683" y="49" on="0"/>
        <pt x="688" y="49" on="1"/>
        <pt x="723" y="49" on="0"/>
        <pt x="782" y="67" on="0"/>
        <pt x="824" y="105" on="0"/>
        <pt x="848" y="164" on="0"/>
        <pt x="848" y="205" on="1"/>
        <pt x="848" y="274" on="0"/>
        <pt x="767" y="351" on="0"/>
      </contour>
    </TTGlyph>
    <TTGlyph name="afii10060" xMin="10" yMin="0" xMax="765" yMax="700">
      <contour>
        <pt x="348" y="648" on="1"/>
        <pt x="348" y="389" on="1"/>
        <pt x="375" y="404" on="0"/>
        <pt x="455" y="434" on="0"/>
        <pt x="512" y="434" on="1"/>
        <pt x="554" y="434" on="0"/>
        <pt x="621" y="417" on="0"/>
        <pt x="668" y="375" on="0"/>
        <pt x="693" y="303" on="0"/>
        <pt x="693" y="247" on="1"/>
        <pt x="693" y="53" on="1"/>
        <pt x="729" y="47" on="0"/>
        <pt x="765" y="29" on="1"/>
        <pt x="765" y="0" on="1"/>
        <pt x="597" y="0" on="1"/>
        <pt x="597" y="229" on="1"/>
        <pt x="597" y="264" on="0"/>
        <pt x="586" y="320" on="0"/>
        <pt x="561" y="360" on="0"/>
        <pt x="517" y="382" on="0"/>
        <pt x="484" y="382" on="1"/>
        <pt x="442" y="382" on="0"/>
        <pt x="376" y="357" on="0"/>
        <pt x="348" y="340" on="1"/>
        <pt x="348" y="53" on="1"/>
        <pt x="367" y="48" on="0"/>
        <pt x="402" y="36" on="0"/>
        <pt x="419" y="29" on="1"/>
        <pt x="419" y="0" on="1"/>
        <pt x="160" y="0" on="1"/>
        <pt x="160" y="29" on="1"/>
        <pt x="181" y="37" on="0"/>
        <pt x="226" y="49" on="0"/>
        <pt x="252" y="53" on="1"/>
        <pt x="252" y="648" on="1"/>
        <pt x="99" y="648" on="1"/>
        <pt x="47" y="505" on="1"/>
        <pt x="21" y="505" on="1"/>
        <pt x="18" y="525" on="0"/>
        <pt x="15" y="576" on="0"/>
        <pt x="12" y="629" on="0"/>
        <pt x="10" y="680" on="0"/>
        <pt x="10" y="700" on="1"/>
        <pt x="590" y="700" on="1"/>
        <pt x="590" y="680" on="0"/>
        <pt x="588" y="631" on="0"/>
        <pt x="585" y="579" on="0"/>
        <pt x="582" y="529" on="0"/>
        <pt x="579" y="509" on="1"/>
        <pt x="553" y="509" on="1"/>
        <pt x="501" y="648" on="1"/>
      </contour>
    </TTGlyph>
    <TTGlyph name="afii10061" xMin="29" yMin="0" xMax="646" yMax="894">
      <component glyphName="K" x="0" y="0" flags="0x204"/>
      <component glyphName="uniF6C9" x="213" y="0" flags="0x4"/>
    </TTGlyph>
    <TTGlyph name="afii10062" xMin="0" yMin="-11" xMax="660" yMax="882">
      <component glyphName="afii10037" x="0" y="0" flags="0x204"/>
      <component glyphName="uniF6D1" x="115" y="0" flags="0x4"/>
    </TTGlyph>
    <TTGlyph name="afii10065" xMin="39" yMin="-12" xMax="482" yMax="512">
      <component glyphName="a" x="0" y="0" flags="0x204"/>
    </TTGlyph>
    <TTGlyph name="afii10066" xMin="41" yMin="-12" xMax="500" yMax="762">
      <contour>
        <pt x="41" y="262" on="1"/>
        <pt x="41" y="390" on="0"/>
        <pt x="83" y="563" on="0"/>
        <pt x="168" y="668" on="0"/>
        <pt x="298" y="712" on="0"/>
        <pt x="385" y="712" on="1"/>
        <pt x="450" y="762" on="1"/>
        <pt x="476" y="762" on="1"/>
        <pt x="475" y="744" on="0"/>
        <pt x="469" y="703" on="0"/>
        <pt x="460" y="666" on="0"/>
        <pt x="451" y="638" on="0"/>
        <pt x="448" y="632" on="1"/>
        <pt x="356" y="632" on="0"/>
        <pt x="228" y="614" on="0"/>
        <pt x="144" y="558" on="0"/>
        <pt x="101" y="452" on="0"/>
        <pt x="94" y="365" on="1"/>
        <pt x="99" y="365" on="1"/>
        <pt x="111" y="391" on="0"/>
        <pt x="152" y="439" on="0"/>
        <pt x="205" y="475" on="0"/>
        <pt x="265" y="497" on="0"/>
        <pt x="296" y="497" on="1"/>
        <pt x="500" y="497" on="0"/>
        <pt x="500" y="252" on="1"/>
        <pt x="500" y="194" on="0"/>
        <pt x="468" y="97" on="0"/>
        <pt x="406" y="27" on="0"/>
        <pt x="318" y="-12" on="0"/>
        <pt x="263" y="-12" on="1"/>
        <pt x="213" y="-12" on="0"/>
        <pt x="131" y="25" on="0"/>
        <pt x="73" y="96" on="0"/>
        <pt x="41" y="197" on="0"/>
      </contour>
      <contour>
        <pt x="135" y="262" on="1"/>
        <pt x="135" y="199" on="0"/>
        <pt x="158" y="112" on="0"/>
        <pt x="198" y="57" on="0"/>
        <pt x="251" y="32" on="0"/>
        <pt x="280" y="32" on="1"/>
        <pt x="340" y="32" on="0"/>
        <pt x="401" y="140" on="0"/>
        <pt x="401" y="240" on="1"/>
        <pt x="401" y="342" on="0"/>
        <pt x="323" y="436" on="0"/>
        <pt x="254" y="436" on="1"/>
        <pt x="228" y="436" on="0"/>
        <pt x="167" y="404" on="0"/>
        <pt x="146" y="377" on="1"/>
        <pt x="141" y="352" on="0"/>
        <pt x="135" y="297" on="0"/>
      </contour>
    </TTGlyph>
    <TTGlyph name="afii10067" xMin="39" yMin="-4" xMax="481" yMax="504">
      <contour>
        <pt x="481" y="146" on="1"/>
        <pt x="481" y="106" on="0"/>
        <pt x="445" y="49" on="0"/>
        <pt x="384" y="13" on="0"/>
        <pt x="304" y="-4" on="0"/>
        <pt x="260" y="-4" on="1"/>
        <pt x="228" y="-4" on="0"/>
        <pt x="190" y="-3" on="0"/>
        <pt x="164" y="-1" on="0"/>
        <pt x="146" y="0" on="0"/>
        <pt x="135" y="0" on="1"/>
        <pt x="39" y="0" on="1"/>
        <pt x="39" y="25" on="1"/>
        <pt x="70" y="41" on="0"/>
        <pt x="105" y="49" on="1"/>
        <pt x="105" y="450" on="1"/>
        <pt x="67" y="457" on="0"/>
        <pt x="39" y="474" on="1"/>
        <pt x="39" y="500" on="1"/>
        <pt x="129" y="500" on="1"/>
        <pt x="153" y="500" on="0"/>
        <pt x="187" y="501" on="0"/>
        <pt x="217" y="503" on="0"/>
        <pt x="247" y="504" on="0"/>
        <pt x="265" y="504" on="1"/>
        <pt x="353" y="504" on="0"/>
        <pt x="451" y="451" on="0"/>
        <pt x="451" y="385" on="1"/>
        <pt x="451" y="361" on="0"/>
        <pt x="431" y="323" on="0"/>
        <pt x="399" y="295" on="0"/>
        <pt x="359" y="276" on="0"/>
        <pt x="340" y="272" on="1"/>
        <pt x="368" y="270" on="0"/>
        <pt x="419" y="252" on="0"/>
        <pt x="458" y="221" on="0"/>
        <pt x="481" y="176" on="0"/>
      </contour>
      <contour>
        <pt x="195" y="43" on="1"/>
        <pt x="209" y="40" on="0"/>
        <pt x="252" y="40" on="0"/>
        <pt x="266" y="40" on="1"/>
        <pt x="325" y="40" on="0"/>
        <pt x="383" y="91" on="0"/>
        <pt x="383" y="138" on="1"/>
        <pt x="383" y="187" on="0"/>
        <pt x="313" y="236" on="0"/>
        <pt x="258" y="236" on="1"/>
        <pt x="195" y="236" on="1"/>
      </contour>
      <contour>
        <pt x="195" y="266" on="1"/>
        <pt x="306" y="276" on="1"/>
        <pt x="324" y="285" on="0"/>
        <pt x="361" y="334" on="0"/>
        <pt x="361" y="374" on="1"/>
        <pt x="361" y="423" on="0"/>
        <pt x="302" y="460" on="0"/>
        <pt x="245" y="460" on="1"/>
        <pt x="234" y="460" on="0"/>
        <pt x="206" y="459" on="0"/>
        <pt x="195" y="456" on="1"/>
      </contour>
    </TTGlyph>
    <TTGlyph name="afii10068" xMin="39" yMin="0" xMax="412" yMax="500">
      <contour>
        <pt x="412" y="500" on="1"/>
        <pt x="411" y="461" on="0"/>
        <pt x="406" y="377" on="0"/>
        <pt x="400" y="336" on="1"/>
        <pt x="374" y="336" on="1"/>
        <pt x="330" y="456" on="1"/>
        <pt x="195" y="456" on="1"/>
        <pt x="195" y="49" on="1"/>
        <pt x="252" y="38" on="0"/>
        <pt x="285" y="25" on="1"/>
        <pt x="285" y="0" on="1"/>
        <pt x="39" y="0" on="1"/>
        <pt x="39" y="25" on="1"/>
        <pt x="56" y="35" on="0"/>
        <pt x="88" y="45" on="0"/>
        <pt x="105" y="49" on="1"/>
        <pt x="105" y="451" on="1"/>
        <pt x="68" y="457" on="0"/>
        <pt x="39" y="474" on="1"/>
        <pt x="39" y="500" on="1"/>
      </contour>
    </TTGlyph>
    <TTGlyph name="afii10069" xMin="9" yMin="-148" xMax="545" yMax="500">
      <contour>
        <pt x="90" y="0" on="1"/>
        <pt x="45" y="-148" on="1"/>
        <pt x="19" y="-148" on="1"/>
        <pt x="14" y="-99" on="0"/>
        <pt x="9" y="1" on="0"/>
        <pt x="9" y="49" on="1"/>
        <pt x="77" y="49" on="1"/>
        <pt x="89" y="63" on="0"/>
        <pt x="119" y="123" on="0"/>
        <pt x="146" y="218" on="0"/>
        <pt x="165" y="351" on="0"/>
        <pt x="165" y="440" on="1"/>
        <pt x="144" y="446" on="0"/>
        <pt x="110" y="464" on="0"/>
        <pt x="96" y="474" on="1"/>
        <pt x="96" y="500" on="1"/>
        <pt x="521" y="500" on="1"/>
        <pt x="521" y="474" on="1"/>
        <pt x="494" y="456" on="0"/>
        <pt x="455" y="450" on="1"/>
        <pt x="455" y="49" on="1"/>
        <pt x="544" y="49" on="1"/>
        <pt x="545" y="1" on="0"/>
        <pt x="539" y="-99" on="0"/>
        <pt x="533" y="-148" on="1"/>
        <pt x="508" y="-148" on="1"/>
        <pt x="463" y="0" on="1"/>
      </contour>
      <contour>
        <pt x="220" y="450" on="1"/>
        <pt x="220" y="360" on="0"/>
        <pt x="202" y="226" on="0"/>
        <pt x="177" y="131" on="0"/>
        <pt x="149" y="68" on="0"/>
        <pt x="138" y="49" on="1"/>
        <pt x="365" y="49" on="1"/>
        <pt x="365" y="450" on="1"/>
      </contour>
    </TTGlyph>
    <TTGlyph name="afii10070" xMin="41" yMin="-12" xMax="456" yMax="512">
      <component glyphName="e" x="0" y="0" flags="0x204"/>
    </TTGlyph>
    <TTGlyph name="afii10071" xMin="41" yMin="-12" xMax="456" yMax="716">
      <component glyphName="e" x="0" y="0" flags="0x204"/>
      <component glyphName="dieresis" x="36" y="0" flags="0x4"/>
    </TTGlyph>
    <TTGlyph name="afii10072" xMin="0" yMin="0" xMax="722" yMax="500">
      <contour>
        <pt x="529" y="500" on="1"/>
        <pt x="702" y="500" on="1"/>
        <pt x="702" y="474" on="1"/>
        <pt x="685" y="462" on="0"/>
        <pt x="645" y="450" on="1"/>
        <pt x="613" y="406" on="0"/>
        <pt x="545" y="322" on="0"/>
        <pt x="512" y="280" on="1"/>
        <pt x="525" y="262" on="0"/>
        <pt x="563" y="208" on="0"/>
        <pt x="608" y="145" on="0"/>
        <pt x="657" y="79" on="0"/>
        <pt x="681" y="49" on="1"/>
        <pt x="722" y="25" on="1"/>
        <pt x="722" y="0" on="1"/>
        <pt x="616" y="0" on="1"/>
        <pt x="588" y="23" on="1"/>
        <pt x="571" y="46" on="0"/>
        <pt x="532" y="107" on="0"/>
        <pt x="494" y="169" on="0"/>
        <pt x="462" y="222" on="0"/>
        <pt x="452" y="237" on="1"/>
        <pt x="404" y="237" on="1"/>
        <pt x="404" y="49" on="1"/>
        <pt x="435" y="41" on="0"/>
        <pt x="464" y="25" on="1"/>
        <pt x="464" y="0" on="1"/>
        <pt x="263" y="0" on="1"/>
        <pt x="263" y="25" on="1"/>
        <pt x="277" y="32" on="0"/>
        <pt x="304" y="44" on="0"/>
        <pt x="319" y="49" on="1"/>
        <pt x="319" y="243" on="1"/>
        <pt x="264" y="233" on="1"/>
        <pt x="255" y="219" on="0"/>
        <pt x="225" y="165" on="0"/>
        <pt x="190" y="103" on="0"/>
        <pt x="152" y="43" on="0"/>
        <pt x="134" y="23" on="1"/>
        <pt x="104" y="0" on="1"/>
        <pt x="0" y="0" on="1"/>
        <pt x="0" y="25" on="1"/>
        <pt x="46" y="49" on="1"/>
        <pt x="71" y="78" on="0"/>
        <pt x="118" y="142" on="0"/>
        <pt x="160" y="202" on="0"/>
        <pt x="195" y="255" on="0"/>
        <pt x="209" y="273" on="1"/>
        <pt x="171" y="316" on="0"/>
        <pt x="101" y="405" on="0"/>
        <pt x="69" y="450" on="1"/>
        <pt x="43" y="456" on="0"/>
        <pt x="19" y="474" on="1"/>
        <pt x="19" y="500" on="1"/>
        <pt x="192" y="500" on="1"/>
        <pt x="192" y="474" on="1"/>
        <pt x="173" y="460" on="0"/>
        <pt x="142" y="450" on="1"/>
        <pt x="169" y="402" on="0"/>
        <pt x="232" y="317" on="0"/>
        <pt x="267" y="269" on="1"/>
        <pt x="319" y="269" on="1"/>
        <pt x="319" y="450" on="1"/>
        <pt x="286" y="457" on="0"/>
        <pt x="263" y="474" on="1"/>
        <pt x="263" y="500" on="1"/>
        <pt x="457" y="500" on="1"/>
        <pt x="457" y="474" on="1"/>
        <pt x="447" y="466" on="0"/>
        <pt x="422" y="454" on="0"/>
        <pt x="404" y="450" on="1"/>
        <pt x="404" y="263" on="1"/>
        <pt x="459" y="273" on="1"/>
        <pt x="494" y="321" on="0"/>
        <pt x="551" y="402" on="0"/>
        <pt x="579" y="450" on="1"/>
        <pt x="565" y="455" on="0"/>
        <pt x="541" y="465" on="0"/>
        <pt x="529" y="474" on="1"/>
      </contour>
    </TTGlyph>
    <TTGlyph name="afii10073" xMin="46" yMin="-12" xMax="421" yMax="512">
      <contour>
        <pt x="205" y="35" on="1"/>
        <pt x="236" y="35" on="0"/>
        <pt x="281" y="55" on="0"/>
        <pt x="309" y="87" on="0"/>
        <pt x="323" y="128" on="0"/>
        <pt x="323" y="149" on="1"/>
        <pt x="323" y="197" on="0"/>
        <pt x="282" y="231" on="0"/>
        <pt x="247" y="237" on="1"/>
        <pt x="153" y="222" on="1"/>
        <pt x="149" y="235" on="0"/>
        <pt x="148" y="263" on="0"/>
        <pt x="153" y="276" on="1"/>
        <pt x="255" y="276" on="1"/>
        <pt x="264" y="280" on="0"/>
        <pt x="283" y="297" on="0"/>
        <pt x="300" y="322" on="0"/>
        <pt x="311" y="356" on="0"/>
        <pt x="311" y="377" on="1"/>
        <pt x="311" y="425" on="0"/>
        <pt x="258" y="468" on="0"/>
        <pt x="215" y="468" on="1"/>
        <pt x="195" y="468" on="0"/>
        <pt x="162" y="463" on="0"/>
        <pt x="157" y="461" on="1"/>
        <pt x="112" y="348" on="1"/>
        <pt x="87" y="348" on="1"/>
        <pt x="76" y="381" on="0"/>
        <pt x="66" y="447" on="0"/>
        <pt x="65" y="479" on="1"/>
        <pt x="85" y="490" on="0"/>
        <pt x="167" y="512" on="0"/>
        <pt x="231" y="512" on="1"/>
        <pt x="312" y="512" on="0"/>
        <pt x="401" y="453" on="0"/>
        <pt x="401" y="395" on="1"/>
        <pt x="401" y="371" on="0"/>
        <pt x="381" y="331" on="0"/>
        <pt x="350" y="299" on="0"/>
        <pt x="311" y="277" on="0"/>
        <pt x="292" y="271" on="1"/>
        <pt x="347" y="266" on="0"/>
        <pt x="421" y="205" on="0"/>
        <pt x="421" y="149" on="1"/>
        <pt x="421" y="69" on="0"/>
        <pt x="311" y="-12" on="0"/>
        <pt x="220" y="-12" on="1"/>
        <pt x="162" y="-12" on="0"/>
        <pt x="75" y="22" on="0"/>
        <pt x="46" y="48" on="1"/>
        <pt x="64" y="115" on="1"/>
        <pt x="84" y="115" on="1"/>
        <pt x="97" y="101" on="0"/>
        <pt x="129" y="62" on="0"/>
        <pt x="145" y="43" on="1"/>
        <pt x="166" y="35" on="0"/>
      </contour>
    </TTGlyph>
    <TTGlyph name="afii10074" xMin="39" yMin="0" xMax="573" yMax="500">
      <contour>
        <pt x="39" y="500" on="1"/>
        <pt x="251" y="500" on="1"/>
        <pt x="251" y="474" on="1"/>
        <pt x="240" y="468" on="0"/>
        <pt x="211" y="456" on="0"/>
        <pt x="191" y="450" on="1"/>
        <pt x="191" y="176" on="1"/>
        <pt x="180" y="83" on="1"/>
        <pt x="185" y="83" on="1"/>
        <pt x="224" y="158" on="1"/>
        <pt x="438" y="500" on="1"/>
        <pt x="573" y="500" on="1"/>
        <pt x="573" y="474" on="1"/>
        <pt x="541" y="456" on="0"/>
        <pt x="507" y="450" on="1"/>
        <pt x="507" y="49" on="1"/>
        <pt x="526" y="44" on="0"/>
        <pt x="560" y="33" on="0"/>
        <pt x="573" y="25" on="1"/>
        <pt x="573" y="0" on="1"/>
        <pt x="361" y="0" on="1"/>
        <pt x="361" y="25" on="1"/>
        <pt x="389" y="41" on="0"/>
        <pt x="421" y="49" on="1"/>
        <pt x="421" y="335" on="1"/>
        <pt x="431" y="414" on="1"/>
        <pt x="426" y="414" on="1"/>
        <pt x="388" y="339" on="1"/>
        <pt x="176" y="0" on="1"/>
        <pt x="39" y="0" on="1"/>
        <pt x="39" y="25" on="1"/>
        <pt x="56" y="33" on="0"/>
        <pt x="88" y="44" on="0"/>
        <pt x="105" y="49" on="1"/>
        <pt x="105" y="450" on="1"/>
        <pt x="66" y="456" on="0"/>
        <pt x="39" y="474" on="1"/>
      </contour>
    </TTGlyph>
    <TTGlyph name="afii10075" xMin="39" yMin="0" xMax="573" yMax="710">
      <component glyphName="afii10074" x="0" y="0" flags="0x204"/>
      <component glyphName="uniF6D4" x="89" y="0" flags="0x4"/>
    </TTGlyph>
    <TTGlyph name="afii10076" xMin="39" yMin="0" xMax="541" yMax="500">
      <contour>
        <pt x="325" y="500" on="1"/>
        <pt x="518" y="500" on="1"/>
        <pt x="518" y="474" on="1"/>
        <pt x="508" y="466" on="0"/>
        <pt x="475" y="454" on="0"/>
        <pt x="451" y="446" on="1"/>
        <pt x="417" y="405" on="0"/>
        <pt x="341" y="321" on="0"/>
        <pt x="299" y="279" on="1"/>
        <pt x="321" y="255" on="0"/>
        <pt x="370" y="197" on="0"/>
        <pt x="420" y="135" on="0"/>
        <pt x="470" y="75" on="0"/>
        <pt x="494" y="49" on="1"/>
        <pt x="541" y="25" on="1"/>
        <pt x="541" y="0" on="1"/>
        <pt x="424" y="0" on="1"/>
        <pt x="392" y="23" on="1"/>
        <pt x="347" y="77" on="0"/>
        <pt x="273" y="185" on="0"/>
        <pt x="235" y="237" on="1"/>
        <pt x="195" y="237" on="1"/>
        <pt x="195" y="49" on="1"/>
        <pt x="215" y="44" on="0"/>
        <pt x="248" y="33" on="0"/>
        <pt x="260" y="25" on="1"/>
        <pt x="260" y="0" on="1"/>
        <pt x="39" y="0" on="1"/>
        <pt x="39" y="25" on="1"/>
        <pt x="66" y="41" on="0"/>
        <pt x="105" y="49" on="1"/>
        <pt x="105" y="450" on="1"/>
        <pt x="70" y="457" on="0"/>
        <pt x="39" y="474" on="1"/>
        <pt x="39" y="500" on="1"/>
        <pt x="244" y="500" on="1"/>
        <pt x="244" y="474" on="1"/>
        <pt x="234" y="467" on="0"/>
        <pt x="211" y="455" on="0"/>
        <pt x="195" y="450" on="1"/>
        <pt x="195" y="263" on="1"/>
        <pt x="241" y="273" on="1"/>
        <pt x="281" y="319" on="0"/>
        <pt x="353" y="399" on="0"/>
        <pt x="384" y="446" on="1"/>
        <pt x="367" y="453" on="0"/>
        <pt x="338" y="466" on="0"/>
        <pt x="325" y="474" on="1"/>
      </contour>
    </TTGlyph>
    <TTGlyph name="afii10077" xMin="4" yMin="-18" xMax="504" yMax="500">
      <contour>
        <pt x="103" y="86" on="1"/>
        <pt x="117" y="110" on="0"/>
        <pt x="139" y="190" on="0"/>
        <pt x="154" y="286" on="0"/>
        <pt x="162" y="391" on="0"/>
        <pt x="162" y="440" on="1"/>
        <pt x="142" y="446" on="0"/>
        <pt x="109" y="464" on="0"/>
        <pt x="95" y="474" on="1"/>
        <pt x="95" y="500" on="1"/>
        <pt x="504" y="500" on="1"/>
        <pt x="504" y="474" on="1"/>
        <pt x="472" y="456" on="0"/>
        <pt x="438" y="450" on="1"/>
        <pt x="438" y="49" on="1"/>
        <pt x="459" y="44" on="0"/>
        <pt x="491" y="32" on="0"/>
        <pt x="504" y="25" on="1"/>
        <pt x="504" y="0" on="1"/>
        <pt x="289" y="0" on="1"/>
        <pt x="289" y="25" on="1"/>
        <pt x="313" y="42" on="0"/>
        <pt x="348" y="49" on="1"/>
        <pt x="348" y="456" on="1"/>
        <pt x="216" y="456" on="1"/>
        <pt x="215" y="403" on="0"/>
        <pt x="205" y="284" on="0"/>
        <pt x="185" y="169" on="0"/>
        <pt x="153" y="68" on="0"/>
        <pt x="130" y="34" on="1"/>
        <pt x="111" y="5" on="0"/>
        <pt x="67" y="-18" on="0"/>
        <pt x="48" y="-14" on="1"/>
        <pt x="33" y="3" on="0"/>
        <pt x="6" y="58" on="0"/>
        <pt x="4" y="81" on="1"/>
        <pt x="18" y="106" on="1"/>
      </contour>
    </TTGlyph>
    <TTGlyph name="afii10078" xMin="31" yMin="0" xMax="703" yMax="500">
      <contour>
        <pt x="207" y="0" on="1"/>
        <pt x="31" y="0" on="1"/>
        <pt x="31" y="25" on="1"/>
        <pt x="64" y="41" on="0"/>
        <pt x="97" y="49" on="1"/>
        <pt x="112" y="440" on="1"/>
        <pt x="91" y="448" on="0"/>
        <pt x="59" y="466" on="0"/>
        <pt x="46" y="474" on="1"/>
        <pt x="46" y="500" on="1"/>
        <pt x="241" y="500" on="1"/>
        <pt x="344" y="208" on="1"/>
        <pt x="363" y="139" on="1"/>
        <pt x="366" y="139" on="1"/>
        <pt x="387" y="209" on="1"/>
        <pt x="494" y="500" on="1"/>
        <pt x="683" y="500" on="1"/>
        <pt x="683" y="474" on="1"/>
        <pt x="670" y="466" on="0"/>
        <pt x="638" y="454" on="0"/>
        <pt x="617" y="450" on="1"/>
        <pt x="637" y="49" on="1"/>
        <pt x="670" y="43" on="0"/>
        <pt x="703" y="25" on="1"/>
        <pt x="703" y="0" on="1"/>
        <pt x="491" y="0" on="1"/>
        <pt x="491" y="25" on="1"/>
        <pt x="501" y="30" on="0"/>
        <pt x="529" y="42" on="0"/>
        <pt x="551" y="49" on="1"/>
        <pt x="531" y="454" on="1"/>
        <pt x="523" y="454" on="1"/>
        <pt x="359" y="0" on="1"/>
        <pt x="332" y="0" on="1"/>
        <pt x="170" y="454" on="1"/>
        <pt x="162" y="454" on="1"/>
        <pt x="147" y="49" on="1"/>
        <pt x="183" y="38" on="0"/>
        <pt x="207" y="25" on="1"/>
      </contour>
    </TTGlyph>
    <TTGlyph name="afii10079" xMin="39" yMin="0" xMax="573" yMax="500">
      <contour>
        <pt x="254" y="0" on="1"/>
        <pt x="39" y="0" on="1"/>
        <pt x="39" y="25" on="1"/>
        <pt x="53" y="33" on="0"/>
        <pt x="87" y="44" on="0"/>
        <pt x="105" y="49" on="1"/>
        <pt x="105" y="450" on="1"/>
        <pt x="87" y="455" on="0"/>
        <pt x="53" y="466" on="0"/>
        <pt x="39" y="474" on="1"/>
        <pt x="39" y="500" on="1"/>
        <pt x="254" y="500" on="1"/>
        <pt x="254" y="474" on="1"/>
        <pt x="231" y="460" on="0"/>
        <pt x="195" y="450" on="1"/>
        <pt x="195" y="275" on="1"/>
        <pt x="417" y="275" on="1"/>
        <pt x="417" y="450" on="1"/>
        <pt x="382" y="456" on="0"/>
        <pt x="357" y="474" on="1"/>
        <pt x="357" y="500" on="1"/>
        <pt x="573" y="500" on="1"/>
        <pt x="573" y="474" on="1"/>
        <pt x="546" y="457" on="0"/>
        <pt x="507" y="450" on="1"/>
        <pt x="507" y="49" on="1"/>
        <pt x="525" y="45" on="0"/>
        <pt x="559" y="35" on="0"/>
        <pt x="573" y="25" on="1"/>
        <pt x="573" y="0" on="1"/>
        <pt x="357" y="0" on="1"/>
        <pt x="357" y="25" on="1"/>
        <pt x="382" y="43" on="0"/>
        <pt x="417" y="49" on="1"/>
        <pt x="417" y="231" on="1"/>
        <pt x="195" y="231" on="1"/>
        <pt x="195" y="49" on="1"/>
        <pt x="215" y="45" on="0"/>
        <pt x="243" y="33" on="0"/>
        <pt x="254" y="25" on="1"/>
      </contour>
    </TTGlyph>
    <TTGlyph name="afii10080" xMin="41" yMin="-12" xMax="512" yMax="512">
      <component glyphName="o" x="0" y="0" flags="0x204"/>
    </TTGlyph>
    <TTGlyph name="afii10081" xMin="39" yMin="0" xMax="572" yMax="500">
      <contour>
        <pt x="254" y="0" on="1"/>
        <pt x="39" y="0" on="1"/>
        <pt x="39" y="25" on="1"/>
        <pt x="58" y="36" on="0"/>
        <pt x="90" y="47" on="0"/>
        <pt x="105" y="49" on="1"/>
        <pt x="105" y="450" on="1"/>
        <pt x="84" y="455" on="0"/>
        <pt x="50" y="467" on="0"/>
        <pt x="39" y="474" on="1"/>
        <pt x="39" y="500" on="1"/>
        <pt x="572" y="500" on="1"/>
        <pt x="572" y="474" on="1"/>
        <pt x="559" y="466" on="0"/>
        <pt x="527" y="452" on="0"/>
        <pt x="506" y="450" on="1"/>
        <pt x="506" y="49" on="1"/>
        <pt x="540" y="43" on="0"/>
        <pt x="572" y="25" on="1"/>
        <pt x="572" y="0" on="1"/>
        <pt x="357" y="0" on="1"/>
        <pt x="357" y="25" on="1"/>
        <pt x="367" y="32" on="0"/>
        <pt x="394" y="44" on="0"/>
        <pt x="416" y="49" on="1"/>
        <pt x="416" y="456" on="1"/>
        <pt x="195" y="456" on="1"/>
        <pt x="195" y="49" on="1"/>
        <pt x="215" y="43" on="0"/>
        <pt x="243" y="31" on="0"/>
        <pt x="254" y="25" on="1"/>
      </contour>
    </TTGlyph>
    <TTGlyph name="afii10082" xMin="31" yMin="-200" xMax="525" yMax="512">
      <component glyphName="p" x="0" y="0" flags="0x204"/>
    </TTGlyph>
    <TTGlyph name="afii10083" xMin="41" yMin="-12" xMax="427" yMax="512">
      <component glyphName="c" x="0" y="0" flags="0x204"/>
    </TTGlyph>
    <TTGlyph name="afii10084" xMin="28" yMin="0" xMax="468" yMax="500">
      <contour>
        <pt x="359" y="0" on="1"/>
        <pt x="137" y="0" on="1"/>
        <pt x="137" y="25" on="1"/>
        <pt x="168" y="41" on="0"/>
        <pt x="203" y="49" on="1"/>
        <pt x="203" y="456" on="1"/>
        <pt x="110" y="456" on="1"/>
        <pt x="66" y="336" on="1"/>
        <pt x="40" y="336" on="1"/>
        <pt x="35" y="379" on="0"/>
        <pt x="29" y="462" on="0"/>
        <pt x="28" y="500" on="1"/>
        <pt x="468" y="500" on="1"/>
        <pt x="467" y="464" on="0"/>
        <pt x="462" y="379" on="0"/>
        <pt x="456" y="336" on="1"/>
        <pt x="430" y="336" on="1"/>
        <pt x="386" y="456" on="1"/>
        <pt x="293" y="456" on="1"/>
        <pt x="293" y="49" on="1"/>
        <pt x="340" y="37" on="0"/>
        <pt x="359" y="25" on="1"/>
      </contour>
    </TTGlyph>
    <TTGlyph name="afii10085" xMin="-11" yMin="-215" xMax="516" yMax="500">
      <component glyphName="y" x="0" y="0" flags="0x204"/>
    </TTGlyph>
    <TTGlyph name="afii10086" xMin="41" yMin="-200" xMax="683" yMax="752">
      <contour>
        <pt x="471" y="-200" on="1"/>
        <pt x="253" y="-200" on="1"/>
        <pt x="253" y="-175" on="1"/>
        <pt x="281" y="-159" on="0"/>
        <pt x="319" y="-151" on="1"/>
        <pt x="319" y="25" on="1"/>
        <pt x="302" y="8" on="0"/>
        <pt x="261" y="-12" on="0"/>
        <pt x="232" y="-12" on="1"/>
        <pt x="190" y="-12" on="0"/>
        <pt x="119" y="17" on="0"/>
        <pt x="69" y="77" on="0"/>
        <pt x="41" y="169" on="0"/>
        <pt x="41" y="232" on="1"/>
        <pt x="41" y="375" on="0"/>
        <pt x="151" y="512" on="0"/>
        <pt x="243" y="512" on="1"/>
        <pt x="268" y="512" on="0"/>
        <pt x="309" y="495" on="0"/>
        <pt x="319" y="480" on="1"/>
        <pt x="319" y="682" on="1"/>
        <pt x="243" y="690" on="1"/>
        <pt x="243" y="716" on="1"/>
        <pt x="272" y="729" on="0"/>
        <pt x="347" y="747" on="0"/>
        <pt x="380" y="752" on="1"/>
        <pt x="405" y="752" on="1"/>
        <pt x="405" y="474" on="1"/>
        <pt x="420" y="492" on="0"/>
        <pt x="470" y="512" on="0"/>
        <pt x="498" y="512" on="1"/>
        <pt x="583" y="512" on="0"/>
        <pt x="683" y="398" on="0"/>
        <pt x="683" y="280" on="1"/>
        <pt x="683" y="204" on="0"/>
        <pt x="653" y="94" on="0"/>
        <pt x="601" y="22" on="0"/>
        <pt x="528" y="-12" on="0"/>
        <pt x="485" y="-12" on="1"/>
        <pt x="461" y="-12" on="0"/>
        <pt x="417" y="4" on="0"/>
        <pt x="405" y="18" on="1"/>
        <pt x="405" y="-151" on="1"/>
        <pt x="424" y="-154" on="0"/>
        <pt x="457" y="-165" on="0"/>
        <pt x="471" y="-175" on="1"/>
      </contour>
      <contour>
        <pt x="253" y="37" on="1"/>
        <pt x="270" y="37" on="0"/>
        <pt x="305" y="46" on="0"/>
        <pt x="319" y="60" on="1"/>
        <pt x="319" y="445" on="1"/>
        <pt x="307" y="453" on="0"/>
        <pt x="278" y="462" on="0"/>
        <pt x="252" y="462" on="1"/>
        <pt x="227" y="462" on="0"/>
        <pt x="184" y="440" on="0"/>
        <pt x="153" y="394" on="0"/>
        <pt x="135" y="322" on="0"/>
        <pt x="135" y="271" on="1"/>
        <pt x="135" y="203" on="0"/>
        <pt x="153" y="113" on="0"/>
        <pt x="185" y="59" on="0"/>
        <pt x="228" y="37" on="0"/>
      </contour>
      <contour>
        <pt x="474" y="462" on="1"/>
        <pt x="454" y="462" on="0"/>
        <pt x="418" y="453" on="0"/>
        <pt x="404" y="441" on="1"/>
        <pt x="404" y="55" on="1"/>
        <pt x="416" y="45" on="0"/>
        <pt x="447" y="37" on="0"/>
        <pt x="471" y="37" on="1"/>
        <pt x="494" y="37" on="0"/>
        <pt x="537" y="60" on="0"/>
        <pt x="570" y="109" on="0"/>
        <pt x="589" y="188" on="0"/>
        <pt x="589" y="245" on="1"/>
        <pt x="589" y="306" on="0"/>
        <pt x="574" y="390" on="0"/>
        <pt x="546" y="440" on="0"/>
        <pt x="502" y="462" on="0"/>
      </contour>
    </TTGlyph>
    <TTGlyph name="afii10087" xMin="10" yMin="0" xMax="509" yMax="500">
      <component glyphName="x" x="0" y="0" flags="0x204"/>
    </TTGlyph>
    <TTGlyph name="afii10088" xMin="39" yMin="-148" xMax="585" yMax="500">
      <contour>
        <pt x="39" y="0" on="1"/>
        <pt x="39" y="25" on="1"/>
        <pt x="66" y="41" on="0"/>
        <pt x="105" y="49" on="1"/>
        <pt x="105" y="450" on="1"/>
        <pt x="67" y="456" on="0"/>
        <pt x="39" y="474" on="1"/>
        <pt x="39" y="500" on="1"/>
        <pt x="254" y="500" on="1"/>
        <pt x="254" y="474" on="1"/>
        <pt x="231" y="460" on="0"/>
        <pt x="195" y="450" on="1"/>
        <pt x="195" y="44" on="1"/>
        <pt x="406" y="44" on="1"/>
        <pt x="406" y="450" on="1"/>
        <pt x="379" y="456" on="0"/>
        <pt x="347" y="474" on="1"/>
        <pt x="347" y="500" on="1"/>
        <pt x="562" y="500" on="1"/>
        <pt x="562" y="474" on="1"/>
        <pt x="549" y="467" on="0"/>
        <pt x="517" y="455" on="0"/>
        <pt x="496" y="450" on="1"/>
        <pt x="496" y="44" on="1"/>
        <pt x="585" y="44" on="1"/>
        <pt x="583" y="-4" on="0"/>
        <pt x="578" y="-100" on="0"/>
        <pt x="574" y="-148" on="1"/>
        <pt x="549" y="-148" on="1"/>
        <pt x="504" y="0" on="1"/>
      </contour>
    </TTGlyph>
    <TTGlyph name="afii10089" xMin="15" yMin="0" xMax="519" yMax="500">
      <contour>
        <pt x="15" y="500" on="1"/>
        <pt x="230" y="500" on="1"/>
        <pt x="230" y="474" on="1"/>
        <pt x="220" y="467" on="0"/>
        <pt x="190" y="454" on="0"/>
        <pt x="171" y="450" on="1"/>
        <pt x="171" y="330" on="1"/>
        <pt x="171" y="283" on="0"/>
        <pt x="211" y="226" on="0"/>
        <pt x="258" y="226" on="1"/>
        <pt x="286" y="226" on="0"/>
        <pt x="339" y="243" on="0"/>
        <pt x="363" y="257" on="1"/>
        <pt x="363" y="450" on="1"/>
        <pt x="333" y="456" on="0"/>
        <pt x="304" y="474" on="1"/>
        <pt x="304" y="500" on="1"/>
        <pt x="519" y="500" on="1"/>
        <pt x="519" y="474" on="1"/>
        <pt x="492" y="457" on="0"/>
        <pt x="453" y="450" on="1"/>
        <pt x="453" y="49" on="1"/>
        <pt x="473" y="44" on="0"/>
        <pt x="505" y="33" on="0"/>
        <pt x="519" y="25" on="1"/>
        <pt x="519" y="0" on="1"/>
        <pt x="283" y="0" on="1"/>
        <pt x="283" y="25" on="1"/>
        <pt x="324" y="42" on="0"/>
        <pt x="363" y="49" on="1"/>
        <pt x="363" y="228" on="1"/>
        <pt x="339" y="202" on="0"/>
        <pt x="273" y="169" on="0"/>
        <pt x="223" y="169" on="1"/>
        <pt x="155" y="169" on="0"/>
        <pt x="81" y="245" on="0"/>
        <pt x="81" y="310" on="1"/>
        <pt x="81" y="450" on="1"/>
        <pt x="43" y="457" on="0"/>
        <pt x="15" y="474" on="1"/>
      </contour>
    </TTGlyph>
    <TTGlyph name="afii10090" xMin="39" yMin="0" xMax="793" yMax="500">
      <contour>
        <pt x="637" y="44" on="1"/>
        <pt x="637" y="450" on="1"/>
        <pt x="605" y="459" on="0"/>
        <pt x="583" y="474" on="1"/>
        <pt x="583" y="500" on="1"/>
        <pt x="793" y="500" on="1"/>
        <pt x="793" y="474" on="1"/>
        <pt x="779" y="466" on="0"/>
        <pt x="747" y="454" on="0"/>
        <pt x="727" y="450" on="1"/>
        <pt x="727" y="49" on="1"/>
        <pt x="764" y="41" on="0"/>
        <pt x="793" y="25" on="1"/>
        <pt x="793" y="0" on="1"/>
        <pt x="39" y="0" on="1"/>
        <pt x="39" y="25" on="1"/>
        <pt x="67" y="41" on="0"/>
        <pt x="105" y="49" on="1"/>
        <pt x="105" y="450" on="1"/>
        <pt x="88" y="452" on="0"/>
        <pt x="56" y="463" on="0"/>
        <pt x="39" y="474" on="1"/>
        <pt x="39" y="500" on="1"/>
        <pt x="249" y="500" on="1"/>
        <pt x="249" y="474" on="1"/>
        <pt x="223" y="459" on="0"/>
        <pt x="195" y="450" on="1"/>
        <pt x="195" y="44" on="1"/>
        <pt x="371" y="44" on="1"/>
        <pt x="371" y="450" on="1"/>
        <pt x="355" y="455" on="0"/>
        <pt x="325" y="466" on="0"/>
        <pt x="311" y="474" on="1"/>
        <pt x="311" y="500" on="1"/>
        <pt x="515" y="500" on="1"/>
        <pt x="515" y="474" on="1"/>
        <pt x="507" y="468" on="0"/>
        <pt x="482" y="456" on="0"/>
        <pt x="461" y="450" on="1"/>
        <pt x="461" y="44" on="1"/>
      </contour>
    </TTGlyph>
    <TTGlyph name="afii10091" xMin="39" yMin="-148" xMax="816" yMax="500">
      <contour>
        <pt x="39" y="0" on="1"/>
        <pt x="39" y="25" on="1"/>
        <pt x="67" y="41" on="0"/>
        <pt x="105" y="49" on="1"/>
        <pt x="105" y="450" on="1"/>
        <pt x="85" y="454" on="0"/>
        <pt x="53" y="466" on="0"/>
        <pt x="39" y="474" on="1"/>
        <pt x="39" y="500" on="1"/>
        <pt x="249" y="500" on="1"/>
        <pt x="249" y="474" on="1"/>
        <pt x="239" y="467" on="0"/>
        <pt x="212" y="455" on="0"/>
        <pt x="195" y="450" on="1"/>
        <pt x="195" y="44" on="1"/>
        <pt x="371" y="44" on="1"/>
        <pt x="371" y="450" on="1"/>
        <pt x="356" y="454" on="0"/>
        <pt x="325" y="466" on="0"/>
        <pt x="311" y="474" on="1"/>
        <pt x="311" y="500" on="1"/>
        <pt x="515" y="500" on="1"/>
        <pt x="515" y="474" on="1"/>
        <pt x="504" y="466" on="0"/>
        <pt x="476" y="454" on="0"/>
        <pt x="461" y="450" on="1"/>
        <pt x="461" y="44" on="1"/>
        <pt x="637" y="44" on="1"/>
        <pt x="637" y="450" on="1"/>
        <pt x="605" y="459" on="0"/>
        <pt x="583" y="474" on="1"/>
        <pt x="583" y="500" on="1"/>
        <pt x="793" y="500" on="1"/>
        <pt x="793" y="474" on="1"/>
        <pt x="779" y="466" on="0"/>
        <pt x="747" y="455" on="0"/>
        <pt x="727" y="450" on="1"/>
        <pt x="727" y="44" on="1"/>
        <pt x="816" y="44" on="1"/>
        <pt x="815" y="-4" on="0"/>
        <pt x="808" y="-101" on="0"/>
        <pt x="805" y="-148" on="1"/>
        <pt x="779" y="-148" on="1"/>
        <pt x="734" y="0" on="1"/>
      </contour>
    </TTGlyph>
    <TTGlyph name="afii10092" xMin="15" yMin="-4" xMax="539" yMax="500">
      <contour>
        <pt x="264" y="43" on="1"/>
        <pt x="278" y="42" on="0"/>
        <pt x="303" y="40" on="0"/>
        <pt x="317" y="40" on="1"/>
        <pt x="376" y="40" on="0"/>
        <pt x="441" y="98" on="0"/>
        <pt x="441" y="160" on="1"/>
        <pt x="441" y="188" on="0"/>
        <pt x="423" y="227" on="0"/>
        <pt x="392" y="251" on="0"/>
        <pt x="351" y="262" on="0"/>
        <pt x="329" y="262" on="1"/>
        <pt x="295" y="262" on="0"/>
        <pt x="264" y="256" on="1"/>
      </contour>
      <contour>
        <pt x="324" y="500" on="1"/>
        <pt x="324" y="474" on="1"/>
        <pt x="312" y="466" on="0"/>
        <pt x="282" y="455" on="0"/>
        <pt x="264" y="450" on="1"/>
        <pt x="264" y="296" on="1"/>
        <pt x="281" y="298" on="0"/>
        <pt x="324" y="304" on="0"/>
        <pt x="364" y="304" on="1"/>
        <pt x="446" y="304" on="0"/>
        <pt x="539" y="234" on="0"/>
        <pt x="539" y="159" on="1"/>
        <pt x="539" y="119" on="0"/>
        <pt x="509" y="58" on="0"/>
        <pt x="454" y="17" on="0"/>
        <pt x="379" y="-4" on="0"/>
        <pt x="334" y="-4" on="1"/>
        <pt x="307" y="-4" on="0"/>
        <pt x="240" y="0" on="0"/>
        <pt x="202" y="0" on="1"/>
        <pt x="108" y="0" on="1"/>
        <pt x="108" y="25" on="1"/>
        <pt x="136" y="41" on="0"/>
        <pt x="174" y="49" on="1"/>
        <pt x="174" y="456" on="1"/>
        <pt x="96" y="456" on="1"/>
        <pt x="52" y="336" on="1"/>
        <pt x="26" y="336" on="1"/>
        <pt x="21" y="374" on="0"/>
        <pt x="16" y="462" on="0"/>
        <pt x="15" y="500" on="1"/>
      </contour>
    </TTGlyph>
    <TTGlyph name="afii10093" xMin="39" yMin="-4" xMax="707" yMax="500">
      <contour>
        <pt x="195" y="296" on="1"/>
        <pt x="212" y="298" on="0"/>
        <pt x="254" y="304" on="0"/>
        <pt x="294" y="304" on="1"/>
        <pt x="369" y="304" on="0"/>
        <pt x="460" y="234" on="0"/>
        <pt x="460" y="159" on="1"/>
        <pt x="460" y="119" on="0"/>
        <pt x="431" y="58" on="0"/>
        <pt x="379" y="17" on="0"/>
        <pt x="307" y="-4" on="0"/>
        <pt x="264" y="-4" on="1"/>
        <pt x="237" y="-4" on="0"/>
        <pt x="170" y="0" on="0"/>
        <pt x="132" y="0" on="1"/>
        <pt x="39" y="0" on="1"/>
        <pt x="39" y="25" on="1"/>
        <pt x="56" y="35" on="0"/>
        <pt x="88" y="45" on="0"/>
        <pt x="105" y="49" on="1"/>
        <pt x="105" y="450" on="1"/>
        <pt x="86" y="453" on="0"/>
        <pt x="54" y="466" on="0"/>
        <pt x="39" y="474" on="1"/>
        <pt x="39" y="500" on="1"/>
        <pt x="255" y="500" on="1"/>
        <pt x="255" y="474" on="1"/>
        <pt x="232" y="460" on="0"/>
        <pt x="195" y="450" on="1"/>
      </contour>
      <contour>
        <pt x="195" y="43" on="1"/>
        <pt x="208" y="42" on="0"/>
        <pt x="234" y="40" on="0"/>
        <pt x="248" y="40" on="1"/>
        <pt x="361" y="40" on="0"/>
        <pt x="361" y="160" on="1"/>
        <pt x="361" y="188" on="0"/>
        <pt x="344" y="227" on="0"/>
        <pt x="315" y="250" on="0"/>
        <pt x="277" y="260" on="0"/>
        <pt x="256" y="260" on="1"/>
        <pt x="242" y="260" on="0"/>
        <pt x="210" y="259" on="0"/>
        <pt x="195" y="256" on="1"/>
      </contour>
      <contour>
        <pt x="707" y="0" on="1"/>
        <pt x="492" y="0" on="1"/>
        <pt x="492" y="25" on="1"/>
        <pt x="506" y="32" on="0"/>
        <pt x="534" y="44" on="0"/>
        <pt x="551" y="49" on="1"/>
        <pt x="551" y="450" on="1"/>
        <pt x="513" y="457" on="0"/>
        <pt x="491" y="474" on="1"/>
        <pt x="491" y="500" on="1"/>
        <pt x="707" y="500" on="1"/>
        <pt x="707" y="474" on="1"/>
        <pt x="695" y="466" on="0"/>
        <pt x="661" y="455" on="0"/>
        <pt x="641" y="450" on="1"/>
        <pt x="641" y="49" on="1"/>
        <pt x="658" y="44" on="0"/>
        <pt x="690" y="33" on="0"/>
        <pt x="707" y="25" on="1"/>
      </contour>
    </TTGlyph>
</ttFont>
